<svg width="30" height="31" viewBox="0 0 30 31" fill="none" xmlns="http://www.w3.org/2000/svg">
<path d="M20.9375 4.95V3C20.9375 2.4875 20.5125 2.0625 20 2.0625C19.4875 2.0625 19.0625 2.4875 19.0625 3V4.875H10.9375V3C10.9375 2.4875 10.5125 2.0625 9.99998 2.0625C9.48748 2.0625 9.06248 2.4875 9.06248 3V4.95C5.68748 5.2625 4.04998 7.275 3.79998 10.2625C3.77498 10.625 4.07498 10.925 4.42498 10.925H25.575C25.9375 10.925 26.2375 10.6125 26.2 10.2625C25.95 7.275 24.3125 5.2625 20.9375 4.95Z" fill="currentColor" />
<path d="M25 12.8H5C4.3125 12.8 3.75 13.3625 3.75 14.05V21.75C3.75 25.5 5.625 28 10 28H20C24.375 28 26.25 25.5 26.25 21.75V14.05C26.25 13.3625 25.6875 12.8 25 12.8ZM11.5125 23.2625C11.45 23.3125 11.3875 23.375 11.325 23.4125C11.25 23.4625 11.175 23.5 11.1 23.525C11.025 23.5625 10.95 23.5875 10.875 23.6C10.7875 23.6125 10.7125 23.625 10.625 23.625C10.4625 23.625 10.3 23.5875 10.15 23.525C9.9875 23.4625 9.8625 23.375 9.7375 23.2625C9.5125 23.025 9.375 22.7 9.375 22.375C9.375 22.05 9.5125 21.725 9.7375 21.4875C9.8625 21.375 9.9875 21.2875 10.15 21.225C10.375 21.125 10.625 21.1 10.875 21.15C10.95 21.1625 11.025 21.1875 11.1 21.225C11.175 21.25 11.25 21.2875 11.325 21.3375C11.3875 21.3875 11.45 21.4375 11.5125 21.4875C11.7375 21.725 11.875 22.05 11.875 22.375C11.875 22.7 11.7375 23.025 11.5125 23.2625ZM11.5125 18.8875C11.275 19.1125 10.95 19.25 10.625 19.25C10.3 19.25 9.975 19.1125 9.7375 18.8875C9.5125 18.65 9.375 18.325 9.375 18C9.375 17.675 9.5125 17.35 9.7375 17.1125C10.0875 16.7625 10.6375 16.65 11.1 16.85C11.2625 16.9125 11.4 17 11.5125 17.1125C11.7375 17.35 11.875 17.675 11.875 18C11.875 18.325 11.7375 18.65 11.5125 18.8875ZM15.8875 23.2625C15.65 23.4875 15.325 23.625 15 23.625C14.675 23.625 14.35 23.4875 14.1125 23.2625C13.8875 23.025 13.75 22.7 13.75 22.375C13.75 22.05 13.8875 21.725 14.1125 21.4875C14.575 21.0251 15.425 21.0251 15.8875 21.4875C16.1125 21.725 16.25 22.05 16.25 22.375C16.25 22.7 16.1125 23.025 15.8875 23.2625ZM15.8875 18.8875C15.825 18.9375 15.7625 18.9875 15.7 19.0375C15.625 19.0875 15.55 19.125 15.475 19.15C15.4 19.1875 15.325 19.2125 15.25 19.225C15.1625 19.2375 15.0875 19.25 15 19.25C14.675 19.25 14.35 19.1125 14.1125 18.8875C13.8875 18.65 13.75 18.325 13.75 18C13.75 17.675 13.8875 17.35 14.1125 17.1125C14.225 17 14.3625 16.9125 14.525 16.85C14.9875 16.65 15.5375 16.7625 15.8875 17.1125C16.1125 17.35 16.25 17.675 16.25 18C16.25 18.325 16.1125 18.65 15.8875 18.8875ZM20.2625 23.2625C20.025 23.4875 19.7 23.625 19.375 23.625C19.05 23.625 18.725 23.4875 18.4875 23.2625C18.2625 23.025 18.125 22.7 18.125 22.375C18.125 22.05 18.2625 21.725 18.4875 21.4875C18.95 21.0251 19.8 21.0251 20.2625 21.4875C20.4875 21.725 20.625 22.05 20.625 22.375C20.625 22.7 20.4875 23.025 20.2625 23.2625ZM20.2625 18.8875C20.2 18.9375 20.1375 18.9875 20.075 19.0375C20 19.0875 19.925 19.125 19.85 19.15C19.775 19.1875 19.7 19.2125 19.625 19.225C19.5375 19.2375 19.45 19.25 19.375 19.25C19.05 19.25 18.725 19.1125 18.4875 18.8875C18.2625 18.65 18.125 18.325 18.125 18C18.125 17.675 18.2625 17.35 18.4875 17.1125C18.6125 17 18.7375 16.9125 18.9 16.85C19.125 16.75 19.375 16.725 19.625 16.775C19.7 16.7875 19.775 16.8125 19.85 16.85C19.925 16.875 20 16.9125 20.075 16.9625C20.1375 17.0125 20.2 17.0625 20.2625 17.1125C20.4875 17.35 20.625 17.675 20.625 18C20.625 18.325 20.4875 18.65 20.2625 18.8875Z" fill="currentColor"/>
</svg>
