<svg width="30" height="31" viewBox="0 0 30 31" fill="none" xmlns="http://www.w3.org/2000/svg">
<path d="M14.0625 23.3125H11.25C9.875 23.3125 8.75 24.4375 8.75 25.8125V26.125H7.5C6.9875 26.125 6.5625 26.55 6.5625 27.0625C6.5625 27.575 6.9875 28 7.5 28H22.5C23.0125 28 23.4375 27.575 23.4375 27.0625C23.4375 26.55 23.0125 26.125 22.5 26.125H21.25V25.8125C21.25 24.4375 20.125 23.3125 18.75 23.3125H15.9375V20.45C15.625 20.4875 15.3125 20.5 15 20.5C14.6875 20.5 14.375 20.4875 14.0625 20.45V23.3125Z" fill="currentColor"/>
<path d="M23.1 15.05C23.925 14.7375 24.65 14.225 25.225 13.65C26.3875 12.3625 27.15 10.825 27.15 9.025C27.15 7.225 25.7375 5.8125 23.9375 5.8125H23.2375C22.425 4.15 20.725 3 18.75 3H11.25C9.27504 3 7.57504 4.15 6.76254 5.8125H6.06254C4.26254 5.8125 2.85004 7.225 2.85004 9.025C2.85004 10.825 3.61254 12.3625 4.77504 13.65C5.35004 14.225 6.07504 14.7375 6.90004 15.05C8.20004 18.25 11.325 20.5 15 20.5C18.675 20.5 21.8 18.25 23.1 15.05ZM18.55 11.0625L17.775 12.0125C17.65 12.15 17.5625 12.425 17.575 12.6125L17.65 13.8375C17.7 14.5875 17.1625 14.975 16.4625 14.7L15.325 14.25C15.15 14.1875 14.85 14.1875 14.675 14.25L13.5375 14.7C12.8375 14.975 12.3 14.5875 12.35 13.8375L12.425 12.6125C12.4375 12.425 12.35 12.15 12.225 12.0125L11.45 11.0625C10.9625 10.4875 11.175 9.85 11.9 9.6625L13.0875 9.3625C13.275 9.3125 13.5 9.1375 13.6 8.975L14.2625 7.95C14.675 7.3125 15.325 7.3125 15.7375 7.95L16.4 8.975C16.5 9.1375 16.725 9.3125 16.9125 9.3625L18.1 9.6625C18.825 9.85 19.0375 10.4875 18.55 11.0625Z" fill="currentColor"/>
</svg>
