<svg width="184" height="89" viewBox="0 0 184 89" fill="none" xmlns="http://www.w3.org/2000/svg">
<path d="M42.6717 0C49.9025 0 53.4608 3.32044 55.5921 8.41543L85.2244 80.4862H69.5781L62.8229 63.2986H22.2826L15.5274 80.4862H0L29.6369 8.53433C31.7682 3.32043 35.3219 0 42.6717 0ZM58.4369 52.1573L44.3319 16.1219C43.7373 14.8185 43.0284 14.5806 42.6717 14.5806C42.196 14.5806 41.4871 14.8185 40.8925 16.1219L26.6686 52.1573H58.4369Z" fill="black"/>
<path d="M165.958 26.6687C165.958 44.8075 156.349 53.6986 136.889 53.6986H107.695V80.4862H93.7595V0H136.889C156.349 0 165.958 8.89109 165.958 26.6687ZM136.166 42.5253C146.136 42.5253 151.181 37.2382 151.181 26.6687C151.181 16.4558 146.136 11.2922 136.166 11.2922H107.695V42.5253H136.166Z" fill="black"/>
<path d="M148.085 71.4052C161.82 69.2739 163.549 67.5405 165.68 53.8105C167.811 67.5451 169.545 69.2739 183.275 71.4052C169.54 73.5365 167.811 75.2699 165.68 88.9998C163.549 75.2653 161.82 73.5365 148.085 71.4052Z" fill="#0F645B"/>
</svg>
