<svg viewBox="0 0 454 89" fill="none" xmlns="http://www.w3.org/2000/svg">
<path d="M43.0703 0C50.3012 0 53.8595 3.32044 55.9908 8.41543L85.6231 80.4862H69.9768L63.2216 63.2986H22.6812L15.926 80.4862H0.398682L30.0356 8.53433C32.1669 3.32043 35.7206 0 43.0703 0ZM58.8355 52.1573L44.7306 16.1219C44.136 14.8185 43.4271 14.5806 43.0703 14.5806C42.5947 14.5806 41.8858 14.8185 41.2912 16.1219L27.0673 52.1573H58.8355Z" fill="black"/>
<path d="M166.357 26.6687C166.357 44.8075 156.748 53.6986 137.287 53.6986H108.094V80.4862H94.1583V0H137.287C156.748 0 166.357 8.89109 166.357 26.6687ZM136.565 42.5253C146.535 42.5253 151.58 37.2382 151.58 26.6687C151.58 16.4558 146.535 11.2922 136.565 11.2922H108.094V42.5253H136.565Z" fill="black"/>
<path d="M148.484 71.4052C162.219 69.2739 163.948 67.5405 166.079 53.8105C168.21 67.5451 169.944 69.2739 183.673 71.4052C169.939 73.5365 168.21 75.2699 166.079 88.9998C163.948 75.2653 162.219 73.5365 148.484 71.4052Z" fill="#0F645B"/>
<path d="M201.446 15.1421H223.491V20.1685H206.998V30.6923H222.443V35.5632H206.998V46.7685H224.017V51.7949H201.446V15.1421Z" fill="black"/>
<path d="M235.899 51.0303C234.467 50.3168 233.264 49.3472 232.286 48.1261C231.307 46.9049 230.557 45.5191 230.035 43.9641C229.514 42.4091 229.249 40.7626 229.249 39.0154V38.5444C229.249 36.6601 229.546 34.8535 230.141 33.1246C230.735 31.3958 231.622 29.8683 232.812 28.5419C233.996 27.2156 235.501 26.1499 237.317 25.3495C239.132 24.5492 241.245 24.1467 243.651 24.1467H243.912C245.064 24.1467 246.198 24.261 247.314 24.4851C248.43 24.7138 249.583 25.0888 250.772 25.6102V14.0894H255.954V51.7895H251.87C251.696 51.2315 251.513 50.5089 251.321 49.617C251.129 48.7252 251.033 47.966 251.033 47.3394V46.7631C250.475 47.6001 249.853 48.341 249.176 48.9905C248.494 49.6353 247.735 50.2025 246.898 50.6918C246.061 51.1812 245.179 51.538 244.255 51.7666C243.331 51.9953 242.311 52.1051 241.19 52.1051H240.98C239.023 52.1051 237.33 51.7483 235.899 51.0303ZM242.233 47.4446C243.386 47.4446 244.483 47.225 245.531 46.7906C246.578 46.3561 247.484 45.7021 248.252 44.8285C249.02 43.9549 249.638 42.9167 250.109 41.7139C250.58 40.511 250.813 39.1755 250.813 37.7074V30.7967C249.903 30.0649 248.892 29.5161 247.776 29.1456C246.66 28.7797 245.544 28.5968 244.424 28.5968H244.163C242.521 28.5968 241.099 28.8758 239.896 29.4338C238.693 29.9917 237.705 30.7235 236.937 31.6337C236.169 32.5438 235.592 33.5729 235.208 34.7209C234.824 35.8734 234.632 37.1128 234.632 38.4392V38.6999C234.632 40.1314 234.833 41.4075 235.236 42.5234C235.638 43.6394 236.178 44.5586 236.859 45.2721C237.541 45.9902 238.327 46.5299 239.215 46.8958C240.106 47.2617 241.003 47.4446 241.913 47.4446H242.233Z" fill="black"/>
<path d="M266.527 49.6149C264.885 47.854 264.067 45.3111 264.067 41.9953V24.5607H269.249V40.9479C269.249 43.0792 269.711 44.7028 270.634 45.8188C271.558 46.9348 273.049 47.4928 275.112 47.4928H275.268C276.42 47.4928 277.495 47.3098 278.487 46.9439C279.48 46.578 280.335 46.0475 281.053 45.3477C281.767 44.648 282.32 43.811 282.704 42.8323C283.088 41.8535 283.28 40.7375 283.28 39.4798V24.5562H288.412V51.7828H284.383C284.172 51.2934 283.999 50.6668 283.857 49.8984C283.715 49.1301 283.628 48.4486 283.596 47.8586C282.411 49.2536 280.985 50.3375 279.329 51.1059C277.673 51.8742 275.862 52.2584 273.909 52.2584H273.754C270.575 52.2584 268.169 51.3803 266.527 49.6149Z" fill="black"/>
<path d="M303.542 51.1898C301.831 50.5449 300.382 49.6119 299.197 48.3907C298.008 47.1696 297.084 45.7198 296.421 44.0458C295.758 42.3719 295.428 40.5013 295.428 38.4432V37.9218C295.428 35.8637 295.758 33.9931 296.421 32.3191C297.084 30.6452 298.017 29.2045 299.22 28.0016C300.423 26.7988 301.854 25.8658 303.514 25.2026C305.17 24.5394 307.013 24.2056 309.039 24.2056H309.355C312.008 24.2056 314.322 24.791 316.293 25.9572C318.264 27.1281 319.792 28.6877 320.876 30.6452L316.792 33.2613C316.06 31.8298 315.063 30.7046 313.805 29.886C312.547 29.0673 311.029 28.6557 309.25 28.6557H309.199C307.873 28.6557 306.693 28.8752 305.664 29.3097C304.635 29.7488 303.752 30.3662 303.021 31.1666C302.289 31.9715 301.744 32.9457 301.397 34.0982C301.049 35.2508 300.875 36.5589 300.875 38.027V38.3426C300.875 39.8107 301.086 41.1096 301.502 42.2438C301.923 43.3781 302.495 44.3477 303.231 45.1481C303.963 45.953 304.873 46.5705 305.952 47.005C307.036 47.444 308.221 47.659 309.515 47.659H309.565C311.45 47.659 313.005 47.2336 314.226 46.3784C315.447 45.5231 316.407 44.4666 317.107 43.2089L321.036 45.8798C319.847 47.8007 318.287 49.3283 316.348 50.4626C314.409 51.5968 312.099 52.164 309.41 52.164H309.044C307.086 52.1594 305.252 51.8347 303.542 51.1898Z" fill="black"/>
<path d="M331.766 51.029C330.334 50.3155 329.113 49.355 328.102 48.1476C327.091 46.9448 326.323 45.5498 325.797 43.9582C325.271 42.3711 325.01 40.7201 325.01 39.0095V38.4836C325.01 36.6359 325.326 34.8384 325.953 33.0913C326.579 31.3442 327.489 29.8121 328.674 28.4857C329.858 27.1594 331.363 26.1029 333.179 25.3162C334.995 24.5296 337.108 24.1362 339.513 24.1362H339.829C340.84 24.1362 341.864 24.214 342.893 24.3741C343.922 24.5296 344.928 24.804 345.903 25.1836C346.881 25.5678 347.856 26.0114 348.834 26.5191C349.813 27.0267 350.774 27.6259 351.716 28.3256V51.7836H347.631C347.421 51.2257 347.229 50.5076 347.055 49.6386C346.881 48.7651 346.794 48.015 346.794 47.3884V46.8121C346.305 47.6171 345.72 48.3397 345.043 48.9846C344.361 49.6294 343.611 50.1966 342.793 50.686C341.974 51.1753 341.082 51.5321 340.122 51.7607C339.161 51.9894 338.141 52.0992 337.057 52.0992H336.797C334.871 52.1038 333.197 51.747 331.766 51.029ZM337.995 47.4433C339.179 47.4433 340.3 47.2237 341.347 46.7892C342.395 46.3548 343.3 45.7007 344.069 44.8272C344.837 43.9536 345.445 42.9154 345.903 41.7126C346.355 40.5097 346.584 39.1742 346.584 37.7061V30.7954C345.674 30.027 344.663 29.469 343.547 29.1214C342.431 28.7739 341.311 28.5955 340.195 28.5955H339.984C338.342 28.5955 336.92 28.8745 335.717 29.4325C334.514 29.9904 333.526 30.7131 332.758 31.6049C331.99 32.4968 331.404 33.5258 331.006 34.6921C330.604 35.8629 330.403 37.1115 330.403 38.4379V38.6985C330.403 40.1301 330.613 41.4061 331.029 42.5221C331.45 43.6381 331.999 44.5573 332.68 45.2708C333.362 45.9889 334.139 46.5286 335.008 46.8945C335.882 47.2603 336.769 47.4433 337.679 47.4433H337.995Z" fill="black"/>
<path d="M365.04 51.4792C364.011 51.1316 363.165 50.6056 362.502 49.9104C361.838 49.2107 361.322 48.3417 360.956 47.2943C360.59 46.247 360.407 45.0258 360.407 43.6309C360.444 42.5835 360.485 41.431 360.54 40.1732C360.59 38.9155 360.663 37.6441 360.75 36.3497C360.837 35.06 360.951 33.7839 361.088 32.5262C361.226 31.2684 361.404 30.1022 361.61 29.0182H356.949V25.4051C357.507 25.1947 358.143 25.0209 358.861 24.8837C359.575 24.7465 360.265 24.6413 360.928 24.5681V18.284L366.11 17.6025V24.5681H374.594V29.0182H366.215C366.147 29.997 366.064 31.0078 365.982 32.0551C365.895 33.1025 365.827 34.1955 365.772 35.3298C365.721 36.464 365.685 37.6349 365.667 38.8378C365.648 40.0406 365.639 41.2572 365.639 42.4783C365.603 44.294 365.946 45.5609 366.659 46.2744C367.372 46.9879 368.392 47.3492 369.723 47.3492C370.108 47.3492 370.533 47.3401 371.004 47.3218C371.475 47.3035 371.974 47.2715 372.495 47.2166C373.021 47.1617 373.497 47.1022 373.936 47.0336C374.37 46.965 374.731 46.8781 375.01 46.7729V51.0676C374.663 51.2414 374.215 51.3923 373.675 51.5112C373.135 51.6347 372.559 51.7307 371.946 51.7993C371.333 51.8679 370.748 51.9228 370.19 51.9548C369.632 51.9914 369.092 52.0051 368.566 52.0051C367.244 52.0006 366.069 51.8268 365.04 51.4792Z" fill="black"/>
<path d="M380.982 19.67C380.387 19.0937 380.09 18.3711 380.09 17.4975C380.09 16.624 380.387 15.8922 380.982 15.2976C381.576 14.7031 382.344 14.4058 383.287 14.4058C384.229 14.4058 385.015 14.7031 385.642 15.2976C386.269 15.8922 386.584 16.624 386.584 17.4975C386.584 18.3711 386.278 19.0937 385.669 19.67C385.057 20.2462 384.265 20.5344 383.287 20.5344C382.34 20.5344 381.572 20.2462 380.982 19.67ZM380.771 24.5637H385.903V51.7903H380.771V24.5637Z" fill="black"/>
<path d="M401.242 51.1922C399.532 50.5108 398.055 49.5686 396.82 48.3658C395.58 47.1629 394.62 45.7039 393.938 43.9934C393.257 42.2829 392.918 40.4351 392.918 38.4456V37.9243C392.918 35.8982 393.257 34.0413 393.938 32.349C394.62 30.6568 395.58 29.207 396.82 28.0041C398.059 26.8013 399.532 25.8591 401.242 25.1776C402.953 24.4962 404.837 24.1577 406.895 24.1577H407.211C409.232 24.1577 411.112 24.4962 412.841 25.1776C414.57 25.8591 416.052 26.8013 417.291 28.0041C418.531 29.207 419.5 30.6568 420.195 32.349C420.895 34.0413 421.243 35.9027 421.243 37.9243V38.4456C421.243 40.4351 420.895 42.2874 420.195 43.9934C419.496 45.7039 418.526 47.1629 417.291 48.3658C416.052 49.5686 414.57 50.5108 412.841 51.1922C411.112 51.8737 409.237 52.2122 407.211 52.2122H406.895C404.837 52.2122 402.953 51.8737 401.242 51.1922ZM407.106 47.7072C408.395 47.7072 409.575 47.4785 410.641 47.0257C411.707 46.5729 412.621 45.928 413.39 45.0865C414.158 44.2495 414.762 43.2616 415.196 42.1274C415.631 40.9931 415.85 39.7445 415.85 38.3816V37.9608C415.85 36.5659 415.631 35.3081 415.196 34.1922C414.757 33.0762 414.158 32.0975 413.39 31.2605C412.621 30.4235 411.707 29.7787 410.641 29.3213C409.575 28.8685 408.4 28.6398 407.106 28.6398H406.95C405.692 28.6398 404.531 28.8685 403.47 29.3213C402.404 29.7741 401.498 30.419 400.748 31.2605C399.998 32.0975 399.413 33.0762 398.997 34.1922C398.576 35.3081 398.37 36.5659 398.37 37.9608V38.3816C398.37 39.7445 398.571 40.9931 398.974 42.1274C399.376 43.2616 399.962 44.2495 400.726 45.0865C401.494 45.9235 402.399 46.5729 403.447 47.0257C404.494 47.4785 405.665 47.7072 406.955 47.7072H407.106Z" fill="black"/>
<path d="M428.21 24.5634H432.294C432.468 25.0848 432.624 25.7342 432.765 26.5026C432.903 27.2709 433.008 27.9524 433.081 28.5424C434.265 27.1109 435.724 26.0132 437.453 25.2448C439.182 24.4765 441.007 24.0923 442.923 24.0923H443.134C446.413 24.0923 448.883 24.9841 450.543 26.7633C452.199 28.5424 453.031 31.0899 453.031 34.4058V51.79H447.849V35.4531C447.849 33.2898 447.36 31.6479 446.381 30.5319C445.402 29.4159 443.833 28.858 441.67 28.858H441.46C440.275 28.858 439.182 29.0409 438.19 29.4068C437.193 29.7727 436.337 30.2987 435.624 30.9755C434.906 31.657 434.357 32.4848 433.973 33.4636C433.589 34.4423 433.396 35.5583 433.396 36.816V51.79H428.215V24.5634H428.21Z" fill="black"/>
</svg>
