<svg width="30" height="30" viewBox="0 0 30 30" fill="none" xmlns="http://www.w3.org/2000/svg">
    <path
        d="M24.175 18.1125L22.925 16.0375C22.6625 15.575 22.425 14.7 22.425 14.1875V11.025C22.425 8.0875 20.7 5.55 18.2125 4.3625C17.5625 3.2125 16.3625 2.5 14.9875 2.5C13.625 2.5 12.4 3.2375 11.75 4.4C9.31249 5.6125 7.62499 8.125 7.62499 11.025V14.1875C7.62499 14.7 7.38749 15.575 7.12499 16.025L5.86249 18.1125C5.36249 18.95 5.24999 19.875 5.56249 20.725C5.86249 21.5625 6.57499 22.2125 7.49999 22.525C9.92499 23.35 12.475 23.75 15.025 23.75C17.575 23.75 20.125 23.35 22.55 22.5375C23.425 22.25 24.1 21.5875 24.425 20.725C24.75 19.8625 24.6625 18.9125 24.175 18.1125Z"
        fill="currentColor" />
    <path
        d="M18.5375 25.0125C18.0125 26.4625 16.625 27.5 15 27.5C14.0125 27.5 13.0375 27.1 12.35 26.3875C11.95 26.0125 11.65 25.5125 11.475 25C11.6375 25.025 11.8 25.0375 11.975 25.0625C12.2625 25.1 12.5625 25.1375 12.8625 25.1625C13.575 25.225 14.3 25.2625 15.025 25.2625C15.7375 25.2625 16.45 25.225 17.15 25.1625C17.4125 25.1375 17.675 25.125 17.925 25.0875C18.125 25.0625 18.325 25.0375 18.5375 25.0125Z"
        fill="currentColor" />
</svg>