<?xml version="1.0" standalone="no"?>
<!DOCTYPE svg PUBLIC "-//W3C//DTD SVG 20010904//EN"
 "http://www.w3.org/TR/2001/REC-SVG-20010904/DTD/svg10.dtd">
<svg version="1.0" xmlns="http://www.w3.org/2000/svg"
 width="700.000000pt" height="700.000000pt" viewBox="0 0 700.000000 700.000000"
 preserveAspectRatio="xMidYMid meet">
<metadata>
Created by potrace 1.14, written by Peter Selinger 2001-2017
</metadata>
<g transform="translate(0.000000,700.000000) scale(0.100000,-0.100000)"
fill="#000000" stroke="none">
<path d="M1900 4836 c-117 -25 -201 -89 -253 -193 -17 -34 -868 -2090 -914
-2210 -4 -10 46 -13 229 -13 l235 0 100 258 101 257 613 0 613 0 101 -257 100
-258 237 0 237 0 -69 168 c-756 1842 -850 2066 -892 2120 -91 117 -261 167
-438 128z m144 -444 c16 -18 449 -1112 442 -1119 -1 -2 -217 -2 -478 -1 l-476
3 217 547 c119 302 224 557 233 568 22 25 40 25 62 2z"/>
<path d="M3560 3636 l0 -1216 210 0 210 0 0 404 0 405 558 3 557 4 95 26 c359
97 524 315 547 718 10 184 -20 349 -88 487 -91 187 -247 297 -504 356 -86 20
-127 21 -837 24 l-748 4 0 -1215z m1378 864 c238 -39 351 -187 352 -461 0
-227 -83 -377 -244 -441 -81 -31 -191 -38 -632 -38 l-434 0 0 475 0 475 448 0
c256 0 474 -5 510 -10z"/>
<path d="M5717 3091 c-50 -268 -119 -329 -447 -397 -32 -6 -28 -8 54 -25 246
-50 331 -121 380 -319 8 -36 19 -87 22 -113 4 -26 9 -46 11 -43 2 2 13 44 23
93 54 260 126 330 395 383 64 12 83 19 65 23 -14 3 -68 15 -122 27 -217 47
-288 124 -336 362 -10 48 -20 90 -23 92 -3 3 -12 -35 -22 -83z"/>
</g>
</svg>
