<svg width="334" height="84" viewBox="0 0 334 84" fill="none" xmlns="http://www.w3.org/2000/svg">
    <path class="helden-h"
        d="M8.29975 83.1002C8.29975 83.1002 7.96642 82.9669 7.29975 82.7002C6.63308 82.5002 5.89975 82.3002 5.09975 82.1002C4.36642 81.9002 3.79975 81.8002 3.39975 81.8002C2.33309 81.5336 1.56642 80.9336 1.09975 80.0002C0.633085 79.1336 0.533085 78.1669 0.799751 77.1002C1.06642 76.8336 1.26642 76.2669 1.39975 75.4002C1.53309 74.5336 1.59975 73.8336 1.59975 73.3002C1.86642 72.7669 2.03309 72.4002 2.09975 72.2002C2.16642 71.9336 2.33309 71.2669 2.59975 70.2002C2.79975 69.0669 3.13309 67.5002 3.59975 65.5002C4.13309 63.4336 4.69975 61.2336 5.29975 58.9002C5.96642 56.5669 6.59975 54.3336 7.19975 52.2002C7.79975 50.0669 8.33309 48.2669 8.79975 46.8002C9.33309 45.3336 9.69975 44.5002 9.89975 44.3002C9.89975 44.3002 9.89975 44.2002 9.89975 44.0002C9.89975 43.7336 9.89975 43.4669 9.89975 43.2002C9.89975 43.2002 9.93309 42.9002 9.99975 42.3002C10.1331 41.6336 10.4664 40.9002 10.9998 40.1002C11.2664 39.3669 11.4998 38.5669 11.6998 37.7002C11.8998 36.8336 11.9998 36.2669 11.9998 36.0002C12.2664 35.6669 12.6331 34.8669 13.0998 33.6002C13.6331 32.2669 14.1331 30.9669 14.5998 29.7002C14.9998 28.6336 15.4331 27.5002 15.8998 26.3002C16.4331 25.1002 16.8664 24.0669 17.1998 23.2002C17.5998 22.3336 17.7998 21.9002 17.7998 21.9002C17.7998 21.6336 17.7998 21.5002 17.7998 21.5002C17.7998 21.4336 17.7998 21.4002 17.7998 21.4002C18.0664 21.1336 18.6998 19.8002 19.6998 17.4002C20.7664 14.9336 22.1998 11.7669 23.9998 7.90023C24.2664 7.3669 24.6664 6.53356 25.1998 5.40023C25.7331 4.20023 25.9998 3.46689 25.9998 3.20023C26.9998 2.20023 27.9664 1.86689 28.8998 2.20023C29.8998 2.46689 30.7664 3.03356 31.4998 3.90023C32.2998 4.7669 32.8664 5.56689 33.1998 6.30023L34.1998 7.90023L30.4998 15.1002C29.4331 16.9669 28.4998 18.6669 27.6998 20.2002C26.9664 21.7336 26.5998 22.6336 26.5998 22.9002C26.5998 22.9002 26.4331 23.3002 26.0998 24.1002C25.8331 24.9002 25.4998 25.9336 25.0998 27.2002C24.6998 28.4002 24.2998 29.6002 23.8998 30.8002C23.1664 32.8669 22.4664 34.6002 21.7998 36.0002C21.1331 37.3336 20.7998 38.1336 20.7998 38.4002C20.7998 38.2669 21.4664 38.1669 22.7998 38.1002C24.1998 38.0336 25.9331 38.0002 27.9998 38.0002C30.0664 38.0002 32.1664 38.0002 34.2998 38.0002C36.4998 37.9336 38.4664 37.9002 40.1998 37.9002C41.9331 37.8336 43.1331 37.7336 43.7998 37.6002L48.9998 37.1002L51.7998 28.2002C52.3331 26.3336 53.0331 24.0669 53.8998 21.4002C54.7664 18.7336 55.5331 16.4669 56.1998 14.6002C57.2664 11.5336 58.3998 9.40023 59.5998 8.20023C60.7998 6.93356 61.7998 6.30023 62.5998 6.30023C62.7998 6.30023 63.1664 6.50023 63.6998 6.90023C64.2998 7.23356 64.8998 7.63356 65.4998 8.10023C66.0998 8.5669 66.4664 9.00023 66.5998 9.40023C67.3998 10.1336 67.7664 10.9669 67.6998 11.9002C67.6998 12.8336 67.1664 14.0669 66.0998 15.6002C65.0331 17.4002 64.1331 19.3669 63.3998 21.5002C62.7331 23.5669 62.1331 25.2669 61.5998 26.6002C61.5998 27.4002 61.4998 28.0669 61.2998 28.6002C61.0998 29.0669 60.8664 29.4336 60.5998 29.7002C60.4664 29.8336 60.1998 30.3336 59.7998 31.2002C59.3998 32.0669 59.0331 32.9336 58.6998 33.8002C58.3664 34.6669 58.1998 35.2002 58.1998 35.4002C58.1998 35.8669 58.0998 36.4336 57.8998 37.1002C57.6998 37.7669 57.4664 38.2336 57.1998 38.5002C57.0664 38.9002 56.7664 39.9002 56.2998 41.5002C55.8331 43.1002 55.2998 45.0002 54.6998 47.2002C54.0998 49.3336 53.4664 51.4336 52.7998 53.5002C52.1331 55.5002 51.5331 57.1669 50.9998 58.5002C50.9998 58.9669 50.8331 59.5669 50.4998 60.3002C50.1664 60.9669 49.9998 61.5669 49.9998 62.1002C49.7331 62.9002 49.3998 63.9002 48.9998 65.1002C48.5998 66.3002 48.3998 67.0669 48.3998 67.4002C48.0664 68.9336 47.6998 70.7002 47.2998 72.7002C46.9664 74.7002 46.6664 76.4669 46.3998 78.0002C46.1998 79.5336 46.0998 80.4002 46.0998 80.6002C44.3664 80.8002 43.0664 80.5669 42.1998 79.9002C41.3331 79.2336 40.5331 78.7669 39.7998 78.5002C38.5331 77.7669 37.7664 76.8336 37.4998 75.7002C37.2998 74.6336 37.5664 73.3336 38.2998 71.8002C38.6331 71.2669 39.0331 69.9669 39.4998 67.9002C40.0331 65.7669 40.5664 63.6669 41.0998 61.6002C41.4998 60.6002 41.9331 59.3336 42.3998 57.8002C42.8664 56.2669 43.2998 54.7669 43.6998 53.3002C44.1664 51.7669 44.5664 50.4669 44.8998 49.4002C45.2331 48.3336 45.4664 47.7336 45.5998 47.6002C45.5998 47.3336 45.5998 47.1002 45.5998 46.9002C45.5998 46.7002 45.5998 46.6002 45.5998 46.6002C45.4664 46.4669 44.7998 46.3669 43.5998 46.3002C42.3998 46.1669 40.8664 46.1336 38.9998 46.2002C37.1998 46.2002 35.2331 46.2669 33.0998 46.4002C30.9664 46.4669 28.9331 46.6336 26.9998 46.9002C26.2664 46.9002 25.1998 46.9002 23.7998 46.9002C22.4664 46.9002 21.5331 46.9002 20.9998 46.9002C20.2664 46.9002 19.6331 46.9002 19.0998 46.9002C18.6331 46.9002 18.3998 46.9002 18.3998 46.9002C18.2664 47.1002 17.9998 47.7669 17.5998 48.9002C17.2664 50.0336 16.8331 51.4002 16.2998 53.0002C15.8331 54.6002 15.3331 56.2336 14.7998 57.9002C14.3331 59.5669 13.8998 61.1002 13.4998 62.5002C13.1664 63.8336 12.9331 64.8002 12.7998 65.4002C12.5331 66.6002 12.1664 68.1002 11.6998 69.9002C11.2998 71.7002 10.8331 73.5336 10.2998 75.4002C9.83309 77.3336 9.39975 79.0002 8.99975 80.4002C8.66642 81.8002 8.43309 82.7002 8.29975 83.1002Z"
        fill="#F9C838" />
    <path class="helden-e1"
        d="M74.3216 77.9002C72.255 77.7669 70.1883 77.0002 68.1216 75.6002C66.055 74.2669 64.155 73.0002 62.4216 71.8002C61.2883 70.6669 60.4216 69.4669 59.8216 68.2002C59.2216 66.8669 58.7216 65.1336 58.3216 63.0002C58.055 61.7336 58.055 60.0669 58.3216 58.0002C58.5883 55.9336 59.0216 53.8669 59.6216 51.8002C60.2216 49.6669 60.7883 48.0002 61.3216 46.8002C62.1216 44.9336 63.1216 42.9336 64.3216 40.8002C65.5883 38.6002 66.8216 36.5336 68.0216 34.6002C69.2883 32.6002 70.2883 31.0002 71.0216 29.8002C71.4883 29.3336 71.6883 29.1002 71.6216 29.1002C71.6216 29.0336 71.6216 29.0002 71.6216 29.0002C71.6216 28.6669 71.955 27.8336 72.6216 26.5002C73.355 25.1002 73.9883 23.8669 74.5216 22.8002C75.5216 21.7336 76.0883 20.8669 76.2216 20.2002C76.355 19.5336 76.255 19.0002 75.9216 18.6002C75.7883 18.3336 76.055 17.7669 76.7216 16.9002C77.455 16.0336 78.455 15.0669 79.7216 14.0002C80.9883 12.8669 82.3883 11.8669 83.9216 11.0002C85.5216 9.73356 87.055 9.06689 88.5216 9.00023C90.055 8.8669 90.955 9.1669 91.2216 9.90023C91.2216 10.1002 91.5883 10.1669 92.3216 10.1002C93.1216 9.96689 94.0216 9.80023 95.0216 9.60023C96.0883 9.33356 97.0216 9.13356 97.8216 9.00023C98.155 8.60023 98.9216 8.30023 100.122 8.10023C101.388 7.83356 102.855 7.60023 104.522 7.40023C105.388 7.4669 106.355 7.50023 107.422 7.50023C108.488 7.43356 109.422 7.3669 110.222 7.30023C111.088 7.23356 111.522 7.20023 111.522 7.20023C111.988 7.0669 112.655 7.3669 113.522 8.10023C114.455 8.76689 115.188 9.70023 115.722 10.9002C116.188 12.1002 115.788 13.1336 114.522 14.0002C113.255 14.8669 111.255 15.4669 108.522 15.8002C106.522 16.0669 104.955 16.3002 103.822 16.5002C102.755 16.6336 101.588 16.8336 100.322 17.1002C99.1216 17.3002 97.355 17.6669 95.0216 18.2002C93.355 18.5336 91.955 18.8002 90.8216 19.0002C89.6883 19.2002 88.6883 19.6002 87.8216 20.2002C87.0216 20.8002 86.1216 21.8669 85.1216 23.4002C84.655 23.7336 84.055 24.6002 83.3216 26.0002C82.5883 27.4002 81.855 28.8002 81.1216 30.2002C79.255 32.8002 77.855 34.7336 76.9216 36.0002C76.055 37.2002 75.755 37.9669 76.0216 38.3002C76.0216 38.3002 76.4883 38.4002 77.4216 38.6002C78.355 38.8002 78.955 38.9002 79.2216 38.9002C79.8883 38.5669 80.6883 38.3336 81.6216 38.2002C82.6216 38.0669 83.4216 37.9336 84.0216 37.8002C88.155 36.7336 91.1883 35.9669 93.1216 35.5002C95.1216 34.9669 96.5216 34.6002 97.3216 34.4002C98.1883 34.2002 98.955 34.0669 99.6216 34.0002C100.555 33.2669 101.488 33.3336 102.422 34.2002C103.422 35.0002 104.122 35.9669 104.522 37.1002C104.988 38.4336 104.988 39.4669 104.522 40.2002C104.055 40.9336 103.022 41.5336 101.422 42.0002C99.8883 42.4669 97.6883 43.0336 94.8216 43.7002C91.955 44.3002 88.355 45.2002 84.0216 46.4002C80.355 47.4669 77.3883 48.1002 75.1216 48.3002C72.855 48.5002 71.7883 47.9336 71.9216 46.6002C71.455 46.3336 70.9216 46.6002 70.3216 47.4002C69.7883 48.1336 69.2883 49.1669 68.8216 50.5002C68.355 51.8336 67.9216 53.2669 67.5216 54.8002C67.1883 56.3336 66.9883 57.7669 66.9216 59.1002C66.855 60.4336 66.955 61.4669 67.2216 62.2002C67.755 63.7336 68.5883 65.0669 69.7216 66.2002C70.9216 67.2669 72.655 68.1336 74.9216 68.8002C76.255 68.8669 77.555 68.9669 78.8216 69.1002C80.0883 69.2336 81.5216 68.9669 83.1216 68.3002C87.055 67.6336 89.7883 66.9336 91.3216 66.2002C92.855 65.4669 93.7883 64.9669 94.1216 64.7002C94.655 64.4336 94.9883 64.1669 95.1216 63.9002C95.3216 63.6336 95.5883 63.5002 95.9216 63.5002C95.7216 63.8336 95.7883 63.8336 96.1216 63.5002C96.455 63.1669 96.9883 62.7002 97.7216 62.1002C99.1216 60.9002 100.522 60.1669 101.922 59.9002C103.322 59.6336 104.488 59.6336 105.422 59.9002C106.355 60.1002 106.855 60.3669 106.922 60.7002C107.322 61.3669 107.122 62.4336 106.322 63.9002C105.522 65.3002 104.288 66.8002 102.622 68.4002C101.022 70.0002 99.1216 71.4336 96.9216 72.7002C93.3883 74.5669 89.555 75.8669 85.4216 76.6002C81.2883 77.4002 77.5883 77.8336 74.3216 77.9002Z"
        fill="#F9C838" />
    <path class="helden-l"
        d="M129.74 78.9002C128.14 79.1002 126.906 79.2002 126.04 79.2002C125.24 79.2002 124.473 79.1002 123.74 78.9002C123.073 78.7002 122.173 78.4336 121.04 78.1002C120.106 77.5002 119.04 76.6669 117.84 75.6002C116.706 74.5336 115.973 73.8669 115.64 73.6002C115.64 73.2669 115.54 73.0002 115.34 72.8002C115.206 72.6002 115.14 72.5002 115.14 72.5002C114.873 72.5002 114.64 71.9336 114.44 70.8002C114.306 69.6002 114.24 68.2002 114.24 66.6002C114.306 65.0002 114.406 63.5002 114.54 62.1002C114.74 60.7002 114.973 59.7669 115.24 59.3002C115.24 58.9669 115.306 58.5669 115.44 58.1002C115.64 57.5669 115.74 57.1336 115.74 56.8002C115.74 55.6669 115.906 55.1002 116.24 55.1002C116.24 55.1002 116.306 55.1002 116.44 55.1002C116.64 55.0336 116.74 54.9002 116.74 54.7002C116.74 54.3002 116.873 53.7669 117.14 53.1002C117.406 52.3669 117.606 51.7002 117.74 51.1002C118.073 50.5002 118.473 49.4669 118.94 48.0002C119.473 46.5336 119.973 45.1669 120.44 43.9002C120.773 42.4336 121.24 40.9669 121.84 39.5002C122.44 38.0336 122.873 36.8669 123.14 36.0002C124.073 34.4002 124.54 33.2002 124.54 32.4002C124.673 31.9336 125.106 30.9669 125.84 29.5002C126.64 27.9669 127.573 26.1669 128.64 24.1002C129.706 22.0336 130.806 19.9336 131.94 17.8002C133.073 15.6669 134.073 13.8002 134.94 12.2002C135.806 10.5336 136.44 9.40023 136.84 8.80023C137.973 7.0669 139.073 5.86689 140.14 5.20023C141.206 4.53356 142.04 4.20023 142.64 4.20023C142.973 4.33356 143.44 4.70023 144.04 5.30023C144.706 5.90023 145.306 6.56689 145.84 7.30023C146.44 7.9669 146.773 8.50023 146.84 8.90023C146.84 9.03356 146.606 9.60023 146.14 10.6002C145.673 11.6002 145.073 12.7002 144.34 13.9002C143.606 15.0336 142.873 16.0002 142.14 16.8002C141.94 17.0669 141.806 17.3002 141.74 17.5002C141.74 17.7002 141.74 17.8002 141.74 17.8002C141.74 17.8002 141.506 18.2002 141.04 19.0002C140.64 19.7336 140.14 20.6669 139.54 21.8002C138.94 22.8669 138.406 23.9002 137.94 24.9002C137.473 25.9002 137.206 26.6336 137.14 27.1002C136.74 27.5669 136.173 28.5336 135.44 30.0002C134.773 31.4002 134.106 32.9336 133.44 34.6002C132.773 36.2002 132.173 37.6002 131.64 38.8002C131.106 40.0002 130.773 40.6669 130.64 40.8002C130.64 41.1336 130.606 41.4669 130.54 41.8002C130.54 42.0669 130.406 42.3669 130.14 42.7002C129.94 43.1669 129.573 44.2336 129.04 45.9002C128.573 47.5002 127.906 49.1669 127.04 50.9002C126.573 52.9002 126.006 54.6669 125.34 56.2002C124.673 57.7336 124.173 58.6669 123.84 59.0002C123.573 59.6669 123.44 60.0669 123.44 60.2002C123.44 60.2669 123.573 60.2669 123.84 60.2002C124.173 59.8669 124.34 59.8336 124.34 60.1002C124.34 60.3002 124.173 60.6669 123.84 61.2002C123.573 61.8669 123.406 62.6002 123.34 63.4002C123.34 64.1336 123.34 64.9669 123.34 65.9002C123.406 67.2336 123.74 68.2336 124.34 68.9002C125.006 69.5669 126.04 69.9002 127.44 69.9002C129.706 69.8336 131.673 69.6669 133.34 69.4002C135.073 69.1336 136.54 68.8669 137.74 68.6002C139.94 67.8669 141.84 67.6669 143.44 68.0002C145.106 68.2669 146.273 68.8336 146.94 69.7002C147.34 70.3002 147.573 71.0336 147.64 71.9002C147.706 72.7002 147.74 73.2669 147.74 73.6002C147.54 73.8669 146.706 74.2669 145.24 74.8002C143.84 75.4002 142.14 76.0002 140.14 76.6002C138.14 77.2002 136.173 77.7002 134.24 78.1002C132.373 78.5669 130.873 78.8336 129.74 78.9002Z"
        fill="#F9C838" />
    <path class="helden-d"
        d="M155.941 77.1002C155.208 76.4336 154.508 75.9002 153.841 75.5002C153.241 75.1002 152.808 74.5669 152.541 73.9002C152.341 73.2336 152.408 72.2336 152.741 70.9002C152.874 69.9669 153.108 68.7336 153.441 67.2002C153.841 65.6002 154.241 63.9002 154.641 62.1002C155.108 60.3002 155.574 58.6336 156.041 57.1002C156.508 55.5002 156.874 54.2669 157.141 53.4002C157.208 52.8669 157.374 52.1336 157.641 51.2002C157.974 50.2002 158.341 49.3669 158.741 48.7002L159.841 45.3002C160.041 44.6336 160.374 43.6336 160.841 42.3002C161.374 40.9669 161.874 39.7336 162.341 38.6002C162.808 37.4002 163.041 36.8002 163.041 36.8002C163.708 35.4669 164.508 33.7002 165.441 31.5002C166.441 29.3002 167.474 27.0002 168.541 24.6002C169.608 22.2002 170.574 20.0336 171.441 18.1002C172.374 16.1669 173.041 14.8336 173.441 14.1002C173.574 13.5002 173.474 13.1336 173.141 13.0002C172.874 12.8669 171.774 12.7336 169.841 12.6002C168.774 12.6669 167.341 13.0336 165.541 13.7002C163.808 14.3002 162.408 14.7669 161.341 15.1002C160.008 15.5002 159.108 15.3336 158.641 14.6002C158.241 13.8669 158.208 12.9002 158.541 11.7002C158.941 10.5002 159.641 9.3669 160.641 8.30023C161.641 7.23356 162.908 6.56689 164.441 6.30023C165.374 6.03356 166.708 5.80023 168.441 5.60023C170.174 5.40023 171.874 5.23356 173.541 5.10023C175.208 4.90023 176.441 4.80023 177.241 4.80023C181.908 4.6669 186.108 5.03356 189.841 5.90023C193.574 6.76689 197.374 8.40023 201.241 10.8002C202.241 11.4669 203.274 12.4336 204.341 13.7002C205.474 14.9002 206.508 16.1002 207.441 17.3002C208.374 18.5002 209.008 19.4002 209.341 20.0002C209.474 20.2669 209.775 20.8336 210.241 21.7002C210.774 22.5669 211.208 23.5669 211.541 24.7002C212.274 26.3002 212.741 28.3002 212.941 30.7002C213.208 33.1002 213.241 35.5336 213.041 38.0002C212.908 40.4002 212.541 42.5669 211.941 44.5002C210.941 47.5002 209.408 50.7002 207.341 54.1002C205.341 57.4336 203.074 60.5002 200.541 63.3002C198.008 66.0336 195.508 68.0669 193.041 69.4002C192.108 69.8669 191.208 70.3002 190.341 70.7002C189.474 71.1002 188.674 71.4002 187.941 71.6002C187.741 71.8669 186.941 72.3336 185.541 73.0002C184.141 73.6669 182.508 74.4002 180.641 75.2002C178.774 76.0002 177.008 76.7336 175.341 77.4002C173.741 78.1336 172.574 78.6669 171.841 79.0002C171.108 78.9336 170.474 79.0002 169.941 79.2002C169.474 79.4669 169.141 79.7002 168.941 79.9002C168.008 80.1669 167.008 80.3669 165.941 80.5002C164.941 80.6336 163.674 80.6669 162.141 80.6002L157.841 80.8002L155.941 77.1002ZM166.141 71.0002C167.074 71.0669 168.241 70.7669 169.641 70.1002C171.041 69.4336 172.308 68.8669 173.441 68.4002C174.174 68.1336 174.741 68.0002 175.141 68.0002C175.608 68.0002 175.841 68.0002 175.841 68.0002C176.108 68.0002 176.674 67.8336 177.541 67.5002C178.474 67.1002 179.541 66.6336 180.741 66.1002C181.941 65.5002 183.141 64.9336 184.341 64.4002C185.608 63.8002 186.675 63.3002 187.541 62.9002C188.275 62.1002 189.208 61.1336 190.341 60.0002C191.541 58.8669 192.408 57.9669 192.941 57.3002C193.808 56.8336 194.508 56.1669 195.041 55.3002C195.641 54.4336 196.141 53.9336 196.541 53.8002C196.875 53.8002 197.341 53.1669 197.941 51.9002C198.608 50.6336 199.374 49.3669 200.241 48.1002C201.241 46.3669 201.974 45.0002 202.441 44.0002C202.974 42.9336 203.308 41.9669 203.441 41.1002C203.641 40.1669 203.774 39.0669 203.841 37.8002C203.908 35.0669 203.875 32.9002 203.741 31.3002C203.608 29.7002 203.341 28.3336 202.941 27.2002C202.541 26.0002 201.941 24.8002 201.141 23.6002C199.741 21.7336 198.474 20.3336 197.341 19.4002C196.274 18.4669 195.274 17.7669 194.341 17.3002C193.474 17.1669 192.608 16.9336 191.741 16.6002C190.874 16.2002 190.374 15.9669 190.241 15.9002C189.974 15.4336 189.308 15.0669 188.241 14.8002C187.174 14.4669 186.041 14.2336 184.841 14.1002C183.708 13.9002 182.808 13.8002 182.141 13.8002C181.941 14.0669 181.808 14.3002 181.741 14.5002C181.741 14.6336 181.674 15.1669 181.541 16.1002C181.541 16.4336 181.308 17.2669 180.841 18.6002C180.374 19.9336 179.808 21.3002 179.141 22.7002C178.474 24.1002 177.841 25.0336 177.241 25.5002C177.108 25.8336 176.741 26.6669 176.141 28.0002C175.608 29.3336 174.908 31.0336 174.041 33.1002C173.241 35.1669 172.374 37.4336 171.441 39.9002C170.508 42.3002 169.641 44.7669 168.841 47.3002C168.441 48.1669 167.941 48.9336 167.341 49.6002C166.808 50.2002 166.541 50.5002 166.541 50.5002C166.474 50.9669 166.408 51.4336 166.341 51.9002C166.274 52.3669 166.108 52.8336 165.841 53.3002C165.108 56.1669 164.508 58.6336 164.041 60.7002C163.574 62.7002 163.041 64.9336 162.441 67.4002L161.241 70.8002L166.141 71.0002Z"
        fill="#F9C838" />
    <path class="helden-e2"
        d="M233.505 79.0002C230.839 79.0002 228.439 78.8336 226.305 78.5002C224.239 78.2336 222.339 77.4336 220.605 76.1002C218.539 74.5669 217.072 72.3669 216.205 69.5002C215.405 66.5669 215.639 62.7336 216.905 58.0002C217.239 56.3336 217.605 54.8669 218.005 53.6002C218.472 52.3336 218.872 51.7002 219.205 51.7002C219.272 51.3669 219.372 50.9002 219.505 50.3002C219.639 49.6336 219.772 48.8669 219.905 48.0002C220.239 46.8002 220.472 45.9336 220.605 45.4002C220.739 44.8002 221.005 44.3002 221.405 43.9002C221.605 43.7669 221.839 43.3336 222.105 42.6002C222.372 41.8002 222.539 41.3336 222.605 41.2002C222.605 41.2002 222.639 40.9669 222.705 40.5002C222.772 39.9669 222.939 39.3669 223.205 38.7002C224.205 37.0336 224.705 35.9336 224.705 35.4002C224.839 35.1336 225.105 34.7336 225.505 34.2002C225.972 33.6669 226.339 32.9669 226.605 32.1002C228.605 28.5669 230.239 25.6669 231.505 23.4002C232.772 21.0669 233.539 19.2669 233.805 18.0002C234.139 17.2669 234.439 16.4002 234.705 15.4002C235.039 14.3336 235.439 13.5336 235.905 13.0002C235.772 12.6669 236.139 12.3002 237.005 11.9002C237.939 11.5002 239.139 11.0669 240.605 10.6002C242.072 10.1336 243.639 9.73356 245.305 9.40023C246.972 9.0669 248.505 8.8669 249.905 8.80023C250.305 8.53356 251.172 8.33356 252.505 8.20023C253.905 8.06689 255.505 8.00023 257.305 8.00023C259.105 8.00023 260.772 8.06689 262.305 8.20023C263.772 8.20023 264.939 8.40023 265.805 8.80023C266.672 9.20023 267.539 9.60023 268.405 10.0002C268.739 10.3336 269.205 10.8002 269.805 11.4002C270.405 12.0002 270.772 12.6336 270.905 13.3002C271.105 13.9669 270.672 14.5669 269.605 15.1002C269.405 15.3002 268.305 15.4669 266.305 15.6002C264.305 15.7336 262.205 15.8002 260.005 15.8002C257.539 15.8002 255.405 16.0002 253.605 16.4002C251.805 16.8002 250.539 17.0002 249.805 17.0002C248.872 17.2669 247.772 17.4336 246.505 17.5002C245.239 17.5669 244.605 17.6002 244.605 17.6002C244.472 17.6002 244.139 18.0002 243.605 18.8002C243.072 19.5336 242.472 20.4336 241.805 21.5002C241.205 22.5002 240.639 23.4336 240.105 24.3002C239.639 25.1669 239.405 25.7002 239.405 25.9002C239.405 26.5669 239.139 27.3002 238.605 28.1002C238.072 28.9002 237.439 29.8336 236.705 30.9002C236.039 31.7669 235.605 32.7002 235.405 33.7002C235.205 34.6336 235.405 35.2336 236.005 35.5002C237.072 35.3002 238.539 35.1002 240.405 34.9002C242.339 34.7002 244.239 34.5336 246.105 34.4002C247.972 34.2002 249.405 34.1002 250.405 34.1002C251.539 33.7669 252.472 33.7002 253.205 33.9002C253.939 34.1002 254.472 34.3002 254.805 34.5002C255.605 34.6336 256.072 35.0336 256.205 35.7002C256.405 36.3669 256.405 37.0336 256.205 37.7002C256.005 38.3669 255.672 38.8002 255.205 39.0002C254.805 39.4002 253.805 39.8669 252.205 40.4002C250.605 40.9336 248.705 41.4669 246.505 42.0002C244.372 42.5336 242.205 43.0336 240.005 43.5002C237.872 43.9002 236.005 44.2336 234.405 44.5002C232.872 44.7669 231.972 44.8669 231.705 44.8002C231.305 43.8669 230.839 43.9002 230.305 44.9002C229.839 45.8336 229.272 47.7669 228.605 50.7002C227.872 52.3669 227.305 53.6336 226.905 54.5002C226.572 55.3002 226.305 56.2002 226.105 57.2002C225.905 58.1336 225.605 59.6336 225.205 61.7002C224.739 63.5002 224.772 65.1336 225.305 66.6002C225.905 68.0002 227.272 69.2002 229.405 70.2002C230.739 70.4669 232.272 70.5669 234.005 70.5002C235.739 70.4336 238.039 70.0336 240.905 69.3002C242.105 68.5669 243.305 67.9002 244.505 67.3002C245.705 66.6336 246.539 66.1669 247.005 65.9002C247.339 65.9002 247.839 65.7669 248.505 65.5002C249.239 65.1669 249.739 65.0002 250.005 65.0002C250.539 64.2669 251.205 63.9002 252.005 63.9002C252.139 63.9002 252.505 64.2002 253.105 64.8002C253.772 65.4002 254.405 66.1669 255.005 67.1002C255.605 68.0336 255.905 69.0002 255.905 70.0002C255.905 70.6669 254.772 71.5336 252.505 72.6002C250.305 73.6669 247.539 74.8669 244.205 76.2002C242.539 76.9336 241.172 77.5002 240.105 77.9002C239.105 78.3002 238.139 78.5669 237.205 78.7002C236.272 78.9002 235.039 79.0002 233.505 79.0002Z"
        fill="#F9C838" />
    <path class="helden-n"
        d="M267.769 82.5002C266.436 81.7669 265.536 80.9002 265.069 79.9002C264.603 78.9002 264.403 77.8002 264.469 76.6002C264.603 75.4002 264.836 74.1669 265.169 72.9002C265.703 70.7669 266.269 69.0002 266.869 67.6002C267.536 66.1336 268.169 64.6336 268.769 63.1002C269.436 61.5002 270.003 59.4669 270.469 57.0002C271.536 54.5336 272.469 52.2002 273.269 50.0002C274.136 47.8002 274.803 46.0002 275.269 44.6002C275.736 43.2002 275.969 42.5002 275.969 42.5002C276.036 42.2336 276.303 41.5336 276.769 40.4002C277.303 39.2669 277.936 37.9002 278.669 36.3002C279.469 34.6336 280.236 32.9669 280.969 31.3002C282.103 28.1002 283.169 25.4002 284.169 23.2002C285.169 20.9336 286.169 18.9002 287.169 17.1002C288.236 15.3002 289.369 13.5002 290.569 11.7002C291.369 10.3002 292.503 9.46689 293.969 9.20023C295.436 8.93356 296.836 9.10023 298.169 9.70023C299.503 10.2336 300.369 11.1669 300.769 12.5002C301.103 13.1669 301.369 13.9336 301.569 14.8002C301.836 15.6669 302.069 16.9669 302.269 18.7002C302.536 20.3669 302.703 22.8002 302.769 26.0002C302.903 29.8002 302.969 33.3002 302.969 36.5002C303.036 39.6336 303.169 42.5336 303.369 45.2002C303.636 47.8669 304.069 50.3002 304.669 52.5002C304.869 53.7002 305.069 55.1669 305.269 56.9002C305.469 58.5669 305.669 60.2336 305.869 61.9002C306.136 63.5669 306.403 64.9669 306.669 66.1002C306.936 67.1669 307.203 67.7002 307.469 67.7002C307.803 67.7002 308.169 67.4336 308.569 66.9002C309.036 66.3002 309.636 65.0669 310.369 63.2002C311.103 61.3336 312.036 58.4669 313.169 54.6002C314.303 50.7336 315.669 45.5336 317.269 39.0002C317.603 37.8669 318.036 36.0336 318.569 33.5002C319.169 30.9669 319.603 28.4002 319.869 25.8002C320.336 24.1336 320.803 22.3002 321.269 20.3002C321.736 18.3002 322.136 16.5336 322.469 15.0002C322.869 13.4669 323.069 12.6002 323.069 12.4002C323.069 11.9336 323.069 11.5336 323.069 11.2002C323.136 10.8669 323.136 10.5336 323.069 10.2002C323.403 10.2002 323.703 9.7669 323.969 8.90023C324.236 7.9669 324.369 7.1669 324.369 6.50023C324.369 5.3669 324.503 4.4669 324.769 3.80023C325.103 3.06689 325.436 2.53356 325.769 2.20023C326.503 0.866894 327.436 0.200228 328.569 0.200228C329.769 0.133562 330.869 0.466895 331.869 1.20023C332.869 1.86689 333.469 2.70023 333.669 3.70023C333.803 4.43356 333.603 6.10023 333.069 8.70023C332.603 11.2336 331.869 14.6669 330.869 19.0002C330.869 19.7336 330.669 20.9336 330.269 22.6002C329.869 24.2669 329.436 26.0336 328.969 27.9002C328.569 29.7669 328.269 31.3669 328.069 32.7002C327.803 34.4336 327.503 36.0669 327.169 37.6002C326.836 39.0669 326.503 39.7669 326.169 39.7002C324.436 47.2336 322.603 53.6669 320.669 59.0002C318.803 64.2669 317.136 68.5669 315.669 71.9002C314.069 75.5669 312.003 77.9002 309.469 78.9002C307.003 79.9669 304.703 79.1336 302.569 76.4002C301.303 74.6669 300.236 72.9669 299.369 71.3002C298.503 69.6336 297.803 67.6669 297.269 65.4002C296.736 63.1336 296.269 60.2669 295.869 56.8002C295.469 54.0002 295.103 51.2669 294.769 48.6002C294.503 45.8669 294.303 43.1002 294.169 40.3002C294.036 37.4336 294.003 34.4002 294.069 31.2002C294.136 27.4002 293.969 25.1669 293.569 24.5002C293.236 23.8336 292.736 24.2002 292.069 25.6002C291.403 27.0002 290.636 28.9002 289.769 31.3002C289.303 32.6336 288.736 34.1669 288.069 35.9002C287.469 37.5669 286.836 39.2336 286.169 40.9002C285.503 42.5669 284.936 44.0002 284.469 45.2002C284.003 46.4002 283.703 47.1669 283.569 47.5002C283.169 48.3002 282.703 49.3669 282.169 50.7002C281.636 51.9669 281.203 53.3336 280.869 54.8002C278.469 61.0669 276.669 66.4669 275.469 71.0002C274.336 75.4669 273.503 78.4336 272.969 79.9002C272.303 81.7669 271.669 82.9002 271.069 83.3002C270.536 83.7002 269.436 83.4336 267.769 82.5002Z"
        fill="#F9C838" />
</svg>