<svg xmlns="http://www.w3.org/2000/svg" viewBox="0 0 121 24" fill="none">
  <path d="M11.4072 0.104004C13.3402 0.104004 14.2914 0.991643 14.8612 2.35366L22.7827 21.62H18.6L16.7942 17.0253H5.9567L4.15086 21.62H0L7.92271 2.38545C8.49246 0.991641 9.44245 0.104004 11.4072 0.104004ZM15.6217 14.047L11.851 4.41381C11.6921 4.06536 11.5026 4.00178 11.4072 4.00178C11.2801 4.00178 11.0906 4.06536 10.9316 4.41381L7.12921 14.047H15.6217Z" fill="black"/>
  <path d="M44.3646 7.23322C44.3646 12.0822 41.7958 14.459 36.5935 14.459H28.7893V21.62H25.064V0.104004H36.5935C41.7958 0.104004 44.3646 2.48082 44.3646 7.23322ZM36.4003 11.4721C39.0656 11.4721 40.4142 10.0587 40.4142 7.23322C40.4142 4.50306 39.0656 3.1227 36.4003 3.1227H28.7893V11.4721H36.4003Z" fill="black"/>
  <path id="star" d="M39.5869 19.1927C43.2585 18.623 43.7207 18.1596 44.2904 14.4893C44.8602 18.1608 45.3235 18.623 48.9939 19.1927C45.3223 19.7625 44.8602 20.2259 44.2904 23.8962C43.7207 20.2247 43.2585 19.7625 39.5869 19.1927Z" fill="#0F645B"/>
  <path d="M53.7449 4.15186H59.638V5.49554H55.2292V8.30883H59.358V9.61094H55.2292V12.6064H59.7786V13.9501H53.7449V4.15186Z" fill="black"/>
  <path d="M62.955 13.7459C62.5723 13.5551 62.2507 13.2959 61.9891 12.9695C61.7274 12.643 61.5269 12.2726 61.3875 11.8569C61.2482 11.4412 61.1772 11.001 61.1772 10.534V10.4081C61.1772 9.90433 61.2567 9.42139 61.4157 8.95923C61.5746 8.49707 61.8118 8.08871 62.1297 7.73414C62.4463 7.37958 62.8486 7.09471 63.334 6.88074C63.8194 6.66678 64.3842 6.55919 65.0273 6.55919H65.097C65.4051 6.55919 65.7083 6.58975 66.0067 6.64966C66.305 6.7108 66.6131 6.81105 66.931 6.95043V3.87061H68.3162V13.9488H67.2244C67.178 13.7997 67.1291 13.6065 67.0777 13.3681C67.0264 13.1297 67.0007 12.9267 67.0007 12.7592V12.6051C66.8515 12.8289 66.6852 13.0269 66.5043 13.2006C66.3221 13.373 66.1192 13.5246 65.8954 13.6554C65.6717 13.7862 65.4357 13.8816 65.1887 13.9427C64.9418 14.0038 64.6691 14.0332 64.3696 14.0332H64.3133C63.79 14.0332 63.3376 13.9378 62.955 13.7459ZM64.6483 12.7873C64.9564 12.7873 65.2499 12.7286 65.5298 12.6125C65.8098 12.4963 66.0519 12.3215 66.2573 12.088C66.4627 11.8544 66.6278 11.5769 66.7537 11.2553C66.8796 10.9338 66.942 10.5768 66.942 10.1843V8.33691C66.6987 8.14129 66.4285 7.99457 66.1302 7.89553C65.8318 7.79772 65.5335 7.74882 65.234 7.74882H65.1643C64.7253 7.74882 64.3451 7.8234 64.0235 7.97256C63.702 8.12172 63.4379 8.31734 63.2325 8.56065C63.0271 8.80395 62.873 9.07905 62.7703 9.38593C62.6676 9.69404 62.6163 10.0254 62.6163 10.3799V10.4496C62.6163 10.8323 62.6701 11.1734 62.7777 11.4718C62.8853 11.7701 63.0295 12.0158 63.2117 12.2066C63.3939 12.3985 63.6042 12.5428 63.8414 12.6406C64.0798 12.7384 64.3194 12.7873 64.5627 12.7873H64.6483Z" fill="black"/>
  <path d="M71.1429 13.3678C70.704 12.8971 70.4851 12.2173 70.4851 11.3309V6.67017H71.8704V11.0509C71.8704 11.6206 71.9938 12.0547 72.2408 12.353C72.4878 12.6513 72.8864 12.8005 73.4378 12.8005H73.4794C73.7875 12.8005 74.0748 12.7516 74.3401 12.6538C74.6054 12.556 74.834 12.4141 75.026 12.2271C75.2167 12.04 75.3647 11.8163 75.4674 11.5546C75.5701 11.293 75.6214 10.9946 75.6214 10.6584V6.66895H76.9932V13.9473H75.9161C75.8598 13.8165 75.8134 13.649 75.7755 13.4436C75.7376 13.2382 75.7143 13.056 75.7058 12.8983C75.3891 13.2712 75.0077 13.561 74.5651 13.7664C74.1225 13.9718 73.6383 14.0745 73.1162 14.0745H73.0747C72.2249 14.0745 71.5818 13.8397 71.1429 13.3678Z" fill="black"/>
  <path d="M81.0376 13.7888C80.5803 13.6164 80.1928 13.367 79.8761 13.0405C79.5582 12.7141 79.3112 12.3265 79.134 11.879C78.9567 11.4315 78.8687 10.9315 78.8687 10.3813V10.2419C78.8687 9.69171 78.9567 9.19165 79.134 8.74416C79.3112 8.29667 79.5607 7.91154 79.8822 7.58998C80.2038 7.26843 80.5865 7.01901 81.0303 6.84173C81.4729 6.66445 81.9656 6.5752 82.5072 6.5752H82.5916C83.3007 6.5752 83.9194 6.73169 84.4463 7.04346C84.9733 7.35646 85.3817 7.77338 85.6714 8.29667L84.5796 8.99602C84.384 8.61334 84.1174 8.31256 83.7812 8.09371C83.445 7.87486 83.0391 7.76482 82.5635 7.76482H82.55C82.1955 7.76482 81.88 7.82351 81.6049 7.93966C81.3298 8.05704 81.0939 8.22209 80.8982 8.43605C80.7026 8.65124 80.5571 8.91166 80.4642 9.21976C80.3713 9.52787 80.3248 9.87755 80.3248 10.27V10.3544C80.3248 10.7468 80.3811 11.0941 80.4923 11.3973C80.6048 11.7005 80.7576 11.9597 80.9545 12.1737C81.1501 12.3888 81.3934 12.5539 81.6819 12.6701C81.9717 12.7874 82.2884 12.8449 82.6344 12.8449H82.6478C83.1516 12.8449 83.5673 12.7312 83.8937 12.5026C84.2201 12.2739 84.4769 11.9915 84.664 11.6553L85.7142 12.3693C85.3963 12.8828 84.9794 13.2912 84.461 13.5944C83.9426 13.8976 83.3252 14.0492 82.6063 14.0492H82.5084C81.9852 14.048 81.4949 13.9612 81.0376 13.7888Z" fill="black"/>
  <path d="M88.5827 13.7458C88.2 13.555 87.8736 13.2983 87.6034 12.9755C87.3332 12.6539 87.1277 12.281 86.9871 11.8556C86.8465 11.4313 86.7769 10.9899 86.7769 10.5327V10.3921C86.7769 9.89811 86.8612 9.41761 87.0287 8.95056C87.1962 8.48352 87.4395 8.07393 87.7562 7.71937C88.0729 7.3648 88.4751 7.08237 88.9605 6.87208C89.4459 6.66179 90.0107 6.55664 90.6538 6.55664H90.7382C91.0084 6.55664 91.2823 6.57742 91.5574 6.62022C91.8325 6.66179 92.1015 6.73514 92.3619 6.83662C92.6235 6.93932 92.8839 7.05792 93.1456 7.19363C93.4072 7.32935 93.664 7.48951 93.9159 7.67658V13.9475H92.824C92.7678 13.7983 92.7164 13.6064 92.67 13.3741C92.6235 13.1406 92.6003 12.94 92.6003 12.7725V12.6185C92.4695 12.8337 92.313 13.0268 92.132 13.1992C91.9498 13.3716 91.7493 13.5232 91.5305 13.6541C91.3116 13.7849 91.0732 13.8802 90.8165 13.9414C90.5597 14.0025 90.287 14.0319 89.9973 14.0319H89.9276C89.4129 14.0331 88.9654 13.9377 88.5827 13.7458ZM90.2479 12.7872C90.5646 12.7872 90.8641 12.7285 91.1441 12.6124C91.4241 12.4962 91.6662 12.3214 91.8716 12.0879C92.077 11.8543 92.2396 11.5768 92.3619 11.2552C92.4829 10.9337 92.544 10.5767 92.544 10.1842V8.3368C92.3007 8.1314 92.0305 7.98224 91.7322 7.88932C91.4339 7.7964 91.1343 7.74871 90.836 7.74871H90.7798C90.3408 7.74871 89.9606 7.82329 89.6391 7.97246C89.3175 8.12162 89.0534 8.31479 88.848 8.55321C88.6426 8.79162 88.4861 9.06671 88.3797 9.37849C88.2721 9.69148 88.2183 10.0253 88.2183 10.3798V10.4495C88.2183 10.8322 88.2746 11.1733 88.3858 11.4717C88.4983 11.77 88.6451 12.0157 88.8272 12.2065C89.0094 12.3984 89.2172 12.5427 89.4495 12.6405C89.6831 12.7383 89.9203 12.7872 90.1636 12.7872H90.2479Z" fill="black"/>
  <path d="M97.4775 13.8657C97.2025 13.7727 96.9763 13.6321 96.799 13.4463C96.6217 13.2592 96.4835 13.0269 96.3857 12.7469C96.2879 12.467 96.239 12.1405 96.239 11.7676C96.2488 11.4876 96.2598 11.1795 96.2745 10.8433C96.2879 10.5071 96.3075 10.1672 96.3307 9.82117C96.3539 9.47639 96.3845 9.13527 96.4212 8.79904C96.4579 8.46281 96.5055 8.15104 96.5606 7.86128H95.3147V6.89539C95.4639 6.83915 95.6338 6.79269 95.8258 6.75601C96.0165 6.71933 96.2011 6.69121 96.3784 6.67165V4.99174L97.7636 4.80957V6.67165H100.032V7.86128H97.7918C97.7734 8.12292 97.7514 8.39313 97.7294 8.67311C97.7062 8.9531 97.6878 9.2453 97.6732 9.54852C97.6597 9.85173 97.6499 10.1647 97.645 10.4863C97.6402 10.8078 97.6377 11.1331 97.6377 11.4595C97.6279 11.9449 97.7196 12.2836 97.9104 12.4743C98.1011 12.665 98.3737 12.7616 98.7295 12.7616C98.8322 12.7616 98.9459 12.7592 99.0719 12.7543C99.1978 12.7494 99.3311 12.7408 99.4704 12.7262C99.6111 12.7115 99.7382 12.6956 99.8556 12.6773C99.9717 12.6589 100.068 12.6357 100.143 12.6076V13.7556C100.05 13.8021 99.9302 13.8424 99.7859 13.8742C99.6416 13.9072 99.4876 13.9329 99.3237 13.9512C99.1599 13.9696 99.0034 13.9843 98.8542 13.9928C98.7051 14.0026 98.5608 14.0063 98.4202 14.0063C98.0669 14.005 97.7526 13.9586 97.4775 13.8657Z" fill="black"/>
  <path d="M101.739 5.36234C101.58 5.20828 101.501 5.01511 101.501 4.78158C101.501 4.54806 101.58 4.35244 101.739 4.19349C101.898 4.03455 102.104 3.95508 102.356 3.95508C102.607 3.95508 102.818 4.03455 102.985 4.19349C103.153 4.35244 103.237 4.54806 103.237 4.78158C103.237 5.01511 103.155 5.20828 102.993 5.36234C102.829 5.51639 102.617 5.59342 102.356 5.59342C102.103 5.59342 101.897 5.51639 101.739 5.36234ZM101.683 6.67056H103.055V13.9489H101.683V6.67056Z" fill="black"/>
  <path d="M107.155 13.789C106.698 13.6069 106.303 13.355 105.973 13.0334C105.642 12.7119 105.385 12.3219 105.203 11.8646C105.021 11.4073 104.93 10.9134 104.93 10.3815V10.2422C104.93 9.70053 105.021 9.20414 105.203 8.75176C105.385 8.29939 105.642 7.91181 105.973 7.59025C106.304 7.2687 106.698 7.01683 107.155 6.83466C107.613 6.65249 108.116 6.56201 108.667 6.56201H108.751C109.291 6.56201 109.794 6.65249 110.256 6.83466C110.718 7.01683 111.114 7.2687 111.446 7.59025C111.777 7.91181 112.036 8.29939 112.222 8.75176C112.409 9.20414 112.502 9.70175 112.502 10.2422V10.3815C112.502 10.9134 112.409 11.4086 112.222 11.8646C112.035 12.3219 111.776 12.7119 111.446 13.0334C111.114 13.355 110.718 13.6069 110.256 13.789C109.794 13.9712 109.293 14.0617 108.751 14.0617H108.667C108.116 14.0617 107.613 13.9712 107.155 13.789ZM108.723 12.8574C109.068 12.8574 109.383 12.7963 109.668 12.6752C109.953 12.5542 110.197 12.3818 110.403 12.1568C110.608 11.9331 110.77 11.669 110.886 11.3658C111.002 11.0625 111.06 10.7288 111.06 10.3644V10.2519C111.06 9.87903 111.002 9.54281 110.886 9.24448C110.768 8.94616 110.608 8.68451 110.403 8.46077C110.197 8.23703 109.953 8.06464 109.668 7.94237C109.383 7.82133 109.069 7.7602 108.723 7.7602H108.681C108.345 7.7602 108.034 7.82133 107.751 7.94237C107.466 8.06341 107.224 8.23581 107.023 8.46077C106.823 8.68451 106.666 8.94616 106.555 9.24448C106.443 9.54281 106.388 9.87903 106.388 10.2519V10.3644C106.388 10.7288 106.441 11.0625 106.549 11.3658C106.657 11.669 106.813 11.9331 107.017 12.1568C107.223 12.3806 107.465 12.5542 107.745 12.6752C108.025 12.7963 108.338 12.8574 108.682 12.8574H108.723Z" fill="black"/>
  <path d="M114.365 6.67037H115.457C115.503 6.80975 115.545 6.98336 115.582 7.18876C115.619 7.39417 115.647 7.57634 115.667 7.73406C115.984 7.35137 116.374 7.05794 116.836 6.85254C117.298 6.64713 117.786 6.54443 118.298 6.54443H118.354C119.231 6.54443 119.891 6.78285 120.335 7.25845C120.777 7.73406 121 8.41507 121 9.30149V13.9487H119.615V9.58147C119.615 9.00316 119.484 8.56423 119.222 8.26591C118.961 7.96758 118.541 7.81842 117.963 7.81842H117.907C117.59 7.81842 117.298 7.86733 117.033 7.96514C116.766 8.06295 116.537 8.20355 116.347 8.3845C116.155 8.56668 116.008 8.78798 115.905 9.04962C115.803 9.31127 115.751 9.60959 115.751 9.94581V13.9487H114.366V6.67037H114.365Z" fill="black"/>
</svg>