<svg width="473" height="95" viewBox="0 0 473 95" fill="none" xmlns="http://www.w3.org/2000/svg">
<path d="M45.2464 0C52.9136 0 56.6865 3.52079 58.9464 8.9232L90.3667 85.3426H73.7764L66.6136 67.1179H23.6271L16.4643 85.3426H0L31.4252 9.04928C33.6851 3.52078 37.4532 0 45.2464 0ZM61.9628 55.3044L47.0068 17.0947C46.3764 15.7126 45.6247 15.4604 45.2464 15.4604C44.7421 15.4604 43.9904 15.7126 43.3599 17.0947L28.2778 55.3044H61.9628Z" fill="white"/>
<path d="M175.971 28.2778C175.971 47.5112 165.782 56.9387 145.147 56.9387H114.193V85.3426H99.416V7.62939e-06H145.147C165.782 7.62939e-06 175.971 9.42757 175.971 28.2778ZM144.381 45.0912C154.953 45.0912 160.302 39.4851 160.302 28.2778C160.302 17.4487 154.953 11.9736 144.381 11.9736H114.193V45.0912H144.381Z" fill="white"/>
<path d="M157.019 75.7162C171.582 73.4563 173.415 71.6183 175.675 57.0599C177.935 71.6232 179.773 73.4563 194.331 75.7162C179.768 77.9761 177.935 79.8141 175.675 94.3725C173.415 79.8092 171.582 77.9761 157.019 75.7162Z" fill="white"/>
<path d="M221.698 54.3927C219.864 53.7477 218.313 52.7923 217.032 51.5314C215.757 50.2754 214.772 48.7187 214.089 46.8662C213.405 45.0136 213.061 42.8895 213.061 40.4793V16.052H217.503V39.9264C217.503 41.7014 217.736 43.2775 218.196 44.6451C218.657 46.0126 219.336 47.1717 220.223 48.1174C221.111 49.063 222.202 49.7759 223.497 50.256C224.792 50.7361 226.271 50.9786 227.939 50.9786C229.602 50.9786 231.086 50.7361 232.381 50.256C233.676 49.7759 234.757 49.063 235.63 48.1174C236.498 47.1717 237.168 46.0175 237.628 44.6451C238.089 43.2775 238.322 41.7014 238.322 39.9264V16.052H242.764V40.4793C242.764 42.8847 242.42 45.0136 241.736 46.8662C241.052 48.7187 240.073 50.2705 238.792 51.5314C237.517 52.7923 235.96 53.7428 234.127 54.3927C232.294 55.0377 230.233 55.3626 227.939 55.3626C225.611 55.3626 223.531 55.0377 221.698 54.3927Z" fill="white"/>
<path d="M252.76 26.0471H255.98C256.164 26.566 256.329 27.2109 256.479 27.9917C256.625 28.7676 256.736 29.4708 256.814 30.1013C258.036 28.6949 259.535 27.5941 261.31 26.7987C263.084 26.0034 265.029 25.6057 267.139 25.6057H267.304C270.892 25.6057 273.56 26.532 275.301 28.3797C277.042 30.2322 277.91 32.914 277.91 36.4299V54.9165H273.802V37.1525C273.802 34.7859 273.254 32.9528 272.163 31.658C271.072 30.3632 269.248 29.7133 266.693 29.7133H266.416C265.01 29.7133 263.715 29.917 262.532 30.3244C261.348 30.7317 260.34 31.3234 259.505 32.0993C258.671 32.8752 258.026 33.8112 257.561 34.9024C257.095 35.9935 256.867 37.2447 256.867 38.6511V54.9165H252.76V26.0471Z" fill="white"/>
<path d="M287.458 20.6106C286.939 20.0917 286.682 19.4468 286.682 18.666C286.682 17.89 286.939 17.2305 287.458 16.6971C287.976 16.1588 288.621 15.892 289.402 15.892C290.183 15.892 290.838 16.1588 291.371 16.6971C291.909 17.2354 292.176 17.89 292.176 18.666C292.176 19.4419 291.909 20.0917 291.371 20.6106C290.833 21.1295 290.178 21.3866 289.402 21.3866C288.626 21.3866 287.976 21.1247 287.458 20.6106ZM287.346 26.047H291.454V54.9164H287.346V26.047Z" fill="white"/>
<path d="M297.841 26.0471H302.336L311.497 50.2512H312.05L321.264 26.0471H325.706L314.383 54.9165H309.106L297.841 26.0471Z" fill="white"/>
<path d="M338.45 54.1987C336.767 53.4955 335.313 52.5159 334.09 51.255C332.868 49.999 331.918 48.5005 331.229 46.7595C330.545 45.0185 330.201 43.1126 330.201 41.0419V40.3193C330.201 38.2097 330.55 36.265 331.254 34.4901C331.957 32.7152 332.946 31.1779 334.221 29.883C335.497 28.5882 337.024 27.5698 338.799 26.8278C340.574 26.0858 342.538 25.7173 344.682 25.7173H345.128C346.685 25.7173 348.183 25.9597 349.624 26.4398C351.069 26.92 352.325 27.5795 353.401 28.4088C354.473 29.2429 355.336 30.2225 355.981 31.3525C356.626 32.4824 356.951 33.6754 356.951 34.9314C356.951 36.1535 356.719 37.2253 356.258 38.1516C355.792 39.0778 355.094 39.844 354.148 40.4551C353.203 41.0661 352.01 41.5268 350.569 41.8421C349.124 42.1573 347.403 42.3125 345.405 42.3125H334.58C334.726 43.6461 335.06 44.8585 335.579 45.9496C336.098 47.0408 336.772 47.9671 337.606 48.7236C338.441 49.485 339.41 50.0766 340.521 50.4985C341.632 50.9253 342.834 51.1387 344.129 51.1387H344.682C346.719 51.1387 348.474 50.7701 349.958 50.0281C351.437 49.2861 352.679 48.2144 353.678 46.808L356.951 48.9709C356.248 50.0087 355.453 50.9156 354.565 51.6915C353.678 52.4674 352.713 53.1173 351.68 53.6362C350.642 54.1551 349.522 54.5527 348.319 54.8292C347.116 55.1056 345.831 55.2463 344.459 55.2463H343.959C341.976 55.2511 340.133 54.9019 338.45 54.1987ZM346.307 38.428C348.785 38.428 350.453 38.103 351.302 37.458C352.15 36.813 352.577 35.8383 352.577 34.5435C352.577 33.913 352.373 33.3117 351.966 32.7394C351.559 32.1672 351.011 31.6677 350.327 31.2409C349.643 30.8142 348.838 30.4747 347.912 30.2128C346.985 29.9558 346.006 29.8248 344.968 29.8248H344.745C343.339 29.8248 342.063 30.0285 340.914 30.4359C339.764 30.8432 338.765 31.4155 337.917 32.1575C337.063 32.8995 336.36 33.8063 335.807 34.8781C335.25 35.9499 334.881 37.138 334.697 38.4328H346.307V38.428Z" fill="white"/>
<path d="M365.07 26.047H368.29C368.475 26.566 368.64 27.177 368.79 27.8802C368.935 28.5834 369.047 29.2866 369.125 29.9897C370.235 28.7677 371.574 27.8074 373.15 27.1042C374.721 26.4011 376.472 26.0519 378.397 26.0519H378.843V30.3826C378.659 30.3098 378.475 30.2613 378.29 30.2419C378.106 30.2225 377.902 30.2128 377.679 30.2128C376.346 30.2128 375.153 30.4165 374.1 30.8239C373.048 31.2312 372.156 31.8326 371.433 32.6279C370.71 33.4232 370.158 34.398 369.77 35.5425C369.382 36.6918 369.188 37.9867 369.188 39.427V54.9165H365.08V26.047H365.07Z" fill="white"/>
<path d="M387.999 54.223C385.778 53.4664 383.892 52.3801 382.335 50.9738L384.779 47.8652C385.555 48.4569 386.36 48.9661 387.194 49.3928C388.028 49.8196 388.867 50.1784 389.721 50.4743C390.57 50.7701 391.433 50.9932 392.301 51.1387C393.169 51.289 394.066 51.3617 394.992 51.3617C396.064 51.3617 397.019 51.2599 397.854 51.0562C398.688 50.8525 399.391 50.5761 399.963 50.2221C400.535 49.8729 400.972 49.4268 401.268 48.8885C401.563 48.3502 401.714 47.7488 401.714 47.0844C401.714 46.2358 401.491 45.5374 401.049 45.004C400.603 44.4657 400.012 44.0049 399.274 43.617C398.532 43.229 397.684 42.9041 396.719 42.6471C395.754 42.39 394.755 42.1476 393.722 41.9245C392.5 41.6287 391.268 41.3134 390.031 40.9788C388.79 40.6442 387.689 40.1835 386.729 39.5919C385.764 39.0002 384.978 38.2534 384.367 37.3417C383.756 36.4348 383.45 35.2806 383.45 33.8694C383.45 32.6133 383.703 31.4737 384.202 30.4553C384.702 29.4369 385.395 28.5688 386.283 27.8462C387.17 27.1236 388.242 26.5708 389.503 26.1828C390.759 25.7949 392.17 25.6009 393.722 25.6009C395.647 25.6009 397.597 25.9161 399.58 26.5465C401.559 27.177 403.271 28.0451 404.716 29.1556L402.659 32.5406C401.365 31.6143 399.89 30.9014 398.246 30.4019C396.598 29.9024 394.997 29.6551 393.445 29.6551C392.519 29.6551 391.695 29.7472 390.977 29.9315C390.254 30.1158 389.653 30.3777 389.173 30.7075C388.693 31.0421 388.329 31.4397 388.091 31.9005C387.849 32.366 387.733 32.8704 387.733 33.4281C387.733 33.9858 387.854 34.4659 388.091 34.8732C388.334 35.2806 388.736 35.6686 389.313 36.0371C389.886 36.4057 390.647 36.75 391.588 37.0652C392.534 37.3804 393.707 37.7054 395.114 38.0351C396.408 38.331 397.703 38.6656 398.998 39.0341C400.293 39.4027 401.462 39.8925 402.495 40.5036C403.532 41.1146 404.381 41.9099 405.05 42.8896C405.715 43.8692 406.049 45.1204 406.049 46.6383C406.049 47.9719 405.783 49.1843 405.244 50.2755C404.706 51.3666 403.94 52.2832 402.941 53.0251C401.942 53.7671 400.749 54.3394 399.362 54.7467C397.975 55.1541 396.447 55.3578 394.784 55.3578C392.48 55.3626 390.22 54.9844 387.999 54.223Z" fill="white"/>
<path d="M413.208 20.6106C412.689 20.0917 412.432 19.4468 412.432 18.666C412.432 17.89 412.689 17.2305 413.208 16.6971C413.726 16.1588 414.371 15.892 415.152 15.892C415.933 15.892 416.588 16.1588 417.121 16.6971C417.659 17.2354 417.926 17.89 417.926 18.666C417.926 19.4419 417.659 20.0917 417.121 20.6106C416.583 21.1295 415.928 21.3866 415.152 21.3866C414.376 21.3866 413.722 21.1247 413.208 20.6106ZM413.096 26.047H417.204V54.9164H413.096V26.047Z" fill="white"/>
<path d="M431.97 54.5285C430.932 54.1599 430.084 53.6119 429.415 52.8893C428.75 52.1667 428.251 51.2793 427.916 50.2221C427.581 49.1697 427.416 47.9573 427.416 46.5849C427.416 45.4743 427.446 44.1989 427.499 42.7538C427.552 41.3086 427.64 39.8295 427.751 38.3115C427.863 36.7936 427.994 35.3048 428.139 33.8403C428.285 32.3805 428.435 31.076 428.585 29.9267H423.644V26.9296C424.308 26.7066 425.031 26.5126 425.806 26.3477C426.582 26.1828 427.324 26.081 428.028 26.0422V19.3789L432.135 18.8212V26.0373H441.349V29.9218H432.3C432.227 31.0324 432.14 32.2157 432.053 33.4765C431.961 34.7374 431.878 36.042 431.801 37.3901C431.728 38.7432 431.66 40.1107 431.607 41.4977C431.553 42.8847 431.524 44.228 431.524 45.5228C431.524 47.6324 431.912 49.097 432.688 49.9069C433.464 50.7167 434.633 51.1289 436.185 51.1289C436.592 51.1289 437.062 51.1192 437.601 51.0998C438.139 51.0804 438.682 51.0465 439.24 50.9883C439.793 50.935 440.321 50.8671 440.821 50.7943C441.32 50.7216 441.737 50.6294 442.072 50.5179V54.1842C441.737 54.3345 441.306 54.4606 440.767 54.5721C440.229 54.6837 439.657 54.7758 439.046 54.8486C438.435 54.9213 437.833 54.9795 437.242 55.0134C436.65 55.0522 436.092 55.0716 435.578 55.0716C434.211 55.0862 433.008 54.9019 431.97 54.5285Z" fill="white"/>
<path d="M449.346 65.6048C448.532 65.4739 447.77 65.2071 447.072 64.7998V61.0268C447.775 61.3227 448.425 61.5361 449.016 61.667C449.608 61.7979 450.161 61.861 450.68 61.861C452.237 61.861 453.556 61.3323 454.652 60.28C455.743 59.2276 456.659 57.8455 457.401 56.1433L444.298 26.0518H448.963L459.288 50.1444H459.676L468.39 26.0518H472.833L461.897 56.1967C461.417 57.603 460.849 58.8882 460.204 60.0569C459.555 61.2208 458.817 62.2295 457.983 63.0831C457.149 63.9317 456.199 64.601 455.122 65.0811C454.05 65.5612 452.809 65.8036 451.402 65.8036C450.845 65.7988 450.161 65.7358 449.346 65.6048Z" fill="white"/>
</svg>
