<svg xmlns="http://www.w3.org/2000/svg" width="180" height="36" viewBox="0 0 180 36" fill="none">
  <path d="M17.2246 0C20.1434 0 21.5797 1.34031 22.44 3.39692L34.4012 32.4886H28.0855L25.3587 25.5508H8.99445L6.26769 32.4886H0L11.9631 3.44492C12.8234 1.34031 14.2578 0 17.2246 0ZM23.5883 21.0535L17.8948 6.50769C17.6548 5.98153 17.3686 5.88553 17.2246 5.88553C17.0326 5.88553 16.7464 5.98153 16.5064 6.50769L10.7649 21.0535H23.5883Z" fill="black"/>
  <path d="M66.99 10.7649C66.99 18.0868 63.1113 21.6757 55.2559 21.6757H43.4719V32.4886H37.8467V0H55.2559C63.1113 0 66.99 3.58893 66.99 10.7649ZM54.9642 17.1655C58.9888 17.1655 61.0251 15.0314 61.0251 10.7649C61.0251 6.64246 58.9888 4.55815 54.9642 4.55815H43.4719V17.1655H54.9642Z" fill="black"/>
  <path id="star" d="M59.7744 28.8238C65.3184 27.9635 66.0163 27.2638 66.8766 21.7217C67.7369 27.2657 68.4366 27.9635 73.9787 28.8238C68.4347 29.6841 67.7369 30.3838 66.8766 35.926C66.0163 30.382 65.3184 29.6841 59.7744 28.8238Z" fill="#352CE8"/>
  <path d="M84.3954 20.706C83.6976 20.4605 83.1068 20.0968 82.6194 19.6168C82.1339 19.1386 81.7591 18.546 81.4988 17.8408C81.2385 17.1356 81.1074 16.327 81.1074 15.4094V6.11035H82.7985V15.199C82.7985 15.8747 82.8871 16.4746 83.0625 16.9953C83.2379 17.5159 83.4963 17.9571 83.8342 18.3171C84.172 18.6771 84.5874 18.9485 85.0803 19.1313C85.5733 19.314 86.1363 19.4063 86.7714 19.4063C87.4047 19.4063 87.9696 19.314 88.4625 19.1313C88.9554 18.9485 89.3671 18.6771 89.6994 18.3171C90.0299 17.9571 90.2846 17.5177 90.46 16.9953C90.6354 16.4746 90.724 15.8747 90.724 15.199V6.11035H92.4151V15.4094C92.4151 16.3251 92.284 17.1356 92.0237 17.8408C91.7634 18.546 91.3905 19.1368 90.9031 19.6168C90.4176 20.0968 89.825 20.4587 89.1271 20.706C88.4293 20.9516 87.6447 21.0753 86.7714 21.0753C85.8853 21.0753 85.0933 20.9516 84.3954 20.706Z" fill="black"/>
  <path d="M96.2207 9.91605H97.4466C97.5167 10.1136 97.5795 10.3591 97.6367 10.6564C97.6921 10.9517 97.7345 11.2194 97.7641 11.4594C98.2293 10.924 98.7998 10.505 99.4755 10.2022C100.151 9.89943 100.891 9.74805 101.695 9.74805H101.757C103.123 9.74805 104.139 10.1007 104.802 10.804C105.464 11.5093 105.795 12.5302 105.795 13.8687V20.9062H104.231V14.1437C104.231 13.2428 104.023 12.545 103.607 12.052C103.192 11.5591 102.498 11.3117 101.525 11.3117H101.419C100.884 11.3117 100.391 11.3893 99.9407 11.5444C99.4902 11.6994 99.1062 11.9247 98.7887 12.22C98.4712 12.5154 98.2256 12.8717 98.0484 13.2871C97.8712 13.7025 97.7844 14.1788 97.7844 14.7142V20.9062H96.2207V9.91605Z" fill="black"/>
  <path d="M109.429 7.84611C109.232 7.64857 109.134 7.40303 109.134 7.1058C109.134 6.81042 109.232 6.55934 109.429 6.35627C109.627 6.15134 109.872 6.0498 110.169 6.0498C110.467 6.0498 110.716 6.15134 110.919 6.35627C111.124 6.56119 111.225 6.81042 111.225 7.1058C111.225 7.40119 111.124 7.64857 110.919 7.84611C110.714 8.04365 110.465 8.14149 110.169 8.14149C109.874 8.14149 109.627 8.0418 109.429 7.84611ZM109.387 9.91565H110.95V20.9058H109.387V9.91565Z" fill="black"/>
  <path d="M113.382 9.91504H115.093L118.581 19.1292H118.791L122.299 9.91504H123.99L119.679 20.9052H117.67L113.382 9.91504Z" fill="black"/>
  <path d="M128.841 20.632C128.201 20.3643 127.647 19.9914 127.182 19.5114C126.717 19.0332 126.355 18.4628 126.093 17.8C125.832 17.1372 125.701 16.4117 125.701 15.6234V15.3483C125.701 14.5452 125.834 13.8049 126.102 13.1292C126.369 12.4535 126.746 11.8683 127.232 11.3754C127.717 10.8825 128.299 10.4948 128.974 10.2123C129.65 9.92985 130.398 9.78955 131.214 9.78955H131.384C131.976 9.78955 132.547 9.88186 133.095 10.0646C133.645 10.2474 134.123 10.4985 134.533 10.8142C134.941 11.1317 135.27 11.5046 135.515 11.9348C135.761 12.3649 135.885 12.8191 135.885 13.2972C135.885 13.7625 135.796 14.1705 135.621 14.5231C135.443 14.8757 135.177 15.1674 134.817 15.4C134.457 15.6326 134.003 15.808 133.455 15.928C132.905 16.048 132.249 16.1071 131.489 16.1071H127.368C127.424 16.6148 127.551 17.0763 127.749 17.4917C127.946 17.9071 128.203 18.2597 128.52 18.5477C128.838 18.8375 129.207 19.0628 129.63 19.2234C130.053 19.3858 130.51 19.4671 131.003 19.4671H131.214C131.989 19.4671 132.657 19.3268 133.222 19.0443C133.785 18.7619 134.258 18.3539 134.638 17.8185L135.885 18.6419C135.617 19.0369 135.314 19.3822 134.976 19.6775C134.638 19.9729 134.271 20.2203 133.878 20.4179C133.483 20.6154 133.056 20.7668 132.598 20.872C132.141 20.9772 131.651 21.0308 131.129 21.0308H130.939C130.184 21.0326 129.482 20.8997 128.841 20.632ZM131.832 14.6283C132.776 14.6283 133.411 14.5046 133.734 14.2591C134.057 14.0135 134.219 13.6425 134.219 13.1496C134.219 12.9096 134.142 12.6806 133.987 12.4628C133.832 12.2449 133.623 12.0548 133.363 11.8923C133.102 11.7299 132.796 11.6006 132.443 11.5009C132.091 11.4031 131.718 11.3532 131.323 11.3532H131.238C130.702 11.3532 130.217 11.4308 129.779 11.5859C129.342 11.7409 128.961 11.9588 128.638 12.2412C128.313 12.5237 128.046 12.8689 127.835 13.2769C127.623 13.6849 127.483 14.1372 127.413 14.6302H131.832V14.6283Z" fill="black"/>
  <path d="M138.976 9.91504H140.201C140.272 10.1126 140.334 10.3452 140.392 10.6129C140.447 10.8806 140.489 11.1483 140.519 11.416C140.942 10.9507 141.451 10.5852 142.051 10.3175C142.649 10.0498 143.316 9.91688 144.049 9.91688H144.219V11.5655C144.149 11.5378 144.078 11.5193 144.008 11.512C143.938 11.5046 143.861 11.5009 143.776 11.5009C143.268 11.5009 142.814 11.5784 142.413 11.7335C142.013 11.8886 141.673 12.1175 141.398 12.4203C141.123 12.723 140.912 13.0941 140.765 13.5298C140.617 13.9673 140.543 14.4603 140.543 15.0086V20.9052H138.979V9.91504H138.976Z" fill="black"/>
  <path d="M147.704 20.6416C146.859 20.3536 146.14 19.9401 145.548 19.4047L146.478 18.2213C146.774 18.4465 147.08 18.6404 147.398 18.8028C147.715 18.9653 148.035 19.1019 148.36 19.2145C148.683 19.3271 149.011 19.4121 149.342 19.4674C149.672 19.5247 150.014 19.5524 150.366 19.5524C150.774 19.5524 151.138 19.5136 151.456 19.4361C151.773 19.3585 152.041 19.2533 152.259 19.1185C152.476 18.9856 152.643 18.8158 152.755 18.6108C152.868 18.4059 152.925 18.177 152.925 17.9241C152.925 17.601 152.84 17.3351 152.672 17.1321C152.502 16.9271 152.277 16.7518 151.996 16.6041C151.714 16.4564 151.391 16.3327 151.024 16.2348C150.656 16.137 150.276 16.0447 149.883 15.9598C149.417 15.8471 148.948 15.7271 148.478 15.5998C148.005 15.4724 147.586 15.297 147.22 15.0718C146.853 14.8465 146.554 14.5622 146.321 14.2151C146.089 13.8699 145.972 13.4305 145.972 12.8933C145.972 12.4151 146.068 11.9813 146.259 11.5936C146.449 11.2059 146.713 10.8755 147.051 10.6004C147.388 10.3253 147.796 10.1148 148.276 9.96715C148.755 9.81945 149.292 9.74561 149.883 9.74561C150.616 9.74561 151.358 9.86561 152.113 10.1056C152.866 10.3456 153.518 10.6761 154.068 11.0988L153.285 12.3874C152.792 12.0348 152.231 11.7634 151.605 11.5733C150.977 11.3831 150.368 11.289 149.777 11.289C149.425 11.289 149.111 11.3241 148.838 11.3942C148.563 11.4644 148.334 11.5641 148.151 11.6896C147.968 11.817 147.83 11.9684 147.739 12.1438C147.647 12.321 147.603 12.513 147.603 12.7253C147.603 12.9376 147.649 13.1204 147.739 13.2755C147.832 13.4305 147.985 13.5782 148.204 13.7185C148.422 13.8588 148.712 13.9899 149.07 14.1099C149.43 14.2299 149.877 14.3536 150.412 14.4791C150.905 14.5918 151.398 14.7191 151.891 14.8594C152.384 14.9998 152.829 15.1862 153.222 15.4188C153.617 15.6514 153.94 15.9542 154.195 16.3271C154.448 16.7001 154.576 17.1764 154.576 17.7542C154.576 18.2619 154.474 18.7235 154.269 19.1388C154.064 19.5542 153.772 19.9031 153.392 20.1856C153.012 20.4681 152.558 20.6859 152.03 20.841C151.502 20.9961 150.92 21.0736 150.287 21.0736C149.41 21.0754 148.55 20.9314 147.704 20.6416Z" fill="black"/>
  <path d="M157.3 7.84611C157.103 7.64857 157.005 7.40303 157.005 7.1058C157.005 6.81042 157.103 6.55934 157.3 6.35627C157.498 6.15134 157.743 6.0498 158.041 6.0498C158.338 6.0498 158.587 6.15134 158.79 6.35627C158.995 6.56119 159.097 6.81042 159.097 7.1058C159.097 7.40119 158.995 7.64857 158.79 7.84611C158.585 8.04365 158.336 8.14149 158.041 8.14149C157.745 8.14149 157.496 8.0418 157.3 7.84611ZM157.258 9.91565H158.821V20.9058H157.258V9.91565Z" fill="black"/>
  <path d="M164.443 20.7578C164.048 20.6175 163.725 20.4088 163.47 20.1338C163.217 19.8587 163.027 19.5208 162.9 19.1184C162.773 18.7178 162.71 18.2562 162.71 17.7338C162.71 17.311 162.721 16.8255 162.741 16.2753C162.761 15.7252 162.795 15.1621 162.837 14.5842C162.88 14.0064 162.929 13.4396 162.985 12.8821C163.04 12.3264 163.097 11.8298 163.155 11.3922H161.273V10.2513C161.526 10.1664 161.801 10.0925 162.097 10.0298C162.392 9.96701 162.675 9.92824 162.942 9.91347V7.37686L164.506 7.16455V9.91162H168.014V11.3904H164.569C164.541 11.8132 164.508 12.2636 164.475 12.7436C164.44 13.2236 164.408 13.7202 164.379 14.2335C164.351 14.7485 164.325 15.2692 164.305 15.7972C164.285 16.3252 164.273 16.8365 164.273 17.3295C164.273 18.1325 164.421 18.6901 164.717 18.9984C165.012 19.3067 165.457 19.4636 166.048 19.4636C166.203 19.4636 166.382 19.4599 166.587 19.4525C166.792 19.4451 166.998 19.4322 167.211 19.4101C167.421 19.3898 167.622 19.3639 167.813 19.3362C168.003 19.3085 168.161 19.2735 168.289 19.231V20.6267C168.161 20.6839 167.997 20.7319 167.792 20.7744C167.587 20.8168 167.369 20.8519 167.137 20.8796C166.904 20.9073 166.675 20.9295 166.45 20.9424C166.225 20.9571 166.013 20.9645 165.817 20.9645C165.296 20.9701 164.838 20.8999 164.443 20.7578Z" fill="black"/>
  <path d="M171.059 24.9742C170.748 24.9244 170.459 24.8228 170.193 24.6677V23.2314C170.46 23.3441 170.708 23.4253 170.933 23.4751C171.158 23.525 171.369 23.549 171.566 23.549C172.159 23.549 172.661 23.3477 173.078 22.9471C173.494 22.5465 173.843 22.0204 174.125 21.3724L169.137 9.91699H170.913L174.843 19.0887H174.991L178.308 9.91699H179.999L175.836 21.3927C175.654 21.9281 175.438 22.4173 175.192 22.8622C174.945 23.3053 174.664 23.6893 174.347 24.0142C174.029 24.3373 173.667 24.5921 173.257 24.7748C172.849 24.9576 172.377 25.0499 171.841 25.0499C171.629 25.0481 171.369 25.0241 171.059 24.9742Z" fill="black"/>
</svg>