<svg width="392" height="95" viewBox="0 0 392 95" fill="none" xmlns="http://www.w3.org/2000/svg">
<path d="M45.2464 0C52.9136 0 56.6865 3.52079 58.9464 8.9232L90.3667 85.3426H73.7764L66.6136 67.1179H23.6271L16.4643 85.3426H0L31.4252 9.04928C33.6851 3.52078 37.4532 0 45.2464 0ZM61.9629 55.3044L47.0068 17.0947C46.3764 15.7126 45.6247 15.4604 45.2464 15.4604C44.7421 15.4604 43.9904 15.7126 43.3599 17.0947L28.2778 55.3044H61.9629Z" fill="white"/>
<path d="M175.971 28.2778C175.971 47.5112 165.782 56.9387 145.147 56.9387H114.193V85.3426H99.416V7.62939e-06H145.147C165.782 7.62939e-06 175.971 9.42757 175.971 28.2778ZM144.381 45.0912C154.953 45.0912 160.302 39.4851 160.302 28.2778C160.302 17.4487 154.953 11.9736 144.381 11.9736H114.193V45.0912H144.381Z" fill="white"/>
<path d="M157.019 75.7163C171.582 73.4564 173.415 71.6184 175.675 57.06C177.935 71.6232 179.773 73.4564 194.331 75.7163C179.768 77.9761 177.935 79.8141 175.675 94.3725C173.415 79.8093 171.582 77.9761 157.019 75.7163Z" fill="white"/>
<path d="M220.868 55.1396C219.554 54.9165 218.278 54.5673 217.037 54.0872C215.795 53.6071 214.602 53.0058 213.458 52.2832C212.308 51.5606 211.256 50.7022 210.291 49.7032L213.177 46.3182C213.918 47.133 214.733 47.8459 215.621 48.4569C216.508 49.0679 217.468 49.5771 218.506 49.9845C219.539 50.3919 220.606 50.6974 221.697 50.9011C222.788 51.1048 223.889 51.2066 225 51.2066C226.333 51.2066 227.546 51.066 228.637 50.7895C229.728 50.5131 230.664 50.096 231.44 49.5383C232.216 48.9855 232.817 48.3163 233.244 47.5403C233.671 46.7644 233.884 45.8769 233.884 44.8731C233.884 43.651 233.598 42.6326 233.021 41.8178C232.449 41.0031 231.687 40.2999 230.746 39.7083C229.801 39.1166 228.71 38.6171 227.473 38.2098C226.232 37.8024 224.946 37.395 223.613 36.9877C222.134 36.5415 220.659 36.042 219.2 35.4891C217.735 34.9363 216.426 34.238 215.257 33.4087C214.093 32.5746 213.147 31.561 212.425 30.3535C211.702 29.1508 211.343 27.662 211.343 25.8822C211.343 24.1412 211.693 22.6281 212.401 21.3284C213.104 20.0336 214.04 18.9522 215.204 18.0792C216.368 17.2112 217.73 16.5613 219.282 16.1346C220.839 15.7078 222.449 15.4944 224.112 15.4944C226.629 15.4944 229.044 15.9406 231.358 16.828C233.671 17.7155 235.567 18.9376 237.046 20.4943L234.161 23.7144C232.938 22.4196 231.401 21.4594 229.553 20.8289C227.701 20.1985 225.853 19.8833 224.001 19.8833C222.74 19.8833 221.615 20.0239 220.616 20.3003C219.617 20.5768 218.763 20.9647 218.06 21.4642C217.357 21.9637 216.819 22.5748 216.45 23.2974C216.081 24.0199 215.897 24.8056 215.897 25.6591C215.897 26.6969 216.154 27.5747 216.673 28.2973C217.192 29.0198 217.905 29.6551 218.812 30.2128C219.719 30.7657 220.766 31.2506 221.949 31.658C223.133 32.0654 224.394 32.4727 225.722 32.8801C227.201 33.3263 228.7 33.8355 230.218 34.4077C231.736 34.98 233.113 35.7025 234.355 36.5706C235.596 37.4387 236.605 38.5056 237.381 39.7616C238.157 41.0225 238.545 42.5938 238.545 44.4803C238.545 46.294 238.166 47.8943 237.405 49.2813C236.644 50.6683 235.63 51.8176 234.35 52.7245C233.069 53.6314 231.6 54.3152 229.937 54.7807C228.273 55.2463 226.537 55.4742 224.723 55.4742C223.462 55.4742 222.177 55.3627 220.868 55.1396Z" fill="white"/>
<path d="M252.429 54.1988C250.654 53.4956 249.136 52.5063 247.875 51.2308C246.614 49.9554 245.634 48.4181 244.931 46.6237C244.228 44.8294 243.879 42.8411 243.879 40.6539V40.3193C243.879 38.137 244.228 36.1535 244.931 34.3786C245.634 32.6037 246.624 31.0663 247.899 29.7715C249.175 28.4767 250.693 27.4777 252.453 26.7745C254.208 26.0713 256.124 25.7173 258.2 25.7173H258.476C261.362 25.7173 263.835 26.3817 265.886 27.7153C267.942 29.0489 269.504 30.7705 270.576 32.8801L267.079 34.8247C266.303 33.268 265.164 32.0314 263.665 31.1051C262.167 30.1789 260.363 29.7182 258.253 29.7182H258.195C256.677 29.7182 255.3 29.9655 254.058 30.465C252.817 30.9645 251.764 31.6677 250.891 32.5746C250.023 33.4814 249.354 34.592 248.893 35.9062C248.428 37.2205 248.2 38.6899 248.2 40.3193V40.6539C248.2 42.2446 248.457 43.6995 248.976 45.0137C249.495 46.3279 250.208 47.4482 251.114 48.3744C252.021 49.3007 253.112 50.0136 254.388 50.5131C255.663 51.0126 257.06 51.2648 258.578 51.2648H258.636C260.818 51.2648 262.632 50.7847 264.077 49.8196C265.522 48.8594 266.614 47.6906 267.351 46.3231L270.736 48.3793C269.552 50.4161 267.933 52.0698 265.877 53.3501C263.82 54.6304 261.386 55.2657 258.578 55.2657H258.243C256.148 55.2511 254.204 54.9019 252.429 54.1988Z" fill="white"/>
<path d="M277.573 14.9464H281.681V30.2128C282.976 28.7676 284.547 27.6425 286.399 26.8278C288.247 26.0131 290.284 25.6057 292.505 25.6057C295.837 25.6057 298.373 26.5223 300.109 28.3554C301.85 30.1886 302.718 32.8801 302.718 36.4348V54.9213H298.611V37.1574C298.611 34.6792 298.009 32.817 296.807 31.5804C295.604 30.3389 293.78 29.723 291.336 29.723C289.891 29.723 288.577 29.9364 287.394 30.3631C286.21 30.7899 285.192 31.3913 284.338 32.1672C283.485 32.9431 282.83 33.8888 282.369 34.9993C281.904 36.1099 281.676 37.332 281.676 38.6656V54.931H277.568V14.9464H277.573Z" fill="white"/>
<path d="M318.877 54.1696C317.102 53.447 315.574 52.448 314.299 51.1726C313.023 49.8972 312.029 48.3599 311.331 46.5655C310.627 44.7712 310.273 42.8023 310.273 40.6539V40.3193C310.273 38.1758 310.623 36.202 311.331 34.4077C312.034 32.6133 313.023 31.076 314.299 29.8006C315.574 28.5251 317.102 27.5261 318.877 26.8036C320.651 26.081 322.596 25.7221 324.706 25.7221H324.982C327.092 25.7221 329.036 26.081 330.811 26.8036C332.586 27.5261 334.114 28.5251 335.394 29.8006C336.67 31.076 337.659 32.6133 338.362 34.4077C339.065 36.202 339.414 38.1758 339.414 40.3193V40.6539C339.414 42.8023 339.06 44.7712 338.362 46.5655C337.659 48.3599 336.67 49.8972 335.394 51.1726C334.119 52.448 332.591 53.447 330.811 54.1696C329.036 54.8922 327.092 55.2511 324.982 55.2511H324.706C322.596 55.2511 320.656 54.8922 318.877 54.1696ZM324.875 51.1968C326.393 51.1968 327.78 50.9398 329.041 50.4209C330.297 49.902 331.374 49.1794 332.261 48.258C333.149 47.3317 333.842 46.2212 334.342 44.9264C334.841 43.6315 335.089 42.2058 335.089 40.6539V40.3193C335.089 38.7626 334.841 37.3417 334.342 36.0468C333.842 34.752 333.149 33.6414 332.261 32.7152C331.374 31.7889 330.297 31.0712 329.041 30.5523C327.78 30.0334 326.393 29.7763 324.875 29.7763H324.822C323.304 29.7763 321.917 30.0382 320.656 30.5523C319.395 31.0712 318.324 31.7938 317.436 32.7152C316.549 33.6414 315.855 34.752 315.356 36.0468C314.856 37.3417 314.609 38.7674 314.609 40.3193V40.6539C314.609 42.2106 314.861 43.6315 315.356 44.9264C315.855 46.2212 316.549 47.3317 317.436 48.258C318.324 49.1843 319.395 49.9069 320.656 50.4209C321.912 50.9398 323.304 51.1968 324.822 51.1968H324.875Z" fill="white"/>
<path d="M354.245 54.1696C352.47 53.447 350.942 52.448 349.662 51.1726C348.382 49.8972 347.392 48.3599 346.694 46.5655C345.991 44.7712 345.642 42.8023 345.642 40.6539V40.3193C345.642 38.1758 345.991 36.202 346.694 34.4077C347.397 32.6133 348.386 31.076 349.662 29.8006C350.937 28.5251 352.465 27.5261 354.245 26.8036C356.02 26.081 357.964 25.7221 360.074 25.7221H360.35C362.46 25.7221 364.405 26.081 366.18 26.8036C367.954 27.5261 369.482 28.5251 370.757 29.8006C372.033 31.076 373.022 32.6133 373.725 34.4077C374.429 36.202 374.783 38.1758 374.783 40.3193V40.6539C374.783 42.8023 374.429 44.7712 373.725 46.5655C373.022 48.3599 372.033 49.8972 370.757 51.1726C369.482 52.448 367.954 53.447 366.18 54.1696C364.405 54.8922 362.46 55.2511 360.35 55.2511H360.074C357.964 55.2511 356.02 54.8922 354.245 54.1696ZM360.239 51.1968C361.757 51.1968 363.144 50.9398 364.405 50.4209C365.661 49.902 366.737 49.1794 367.625 48.258C368.512 47.3317 369.206 46.2212 369.705 44.9264C370.205 43.6315 370.452 42.2058 370.452 40.6539V40.3193C370.452 38.7626 370.2 37.3417 369.705 36.0468C369.206 34.752 368.512 33.6414 367.625 32.7152C366.737 31.7889 365.661 31.0712 364.405 30.5523C363.144 30.0334 361.757 29.7763 360.239 29.7763H360.181C358.663 29.7763 357.276 30.0382 356.015 30.5523C354.754 31.0712 353.682 31.7938 352.795 32.7152C351.907 33.6414 351.214 34.752 350.714 36.0468C350.215 37.3417 349.963 38.7674 349.963 40.3193V40.6539C349.963 42.2106 350.215 43.6315 350.714 44.9264C351.214 46.2212 351.907 47.3317 352.795 48.258C353.682 49.1843 354.754 49.9069 356.015 50.4209C357.271 50.9398 358.663 51.1968 360.181 51.1968H360.239Z" fill="white"/>
<path d="M383.614 53.4471C382.761 52.3947 382.339 50.7943 382.339 48.646V14.9464H386.446V47.8119C386.446 49.1795 386.66 50.0863 387.087 50.5325C387.513 50.9786 388.095 51.1969 388.837 51.1969C389.245 51.1969 389.696 51.1678 390.195 51.1144C390.695 51.0611 391.204 50.9592 391.723 50.8089V54.417C391.092 54.6013 390.409 54.7516 389.667 54.8631C388.925 54.9747 388.221 55.028 387.557 55.028C385.777 55.028 384.463 54.5043 383.614 53.4471Z" fill="white"/>
</svg>
