<svg  viewBox="0 0 30 30" fill="none" xmlns="http://www.w3.org/2000/svg">
<path d="M15.1499 15.9751C15.0624 15.9626 14.9499 15.9626 14.8499 15.9751C12.6499 15.9001 10.8999 14.1001 10.8999 11.8876C10.8999 9.6251 12.7249 7.7876 14.9999 7.7876C17.2624 7.7876 19.0999 9.6251 19.0999 11.8876C19.0874 14.1001 17.3499 15.9001 15.1499 15.9751Z" stroke="currentColor" stroke-width="2" stroke-linecap="round" stroke-linejoin="round"/>
<path d="M23.4249 24.2252C21.1999 26.2627 18.2499 27.5002 15 27.5002C11.75 27.5002 8.79995 26.2627 6.57495 24.2252C6.69995 23.0502 7.44995 21.9002 8.78745 21.0002C12.2125 18.7252 17.8124 18.7252 21.2124 21.0002C22.5499 21.9002 23.2999 23.0502 23.4249 24.2252Z" stroke="currentColor" stroke-width="2" stroke-linecap="round" stroke-linejoin="round"/>
<path d="M14.9998 27.5C21.9033 27.5 27.4998 21.9036 27.4998 15C27.4998 8.09644 21.9033 2.5 14.9998 2.5C8.0962 2.5 2.49976 8.09644 2.49976 15C2.49976 21.9036 8.0962 27.5 14.9998 27.5Z" stroke="currentColor" stroke-width="2" stroke-linecap="round" stroke-linejoin="round"/>
</svg>
