<svg width="30" height="30" viewBox="0 0 30 30" fill="none" xmlns="http://www.w3.org/2000/svg">
<path d="M5.31132 0.0239258H24.5837C27.467 0.0239258 29.895 2.41193 29.895 5.48393V24.5279C29.895 27.4919 27.572 29.9879 24.5837 29.9879H5.31132C2.41637 29.9759 3.05176e-05 27.5879 3.05176e-05 24.5279V5.47193C3.05176e-05 2.41193 2.32299 0.0239258 5.31132 0.0239258Z" fill="#B30B00"/>
<path d="M23.8366 17.3398C22.4358 15.8038 18.6187 16.4758 17.6965 16.5718C16.3891 15.2278 15.4669 13.7038 15.0934 13.1278C15.5603 11.6878 15.9339 10.0678 15.9339 8.53182C15.9339 7.09182 15.3735 5.66382 13.891 5.66382C13.3307 5.66382 12.8638 5.95182 12.5837 6.43182C11.93 7.58382 12.2101 9.87582 13.2374 12.2638C12.677 13.9918 11.7432 16.5718 10.6342 18.5758C9.14008 19.1518 5.88327 20.6758 5.60311 22.4038C5.50973 22.8838 5.6965 23.4598 6.07004 23.7478C6.44358 24.1318 6.91051 24.2278 7.37743 24.2278C9.32685 24.2278 11.2879 21.4558 12.6887 18.9598C13.8093 18.5758 15.572 17.9998 17.3463 17.7118C19.3891 19.6318 21.2568 19.9078 22.1907 19.9078C23.4981 19.9078 23.965 19.3318 24.1401 18.8518C24.3852 18.3958 24.2101 17.7238 23.8366 17.3398ZM22.5292 18.2998C22.4358 18.6838 21.9689 19.0678 21.1284 18.8758C20.1012 18.5878 19.179 18.1078 18.4319 17.4358C19.0856 17.3398 20.6615 17.1478 21.7821 17.3398C22.1556 17.4358 22.6226 17.7238 22.5292 18.2998ZM13.4942 6.81582C13.5875 6.62382 13.7743 6.52782 13.9611 6.52782C14.428 6.52782 14.5214 7.10382 14.5214 7.58382C14.428 8.73582 14.2412 9.97182 13.8677 11.0278C13.1206 8.92782 13.214 7.39182 13.4942 6.81582ZM13.4008 17.6278C13.8677 16.7638 14.428 15.1438 14.6148 14.5678C15.0817 15.4318 15.9222 16.3918 16.2957 16.8598C16.3891 16.7758 14.7082 17.1478 13.4008 17.6278ZM10.2374 19.8358C8.94163 21.9358 7.72763 23.2798 6.98054 23.2798C6.88716 23.2798 6.70039 23.2798 6.607 23.1838C6.51362 22.9918 6.42023 22.7998 6.51362 22.6078C6.607 21.8398 8.10117 20.7838 10.2374 19.8358Z" fill="white"/>
</svg>
