<svg viewBox="0 0 182 52" fill="none" xmlns="http://www.w3.org/2000/svg">
<path d="M5.3747 10.8962C0.653672 20.04 1.8589 29.9737 8.35171 38.5369C9.25901 39.7335 10.1383 41.0994 11.6057 42.0413C13.703 43.3876 17.3992 43.9197 20.1559 44.3157C29.0302 45.5906 37.6843 45.7251 46.7067 45.9403C78.7213 46.7038 110.734 47.2399 142.75 47.2399C146.89 47.2399 151.488 47.3365 155.506 46.5669C158.581 45.9779 161.17 45.016 164.074 44.2229C169.992 42.6065 174.399 40.4755 176.899 36.2625C180.069 30.9207 179.019 24.9643 177.349 19.4832C176.595 17.0077 175.451 14.4129 173.299 12.3003C170.389 9.44391 163.101 8.50629 158.466 7.65872C150.651 6.22983 142.763 5.69678 134.667 5.67445C127.147 5.6537 119.736 5.09683 112.236 4.83896C104.85 4.58505 97.5253 4.01922 90.1158 3.84101C81.4337 3.6322 72.7764 4.00347 64.1015 4.00347C50.4237 4.00347 36.6024 5.05317 23.1675 6.74201C19.2031 7.24036 13.8409 8.15563 10.6018 9.89829C6.45686 12.1283 5.31689 16.1334 4.7516 19.46C3.58963 26.2979 4.88744 34.2617 9.97869 40.3007C13.0978 44.0005 21.0269 45.1191 26.6984 46.0331C37.9222 47.8419 50.3073 47.3599 61.7649 47.6693C66.2434 47.7902 70.6863 48.2104 75.1615 48.3771C80.3473 48.5702 85.5538 48.3752 90.7389 48.2378C100.835 47.9703 110.9 47.4488 121.011 47.4488C128.47 47.4488 135.908 47.3144 143.356 47.2399C148.979 47.1836 154.886 47.1606 160.456 46.6133C182.231 44.4739 182.712 26.9129 177.834 15.7699C177.083 14.0552 176.264 12.1904 174.545 10.7802C172.595 9.17998 169.501 8.29228 166.86 7.32221C160.8 5.09567 154.705 4.1696 147.891 3.63214C129.477 2.17977 111.195 2.50134 92.7466 3.26081C78.0843 3.86441 63.454 4.21234 48.7664 4.21234C38.2535 4.21234 27.4728 3.02384 17.5251 5.92973C8.40225 8.59466 3.98229 13.8346 1.94767 20.0866C-0.332001 27.0916 1.42594 37.004 8.04016 42.8536C11.9843 46.3418 16.2109 48.4183 22.5791 49.5375C31.2696 51.0648 39.9661 50.9996 48.8703 50.9996C59.1274 50.9996 69.2976 50.1764 79.5231 49.7464C89.3501 49.3331 99.2418 49.2074 109.086 49.1081C125.85 48.9391 142.578 48.4931 159.349 48.4931C163.272 48.4931 168.096 49.0017 171.741 47.8201C175.645 46.5546 179.012 44.7134 180.084 41.7628C181.394 38.1546 181.046 34.4397 180.586 30.7739C179.853 24.9311 178.649 18.798 174.995 13.4259C171.891 8.8621 165.953 5.64451 158.933 3.99187C141.504 -0.111261 123.696 1.15936 105.607 1.27653C92.4705 1.36162 79.3622 1.36047 66.2304 1.65947C56.2133 1.88755 46.3491 2.79046 36.391 3.45808C30.6576 3.84248 24.8625 4.10664 19.3944 5.41915C17.0888 5.97256 14.7435 6.43623 12.6961 7.36863C9.0455 9.03106 8.12067 11.1391 6.6209 13.8204" stroke="#F9C838" stroke-width="1.5" stroke-linecap="round"/>
</svg>
