<svg width="50" height="154" viewBox="0 0 50 154" fill="none" xmlns="http://www.w3.org/2000/svg">
<path d="M0.737172 150.787C0.20433 150.641 -0.109868 150.092 0.0353846 149.559L2.40244 140.876C2.5477 140.343 3.0974 140.029 3.63024 140.174C4.16308 140.319 4.47728 140.869 4.33203 141.402L2.22798 149.12L9.94633 151.224C10.4792 151.369 10.7934 151.919 10.6481 152.452C10.5029 152.985 9.95316 153.299 9.42032 153.154L0.737172 150.787ZM48.3983 0.792603C50.4852 20.0865 50.6602 50.6967 44.4001 79.8845C38.1482 109.034 25.4221 137.015 1.49642 150.69L0.503942 148.954C23.676 135.709 36.2299 108.441 42.4446 79.4651C48.6509 50.5281 48.479 20.1376 46.4099 1.00768L48.3983 0.792603Z" fill="#0F645B"/>
</svg>
