<svg width="41" height="41" viewBox="0 0 41 41" fill="none" xmlns="http://www.w3.org/2000/svg">
<path d="M5.12426 12.1249C5.20253 10.4145 5.47035 9.31135 5.83253 8.37497L5.8374 8.36203C6.19631 7.40918 6.75855 6.54599 7.485 5.83254L7.49519 5.82253L7.5052 5.81233C8.21925 5.08496 9.08274 4.52327 10.0348 4.16531L10.0512 4.15903C10.9854 3.79571 12.0864 3.52889 13.7982 3.45063M5.12426 12.1249C5.04197 13.9524 5.021 14.5189 5.021 19.2572C5.021 23.9967 5.04081 24.5618 5.12421 26.3897M5.12426 12.1249L5.12425 12.5859M5.83889 30.1532C6.19685 31.1052 6.75854 31.9687 7.48592 32.6828L7.4961 32.6928L7.50609 32.703C8.21959 33.4294 9.0828 33.9916 10.0357 34.3506L10.0499 34.356C10.985 34.7186 12.0865 34.9855 13.7982 35.0638M5.83889 30.1532L5.83261 30.1368C5.46929 29.2026 5.20247 28.1016 5.12421 26.3897M5.83889 30.1532L5.81743 30.0402M5.12421 26.3897L5.15224 26.5373M5.12421 26.3897L5.12421 25.9276M5.81743 30.0402L5.15224 26.5373M5.81743 30.0402C5.53492 29.2938 5.24401 28.2525 5.15224 26.5373M5.81743 30.0402C5.82734 30.0664 5.83724 30.0922 5.84712 30.1177C6.2054 31.0835 6.77308 31.9581 7.50935 32.6785C8.2295 33.4146 9.10372 33.9822 10.0693 34.3405C10.8441 34.6423 11.9359 34.9577 13.798 35.0431C15.6771 35.1286 16.2576 35.146 20.9308 35.146C25.6039 35.146 26.185 35.1286 28.0641 35.043C29.9284 34.9576 31.019 34.6404 31.7911 34.3409C32.7572 33.9828 33.6319 33.4151 34.3523 32.6785C35.0883 31.9584 35.6558 31.0842 36.0141 30.1187C36.3159 29.3438 36.6313 28.252 36.7166 26.39C36.8022 24.5109 36.8196 23.9292 36.8196 19.2572C36.8196 14.5852 36.8021 14.003 36.7166 12.1239C36.6307 10.2498 36.3107 9.15766 36.0098 8.38485C35.6165 7.36948 35.1177 6.60154 34.351 5.83485C33.5859 5.07121 32.82 4.57215 31.8039 4.17843C31.0283 3.87521 29.9354 3.55713 28.0641 3.47137C27.9013 3.46396 27.7483 3.45707 27.6016 3.45065M5.15224 26.5373C5.14965 26.4889 5.14722 26.44 5.14495 26.3905C5.13754 26.2276 5.13064 26.0745 5.12421 25.9276M13.7982 3.45063C15.6262 3.36723 16.1925 3.34741 20.9308 3.34741C25.669 3.34741 26.2351 3.36836 28.0626 3.45065M13.7982 3.45063L14.2604 3.45063M28.0626 3.45065L27.6016 3.45065M28.0626 3.45065C29.7733 3.52889 30.8766 3.79667 31.813 4.15889L31.826 4.16382C32.7788 4.52273 33.642 5.08497 34.3554 5.81142L34.3654 5.82151L34.3754 5.83142C35.102 6.54494 35.6642 7.40836 36.0228 8.36148L36.029 8.3776C36.3923 9.31184 36.6591 10.4128 36.7374 12.1247M14.2604 3.45063L27.6016 3.45065M14.2604 3.45063C15.8083 3.38295 16.6638 3.36838 20.9308 3.36838C25.1982 3.36838 26.0535 3.38295 27.6016 3.45065M14.2604 3.45063C14.1135 3.45705 13.9604 3.46395 13.7975 3.47137C11.9331 3.55681 10.8426 3.87399 10.0705 4.17347C9.10076 4.53294 8.22314 5.10364 7.50121 5.84421C6.74168 6.60687 6.24453 7.37113 5.85207 8.38397C5.54884 9.15954 5.23069 10.253 5.14493 12.1244C5.13754 12.2868 5.13066 12.4394 5.12425 12.5859M36.7374 26.3897C36.6591 28.1015 36.3923 29.203 36.0296 30.1381L36.0242 30.1524C35.6653 31.1052 35.103 31.9684 34.3766 32.6819L34.3664 32.6919L34.3564 32.7021C33.6423 33.4294 32.7788 33.9911 31.8268 34.3491L31.8104 34.3554C30.8761 34.7187 29.7752 34.9855 28.0633 35.0638M5.12421 25.9276C5.05653 24.3797 5.04196 23.5242 5.04196 19.2572C5.04196 14.9889 5.05652 14.1346 5.12425 12.5859M5.12421 25.9276L5.12425 12.5859M18.1011 26.0886C18.9982 26.4602 19.9598 26.6515 20.9308 26.6515C22.8919 26.6515 24.7726 25.8724 26.1593 24.4857C27.546 23.099 28.3251 21.2183 28.3251 19.2572C28.3251 17.2961 27.546 15.4154 26.1593 14.0287C24.7726 12.642 22.8919 11.8629 20.9308 11.8629C19.9598 11.8629 18.9982 12.0542 18.1011 12.4258C17.204 12.7974 16.3889 13.342 15.7022 14.0287C15.0156 14.7153 14.471 15.5304 14.0994 16.4275C13.7278 17.3246 13.5365 18.2862 13.5365 19.2572C13.5365 20.2282 13.7278 21.1898 14.0994 22.0869C14.471 22.984 15.0156 23.7991 15.7022 24.4857C16.3889 25.1724 17.204 25.717 18.1011 26.0886ZM15.6858 14.0122C17.0768 12.6211 18.9635 11.8396 20.9308 11.8396C22.8981 11.8396 24.7847 12.6211 26.1758 14.0122C27.5669 15.4032 28.3484 17.2899 28.3484 19.2572C28.3484 21.2245 27.5669 23.1112 26.1758 24.5022C24.7847 25.8933 22.8981 26.6748 20.9308 26.6748C18.9635 26.6748 17.0768 25.8933 15.6858 24.5022C14.2947 23.1112 13.5132 21.2245 13.5132 19.2572C13.5132 17.2899 14.2947 15.4032 15.6858 14.0122ZM32.5252 10.1126C32.5252 10.6757 32.3015 11.2157 31.9033 11.6139C31.5052 12.012 30.9652 12.2357 30.4021 12.2357C29.839 12.2357 29.299 12.012 28.9009 11.6139C28.5027 11.2157 28.2791 10.6757 28.2791 10.1126C28.2791 9.54957 28.5027 9.00956 28.9009 8.61141C29.299 8.21326 29.839 7.98959 30.4021 7.98959C30.9652 7.98959 31.5052 8.21326 31.9033 8.61141C32.3015 9.00956 32.5252 9.54957 32.5252 10.1126Z" stroke="currentColor" stroke-width="1.5" stroke-linejoin="round"/>
</svg>
