<svg width="412" height="80" viewBox="0 0 412 80" fill="none" xmlns="http://www.w3.org/2000/svg">
    <path class="bohatera-b"
        d="M13.3001 77.2002C10.4335 75.3335 8.73348 73.4669 8.20014 71.6002C7.73348 69.7335 8.40014 68.2335 10.2001 67.1002C10.6001 66.8335 11.3668 66.8002 12.5001 67.0002C13.7001 67.2002 14.6001 67.6002 15.2001 68.2002C16.5335 69.4002 18.0335 70.1335 19.7001 70.4002C21.4335 70.7335 23.5335 70.5669 26.0001 69.9002C28.8001 69.0335 30.9335 67.9669 32.4001 66.7002C33.9335 65.3669 35.6335 63.5669 37.5001 61.3002C38.9001 59.5002 39.8668 57.7335 40.4001 56.0002C41.0001 54.2669 41.2668 52.7002 41.2001 51.3002C41.2001 49.8335 40.8668 48.7335 40.2001 48.0002C38.5335 45.6669 36.4668 44.0669 34.0001 43.2002C31.5335 42.2669 28.3001 42.3335 24.3001 43.4002C23.8335 43.4669 23.1335 43.6002 22.2001 43.8002C21.2668 44.0002 20.4335 44.2002 19.7001 44.4002C18.9668 44.5335 18.5668 44.6002 18.5001 44.6002C18.0335 44.7335 17.6668 44.8002 17.4001 44.8002C17.1335 44.8002 16.8001 45.1335 16.4001 45.8002C16.0668 46.4002 15.5335 47.7002 14.8001 49.7002C14.0668 51.6335 12.9668 54.6335 11.5001 58.7002C10.1001 62.7669 8.90014 65.6669 7.90014 67.4002C6.96681 69.0669 6.13348 69.8335 5.40014 69.7002C4.66681 69.5002 3.83348 68.7669 2.90014 67.5002C2.36681 66.5669 1.76681 65.5335 1.10014 64.4002C0.500144 63.2669 0.533477 62.1002 1.20014 60.9002C1.53348 60.3002 1.80014 59.7669 2.00014 59.3002C2.20014 58.7669 2.46681 57.8669 2.80014 56.6002C3.13348 55.6002 3.76681 53.8669 4.70014 51.4002C5.70014 48.8669 6.86681 45.9335 8.20014 42.6002C9.53348 39.2002 10.9335 35.7002 12.4001 32.1002C13.8668 28.5002 15.2668 25.1002 16.6001 21.9002C18.0001 18.7002 19.1668 16.0002 20.1001 13.8002C21.0335 11.7335 21.6001 10.2335 21.8001 9.30019C22.0001 8.36686 21.9335 7.86686 21.6001 7.80019C21.6001 7.46686 21.5001 7.16686 21.3001 6.90019C21.1001 6.56686 21.0335 6.26686 21.1001 6.00019C21.1001 5.73352 21.6668 5.36686 22.8001 4.90019C24.0001 4.43353 25.2668 4.00019 26.6001 3.60019C27.9335 3.20019 28.9001 3.06686 29.5001 3.20019C29.8335 3.20019 30.2335 3.20019 30.7001 3.20019C31.1668 3.13353 31.4001 2.96686 31.4001 2.70019C31.6001 2.70019 32.2335 2.63353 33.3001 2.5002C34.3668 2.36686 35.5335 2.36686 36.8001 2.5002C41.2668 2.90019 44.9335 4.20019 47.8001 6.40019C50.6668 8.53353 52.0668 11.9669 52.0001 16.7002C51.9335 17.8335 51.4668 19.3002 50.6001 21.1002C49.7335 22.9002 48.6335 24.7002 47.3001 26.5002C46.0335 28.3002 44.6668 29.8669 43.2001 31.2002C42.3335 31.9335 41.4001 32.7002 40.4001 33.5002C39.4668 34.2335 38.6335 34.8669 37.9001 35.4002C37.2335 35.8669 36.9001 36.1002 36.9001 36.1002C36.9001 36.1002 37.1668 36.2002 37.7001 36.4002C38.2335 36.6002 38.8001 36.8002 39.4001 37.0002C42.4668 38.1335 44.8668 39.5669 46.6001 41.3002C48.4001 43.0335 49.6668 45.4335 50.4001 48.5002C50.6668 49.5002 50.6668 50.7335 50.4001 52.2002C50.2001 53.6669 49.9001 55.1335 49.5001 56.6002C49.1001 58.0002 48.6668 59.2002 48.2001 60.2002C47.7335 60.6669 47.3668 61.1669 47.1001 61.7002C46.8335 62.1669 46.7001 62.4002 46.7001 62.4002C46.7001 62.5335 46.4335 63.0669 45.9001 64.0002C45.3668 64.8669 44.7335 65.8335 44.0001 66.9002C43.2668 67.9669 42.5668 68.9002 41.9001 69.7002C41.2335 70.2335 40.2668 70.9669 39.0001 71.9002C37.8001 72.9002 36.4668 73.8669 35.0001 74.8002C33.6001 75.7335 32.2668 76.4335 31.0001 76.9002C29.1335 77.7002 27.0335 78.2335 24.7001 78.5002C22.4335 78.8335 20.2668 78.8669 18.2001 78.6002C16.1335 78.4002 14.5001 77.9335 13.3001 77.2002ZM20.5001 35.7002C20.5001 35.7002 21.0335 35.6002 22.1001 35.4002C23.2335 35.1335 24.4668 34.8669 25.8001 34.6002C27.1335 34.2669 28.1335 33.9669 28.8001 33.7002C29.1335 33.5002 29.6001 33.2335 30.2001 32.9002C30.8668 32.5669 31.5335 32.0669 32.2001 31.4002C33.1335 30.5335 34.1335 29.5669 35.2001 28.5002C36.2668 27.3669 37.3001 26.1669 38.3001 24.9002C39.3668 23.6335 40.2668 22.2669 41.0001 20.8002C42.5335 18.4002 43.3668 16.6669 43.5001 15.6002C43.6335 14.5335 43.2668 13.5669 42.4001 12.7002C41.8001 11.9669 40.9668 11.4335 39.9001 11.1002C38.8335 10.7002 37.6668 10.5002 36.4001 10.5002C35.2001 10.4335 34.0335 10.5669 32.9001 10.9002C32.0335 11.1669 31.3668 11.5002 30.9001 11.9002C30.4335 12.2335 30.2001 12.7669 30.2001 13.5002C30.2001 14.1002 30.0001 14.7335 29.6001 15.4002C29.2668 16.0002 28.9335 16.4669 28.6001 16.8002C28.5335 17.2669 28.3001 17.7335 27.9001 18.2002C27.5668 18.6002 27.4001 18.8002 27.4001 18.8002C27.4001 19.0669 26.9668 19.9002 26.1001 21.3002C25.3001 22.6335 24.4335 24.5669 23.5001 27.1002C22.3001 29.9669 21.5001 32.0335 21.1001 33.3002C20.7001 34.5669 20.5001 35.3669 20.5001 35.7002Z"
        fill="#F9C838" />
    <path class="bohatera-o"
        d="M64.0439 73.5002C61.5772 71.7002 59.6106 70.0335 58.1439 68.5002C56.7439 66.9002 55.9772 65.3669 55.8439 63.9002C55.7106 62.7002 55.7106 61.0669 55.8439 59.0002C56.0439 56.9335 56.2772 54.9002 56.5439 52.9002C56.8106 50.9002 57.0439 49.4002 57.2439 48.4002C57.5772 48.0669 57.7106 47.6335 57.6439 47.1002C57.6439 46.5002 57.6439 46.2002 57.6439 46.2002C57.5772 45.8669 57.8106 45.0002 58.3439 43.6002C58.8772 42.1335 59.3772 40.2669 59.8439 38.0002C61.1772 34.0002 62.4439 30.6669 63.6439 28.0002C64.9106 25.2669 66.1439 22.9335 67.3439 21.0002C68.5439 19.0669 69.7439 17.3002 70.9439 15.7002C73.6772 12.9002 76.2439 10.6669 78.6439 9.0002C81.1106 7.33353 83.3772 6.03353 85.4439 5.10019C86.7772 4.30019 88.0106 3.66686 89.1439 3.20019C90.2772 2.73353 91.2106 2.66686 91.9439 3.0002C95.6772 3.80019 98.8439 5.43352 101.444 7.90019C104.044 10.3669 105.777 13.9335 106.644 18.6002C107.111 21.5335 107.377 24.2002 107.444 26.6002C107.577 28.9335 107.411 31.2669 106.944 33.6002C106.477 35.8669 105.611 38.3669 104.344 41.1002C103.144 43.8335 101.444 47.0335 99.2439 50.7002C96.5106 56.1002 93.5106 60.6335 90.2439 64.3002C87.0439 67.9002 83.8106 70.6335 80.5439 72.5002C77.3439 74.3669 74.2772 75.3669 71.3439 75.5002C68.4772 75.7002 66.0439 75.0335 64.0439 73.5002ZM72.0439 66.9002C73.5772 66.7002 74.8106 66.4002 75.7439 66.0002C76.7439 65.6002 77.7772 64.8335 78.8439 63.7002C79.9106 62.5669 81.4106 60.9002 83.3439 58.7002C85.0772 56.7002 86.5106 55.0002 87.6439 53.6002C88.8439 52.2002 89.8439 50.7669 90.6439 49.3002C91.5106 47.8335 92.3106 46.1002 93.0439 44.1002C93.8439 42.0335 94.7106 39.4002 95.6439 36.2002C96.1772 34.2002 96.5439 32.7335 96.7439 31.8002C97.0106 30.8002 97.1772 29.9669 97.2439 29.3002C97.3106 28.6335 97.3106 27.7335 97.2439 26.6002C97.2439 25.4002 97.2439 23.6002 97.2439 21.2002C97.1772 20.0669 96.9439 18.8002 96.5439 17.4002C96.1439 15.9335 95.6772 14.9002 95.1439 14.3002C94.4772 13.5669 93.4772 12.9335 92.1439 12.4002C90.8106 11.8669 89.4106 11.9335 87.9439 12.6002C87.1439 12.9335 86.1439 13.6335 84.9439 14.7002C83.7439 15.7002 82.5106 16.9002 81.2439 18.3002C79.9772 19.7002 78.7772 21.1002 77.6439 22.5002C76.5106 23.9002 75.6106 25.1669 74.9439 26.3002C74.2772 27.4335 73.9439 28.2335 73.9439 28.7002C73.9439 28.7002 73.9106 28.8669 73.8439 29.2002C73.8439 29.5335 73.7106 29.8669 73.4439 30.2002C72.5772 31.1335 71.6772 32.6669 70.7439 34.8002C69.8106 36.9335 68.9439 39.3669 68.1439 42.1002C67.3439 44.8335 66.6772 47.5669 66.1439 50.3002C65.6106 53.0335 65.2772 55.5002 65.1439 57.7002C65.1439 58.7669 65.1439 59.6669 65.1439 60.4002C65.1439 61.1335 65.2106 61.8002 65.3439 62.4002C65.5439 62.9335 65.8439 63.5335 66.2439 64.2002C66.6439 64.8669 67.4439 65.5335 68.6439 66.2002C69.9106 66.8669 71.0439 67.1002 72.0439 66.9002Z"
        fill="#F9C838" />
    <path class="bohatera-h"
        d="M111.532 79.2002C111.532 79.2002 111.099 79.1002 110.232 78.9002C109.432 78.7669 108.766 78.7335 108.232 78.8002C107.166 78.6002 106.099 78.0335 105.032 77.1002C103.966 76.2335 103.532 75.2669 103.732 74.2002C103.999 73.9335 104.166 73.3669 104.232 72.5002C104.366 71.6335 104.432 70.9335 104.432 70.4002C104.632 69.8669 104.766 69.4669 104.832 69.2002C104.899 68.9335 105.066 68.2669 105.332 67.2002C105.466 66.0669 105.732 64.5002 106.132 62.5002C106.599 60.4335 107.099 58.2335 107.632 55.9002C108.166 53.5002 108.699 51.2335 109.232 49.1002C109.832 46.9002 110.332 45.0669 110.732 43.6002C111.199 42.1335 111.532 41.3002 111.732 41.1002C111.732 41.1002 111.732 41.0002 111.732 40.8002C111.732 40.5335 111.699 40.2669 111.632 40.0002C111.632 40.0002 111.666 39.7002 111.732 39.1002C111.866 38.4335 112.166 37.6669 112.632 36.8002C112.899 36.0669 113.099 35.2669 113.232 34.4002C113.432 33.5335 113.532 32.9669 113.532 32.7002C113.799 32.3669 114.132 31.5669 114.532 30.3002C114.999 28.9669 115.466 27.6335 115.932 26.3002C116.266 25.2335 116.632 24.1002 117.032 22.9002C117.499 21.7002 117.899 20.6669 118.232 19.8002C118.632 18.8669 118.832 18.4002 118.832 18.4002C118.832 18.1335 118.832 18.0002 118.832 18.0002C118.832 17.9335 118.832 17.9002 118.832 17.9002C119.032 17.6335 119.599 16.2669 120.532 13.8002C121.532 11.3335 122.866 8.13353 124.532 4.20019C124.799 3.66686 125.099 3.06686 125.432 2.40019C125.832 1.73352 126.032 1.26686 126.032 1.00019C126.366 0.466861 126.966 0.200195 127.832 0.200195C128.699 0.200195 129.599 0.400195 130.532 0.800194C131.466 1.13353 132.099 1.66686 132.432 2.40019L134.732 4.00019L131.332 11.3002C130.399 13.1669 129.599 14.9002 128.932 16.5002C128.266 18.0335 127.932 18.9335 127.932 19.2002C127.932 19.2002 127.799 19.6002 127.532 20.4002C127.266 21.2002 126.932 22.2335 126.532 23.5002C126.199 24.7002 125.866 25.9002 125.532 27.1002C124.866 29.2335 124.232 31.0002 123.632 32.4002C123.099 33.8002 122.832 34.6335 122.832 34.9002C122.832 34.7669 123.532 34.6669 124.932 34.6002C126.332 34.4669 128.066 34.3669 130.132 34.3002C132.266 34.1669 134.432 34.0669 136.632 34.0002C138.899 33.8669 140.899 33.7335 142.632 33.6002C144.432 33.4669 145.666 33.3335 146.332 33.2002L151.432 32.5002L153.832 23.6002C154.299 21.6669 154.899 19.3669 155.632 16.7002C156.432 14.0335 157.132 11.7335 157.732 9.80019C158.666 6.66686 159.732 4.40019 160.932 3.0002C162.132 1.53353 163.132 0.800194 163.932 0.800194C165.066 0.800194 165.966 1.26686 166.632 2.20019C167.299 3.13353 167.766 3.86686 168.032 4.4002C168.899 5.06686 169.299 5.86686 169.232 6.80019C169.232 7.73353 168.732 9.00019 167.732 10.6002C166.799 12.4002 165.999 14.3669 165.332 16.5002C164.732 18.6335 164.166 20.3669 163.632 21.7002C163.699 22.5002 163.632 23.1669 163.432 23.7002C163.232 24.1669 162.999 24.5669 162.732 24.9002C162.599 25.0335 162.332 25.5335 161.932 26.4002C161.599 27.2669 161.266 28.1335 160.932 29.0002C160.666 29.8669 160.532 30.4002 160.532 30.6002C160.599 31.0669 160.532 31.6669 160.332 32.4002C160.132 33.0669 159.899 33.5335 159.632 33.8002C159.566 34.2002 159.332 35.2335 158.932 36.9002C158.532 38.5002 158.032 40.4002 157.432 42.6002C156.899 44.7335 156.332 46.8335 155.732 48.9002C155.199 50.9669 154.666 52.6669 154.132 54.0002C154.199 54.4669 154.066 55.0669 153.732 55.8002C153.399 56.4669 153.266 57.0669 153.332 57.6002C153.066 58.4002 152.732 59.4335 152.332 60.7002C151.999 61.9002 151.866 62.6669 151.932 63.0002C151.666 64.5335 151.299 66.2335 150.832 68.1002C150.366 69.9669 149.966 71.6002 149.632 73.0002C149.299 74.4002 149.132 75.2002 149.132 75.4002C148.932 75.6669 148.332 75.7002 147.332 75.5002C146.399 75.3669 145.566 75.1669 144.832 74.9002C143.566 74.1669 142.599 73.1335 141.932 71.8002C141.332 70.5335 141.366 69.1335 142.032 67.6002C142.366 67.0669 142.732 65.7335 143.132 63.6002C143.599 61.4669 144.066 59.3669 144.532 57.3002C144.866 56.3002 145.199 55.0002 145.532 53.4002C145.866 51.8002 146.166 50.2002 146.432 48.6002C146.766 47.0002 147.032 45.6335 147.232 44.5002C147.499 43.3669 147.699 42.7335 147.832 42.6002C147.832 42.3335 147.832 42.1002 147.832 41.9002C147.832 41.7002 147.832 41.6002 147.832 41.6002C147.699 41.4669 146.966 41.4002 145.632 41.4002C144.299 41.3335 142.632 41.3335 140.632 41.4002C138.632 41.4669 136.499 41.6002 134.232 41.8002C132.032 42.0002 129.966 42.2669 128.032 42.6002C127.299 42.6669 126.332 42.7002 125.132 42.7002C123.932 42.7002 123.066 42.7335 122.532 42.8002C121.799 42.8002 121.166 42.8335 120.632 42.9002C120.166 42.9002 119.932 42.9002 119.932 42.9002C119.866 43.1002 119.666 43.7669 119.332 44.9002C118.999 46.0335 118.632 47.4002 118.232 49.0002C117.832 50.5335 117.432 52.1335 117.032 53.8002C116.632 55.4669 116.266 57.0002 115.932 58.4002C115.666 59.7335 115.499 60.7335 115.432 61.4002C115.232 62.6002 114.932 64.1335 114.532 66.0002C114.132 67.8002 113.699 69.6335 113.232 71.5002C112.832 73.3669 112.466 75.0002 112.132 76.4002C111.866 77.8669 111.666 78.8002 111.532 79.2002Z"
        fill="#F9C838" />
    <path class="bohatera-a1"
        d="M202.656 78.7002C202.39 78.7002 201.89 78.5669 201.156 78.3002C200.49 78.1002 199.99 77.8002 199.656 77.4002C199.19 76.9335 198.856 76.3669 198.656 75.7002C198.523 75.0335 198.456 74.4002 198.456 73.8002C198.456 73.0669 198.456 72.0002 198.456 70.6002C198.456 69.2669 198.39 67.9669 198.256 66.7002C198.256 64.7669 198.223 62.9669 198.156 61.3002C198.09 59.6335 198.19 58.5002 198.456 57.9002C198.256 56.9669 198.223 55.9669 198.356 54.9002C198.556 53.7669 198.656 52.9002 198.656 52.3002L198.256 49.6002H192.856C191.59 49.8002 189.556 49.8335 186.756 49.7002C183.956 49.5002 180.823 49.3002 177.356 49.1002L176.056 51.2002C175.856 51.4669 175.49 52.0002 174.956 52.8002C174.423 53.6002 173.89 54.7002 173.356 56.1002C173.023 56.9669 172.556 58.0669 171.956 59.4002C171.423 60.6669 170.823 61.9335 170.156 63.2002C169.556 64.4669 168.956 65.5335 168.356 66.4002C167.29 68.4669 166.323 69.8669 165.456 70.6002C164.656 71.4002 164.09 71.8002 163.756 71.8002C163.156 71.8002 162.69 71.7669 162.356 71.7002C162.023 71.6335 161.523 71.3669 160.856 70.9002C159.523 70.3002 158.656 69.3669 158.256 68.1002C157.923 66.8335 158.423 65.2335 159.756 63.3002C160.09 62.8335 160.39 62.3669 160.656 61.9002C160.923 61.4335 161.056 61.2002 161.056 61.2002C161.056 61.0669 161.323 60.4002 161.856 59.2002C162.456 57.9335 163.156 56.5335 163.956 55.0002C164.756 53.4002 165.523 52.0002 166.256 50.8002C166.99 49.5335 167.523 48.8335 167.856 48.7002C169.056 47.3669 168.956 46.1002 167.556 44.9002C167.09 44.7002 166.79 44.1335 166.656 43.2002C166.523 42.2669 166.756 41.4002 167.356 40.6002C167.956 39.7335 169.09 39.3669 170.756 39.5002C171.423 39.1669 171.89 38.9335 172.156 38.8002C172.49 38.6669 172.656 38.4669 172.656 38.2002C172.656 38.0669 172.79 37.6669 173.056 37.0002C173.39 36.3335 173.79 35.5669 174.256 34.7002C174.723 33.7669 175.223 32.8669 175.756 32.0002C176.29 31.1335 176.79 30.4002 177.256 29.8002C177.99 27.9335 178.556 26.7002 178.956 26.1002C179.356 25.4335 179.69 24.8002 179.956 24.2002C180.29 23.8669 180.756 23.1335 181.356 22.0002C181.956 20.8669 182.59 19.7669 183.256 18.7002C184.19 17.7669 185.023 16.7669 185.756 15.7002C186.556 14.5669 187.256 13.6335 187.856 12.9002C188.19 12.1669 188.656 11.3669 189.256 10.5002C189.923 9.63353 190.59 8.73353 191.256 7.80019C192.523 6.4002 194.023 5.26686 195.756 4.4002C197.556 3.53353 199.123 3.40019 200.456 4.00019C201.99 4.66686 203.423 6.00019 204.756 8.0002C206.09 9.93353 206.856 12.3002 207.056 15.1002C207.256 16.6335 207.456 18.3669 207.656 20.3002C207.923 22.1669 207.89 23.5669 207.556 24.5002C207.556 25.7002 207.523 27.1669 207.456 28.9002C207.456 30.6335 207.556 32.2669 207.756 33.8002C207.49 35.0669 207.39 36.5002 207.456 38.1002C207.523 39.6335 207.556 40.7002 207.556 41.3002C207.556 41.9002 207.523 42.8669 207.456 44.2002C207.39 45.4669 207.356 46.5669 207.356 47.5002C207.29 50.0335 207.223 52.1335 207.156 53.8002C207.156 55.4669 207.156 57.0669 207.156 58.6002C207.223 60.0669 207.256 61.8002 207.256 63.8002C207.39 69.0669 207.023 72.8002 206.156 75.0002C205.356 77.2669 204.19 78.5002 202.656 78.7002ZM182.456 41.3002C182.456 41.3002 183.123 41.2335 184.456 41.1002C185.79 40.9002 187.39 40.8335 189.256 40.9002C191.456 40.7002 193.256 40.6669 194.656 40.8002C196.056 40.8669 196.89 40.8335 197.156 40.7002C197.89 40.7669 198.39 40.4669 198.656 39.8002C198.923 39.1335 199.056 38.2669 199.056 37.2002C198.923 35.7335 198.79 33.9002 198.656 31.7002C198.59 29.4335 198.523 27.1669 198.456 24.9002C198.39 22.5669 198.39 20.5669 198.456 18.9002C198.456 17.6335 198.356 16.3669 198.156 15.1002C197.956 13.7669 197.856 13.1002 197.856 13.1002C197.723 12.9002 197.323 13.2335 196.656 14.1002C196.056 14.9002 195.356 15.9002 194.556 17.1002C193.756 18.3002 193.023 19.5002 192.356 20.7002C191.69 21.8335 191.19 22.6669 190.856 23.2002C190.59 23.5335 190.09 24.4002 189.356 25.8002C188.623 27.2002 187.79 28.7002 186.856 30.3002C184.39 34.2335 182.89 36.9669 182.356 38.5002C181.823 40.0335 181.856 40.9669 182.456 41.3002Z"
        fill="#F9C838" />
    <path class="bohatera-t"
        d="M227.054 73.9002C225.854 74.3002 224.754 74.3669 223.754 74.1002C222.754 73.8335 221.987 73.1002 221.454 71.9002C220.987 70.7669 220.854 69.1002 221.054 66.9002C221.321 64.6335 222.087 61.7669 223.354 58.3002C223.554 57.7002 223.954 56.5002 224.554 54.7002C225.221 52.8335 225.954 50.7669 226.754 48.5002C227.554 46.2335 228.321 44.1335 229.054 42.2002C229.854 40.2669 230.487 38.9335 230.954 38.2002C231.221 37.6002 231.354 37.1002 231.354 36.7002C231.421 36.3002 231.454 35.9669 231.454 35.7002C231.454 35.3669 231.587 34.9335 231.854 34.4002C232.187 33.8002 232.487 33.2002 232.754 32.6002C233.087 31.9335 233.354 31.3335 233.554 30.8002C233.821 30.2002 233.954 29.7002 233.954 29.3002C233.954 29.3002 234.121 28.7335 234.454 27.6002C234.787 26.4002 235.221 25.0335 235.754 23.5002C236.287 21.9669 236.887 20.7002 237.554 19.7002C238.154 18.1669 238.654 17.1002 239.054 16.5002C239.521 15.8335 239.754 15.3002 239.754 14.9002C239.754 14.7669 239.054 14.7002 237.654 14.7002C236.321 14.7002 234.721 14.7669 232.854 14.9002C230.987 14.9669 229.187 15.0669 227.454 15.2002C225.787 15.3335 224.587 15.5002 223.854 15.7002C223.254 15.8335 222.721 15.9669 222.254 16.1002C221.787 16.1669 221.487 16.1669 221.354 16.1002C221.087 15.9669 220.654 15.4669 220.054 14.6002C219.521 13.6669 219.121 12.6669 218.854 11.6002C218.654 10.5335 218.921 9.80019 219.654 9.4002C220.854 8.66686 222.054 8.20019 223.254 8.0002C224.521 7.8002 225.854 7.66686 227.254 7.6002C228.654 7.53353 230.187 7.4002 231.854 7.20019C233.387 7.20019 234.721 7.13353 235.854 7.00019C236.987 6.80019 237.687 6.7002 237.954 6.7002C238.621 6.7002 239.421 6.56686 240.354 6.30019C241.354 6.03353 242.487 5.90019 243.754 5.90019C244.621 5.90019 245.487 5.83353 246.354 5.7002C247.221 5.50019 247.987 5.40019 248.654 5.40019C248.987 5.40019 249.787 5.40019 251.054 5.40019C252.321 5.40019 253.587 5.40019 254.854 5.40019C255.787 5.40019 257.054 5.26686 258.654 5.00019C260.254 4.73353 261.554 4.46686 262.554 4.20019C265.621 3.53353 268.154 3.43353 270.154 3.9002C272.154 4.36686 273.387 5.50019 273.854 7.30019C274.121 8.76686 273.154 10.0335 270.954 11.1002C268.754 12.1669 264.687 12.8669 258.754 13.2002C255.887 13.4669 253.921 13.6669 252.854 13.8002C251.787 13.9335 251.254 14.3002 251.254 14.9002C251.254 15.3002 251.087 15.6669 250.754 16.0002C250.487 16.2669 250.221 16.5669 249.954 16.9002C249.687 17.0335 249.287 17.6002 248.754 18.6002C248.221 19.5335 247.687 20.6669 247.154 22.0002C246.687 23.2669 246.254 24.4335 245.854 25.5002C245.521 26.5669 245.354 27.2669 245.354 27.6002C245.354 27.6002 245.221 27.8335 244.954 28.3002C244.754 28.7002 244.654 29.0335 244.654 29.3002C244.387 29.9669 244.021 30.7335 243.554 31.6002C243.154 32.4669 242.787 33.2335 242.454 33.9002C241.454 36.5669 240.621 38.7002 239.954 40.3002C239.354 41.9002 238.854 43.1669 238.454 44.1002C238.121 44.9669 237.821 45.7335 237.554 46.4002C237.287 47.2669 236.854 48.7335 236.254 50.8002C235.654 52.8669 235.021 54.7002 234.354 56.3002C234.021 56.7669 233.721 57.1002 233.454 57.3002C233.254 57.4335 233.154 57.7669 233.154 58.3002C233.154 58.3669 232.954 58.9669 232.554 60.1002C232.221 61.1669 231.754 62.4669 231.154 64.0002C230.554 65.5335 229.954 67.0669 229.354 68.6002C228.821 70.0669 228.321 71.3002 227.854 72.3002C227.454 73.3669 227.187 73.9002 227.054 73.9002Z"
        fill="#F9C838" />
    <path class="bohatera-e"
        d="M276.502 74.2002C275.168 73.8669 273.535 73.3335 271.602 72.6002C269.668 71.8669 267.935 71.0669 266.402 70.2002C264.868 69.3335 264.002 68.6002 263.802 68.0002C263.802 67.6669 263.668 67.4002 263.402 67.2002C263.135 66.9335 262.835 66.8002 262.502 66.8002C262.502 66.8002 262.502 66.7669 262.502 66.7002C262.502 66.6335 262.502 66.4002 262.502 66.0002C262.502 65.7335 262.502 65.4669 262.502 65.2002C262.568 64.8669 262.435 64.6002 262.102 64.4002C261.635 63.4002 261.502 61.7669 261.702 59.5002C261.968 57.2335 262.402 54.8002 263.002 52.2002C263.668 49.5335 264.335 47.2335 265.002 45.3002C265.002 44.7002 265.102 44.1002 265.302 43.5002C265.568 42.9002 265.702 42.4335 265.702 42.1002C265.902 41.5002 266.268 40.6002 266.802 39.4002C267.335 38.1335 267.968 36.7669 268.702 35.3002C269.435 33.7669 270.168 32.3335 270.902 31.0002C271.635 29.6002 272.302 28.5335 272.902 27.8002C272.902 27.4669 273.135 27.0335 273.602 26.5002C274.068 25.9669 274.435 25.2335 274.702 24.3002C275.235 23.7669 275.902 22.8669 276.702 21.6002C277.568 20.3335 278.335 19.1669 279.002 18.1002C280.402 16.9669 281.268 15.9669 281.602 15.1002C281.935 14.1669 282.035 13.4335 281.902 12.9002C281.968 11.9002 282.268 11.1335 282.802 10.6002C283.335 10.0002 284.168 9.50019 285.302 9.10019C286.435 8.7002 287.868 8.30019 289.602 7.90019C291.735 7.10019 293.902 6.53353 296.102 6.2002C298.368 5.86686 301.235 5.66686 304.702 5.60019C305.768 5.33353 306.602 5.2002 307.202 5.2002C307.802 5.13353 308.102 5.10019 308.102 5.10019C308.235 4.96686 308.835 4.96686 309.902 5.10019C310.968 5.23353 312.168 5.53353 313.502 6.00019C314.835 6.40019 315.968 6.9002 316.902 7.5002C317.902 8.10019 318.368 8.80019 318.302 9.60019C318.302 10.0002 317.568 10.4669 316.102 11.0002C314.635 11.4669 312.935 11.9335 311.002 12.4002C309.068 12.8002 307.368 13.1002 305.902 13.3002C302.902 13.6335 300.402 13.9335 298.402 14.2002C296.402 14.4669 294.702 14.9002 293.302 15.5002C291.968 16.0335 290.702 16.9002 289.502 18.1002C288.368 19.3002 287.068 21.0335 285.602 23.3002C284.268 25.4335 283.302 27.1669 282.702 28.5002C282.102 29.7669 281.868 30.7002 282.002 31.3002C282.202 31.9002 282.668 32.2002 283.402 32.2002C284.202 32.2002 285.202 32.1335 286.402 32.0002C287.602 31.8002 288.402 31.7002 288.802 31.7002C288.802 31.7002 289.402 31.5002 290.602 31.1002C291.868 30.6335 293.435 30.2669 295.302 30.0002C297.435 29.6002 298.868 29.3002 299.602 29.1002C300.402 28.8335 301.168 28.6669 301.902 28.6002C304.168 28.4002 305.535 28.8002 306.002 29.8002C306.468 30.8002 306.268 31.9335 305.402 33.2002C304.602 34.4669 303.368 35.4335 301.702 36.1002C301.035 36.3669 300.202 36.6669 299.202 37.0002C298.202 37.3335 297.268 37.6335 296.402 37.9002C295.535 38.1002 294.968 38.2002 294.702 38.2002C294.702 38.2002 294.435 38.2669 293.902 38.4002C293.435 38.4669 292.768 38.5002 291.902 38.5002C291.702 38.5002 290.735 38.6335 289.002 38.9002C287.268 39.1002 285.635 39.3002 284.102 39.5002C281.768 40.1002 280.002 40.6002 278.802 41.0002C277.668 41.3335 276.835 41.8002 276.302 42.4002C275.768 43.0002 275.235 43.9669 274.702 45.3002C274.102 46.7669 273.568 48.4669 273.102 50.4002C272.635 52.2669 272.268 54.1335 272.002 56.0002C271.802 57.8669 271.735 59.5002 271.802 60.9002C271.935 62.2335 272.235 63.1335 272.702 63.6002C273.902 64.8669 275.502 65.6669 277.502 66.0002C279.502 66.2669 281.568 66.1335 283.702 65.6002C285.902 65.0669 287.802 64.3002 289.402 63.3002C289.935 62.9002 290.568 62.5002 291.302 62.1002C292.102 61.6335 292.868 61.2669 293.602 61.0002C294.468 60.4669 295.135 60.3002 295.602 60.5002C296.135 60.7002 297.035 61.2669 298.302 62.2002C299.435 63.8002 299.368 65.3335 298.102 66.8002C296.902 68.2002 294.435 69.7002 290.702 71.3002C287.235 72.5669 284.468 73.4002 282.402 73.8002C280.402 74.2002 278.435 74.3335 276.502 74.2002Z"
        fill="#F9C838" />
    <path class="bohatera-r"
        d="M318.766 76.0002C318.499 76.6669 317.599 77.0002 316.066 77.0002C314.532 77.0002 313.199 76.5669 312.066 75.7002C311.266 74.9002 310.732 74.2669 310.466 73.8002C310.266 73.4002 310.399 72.6669 310.866 71.6002C311.332 70.6002 312.132 68.8002 313.266 66.2002C313.532 64.6002 313.999 63.0002 314.666 61.4002C315.332 59.7335 315.832 58.5669 316.166 57.9002C316.432 56.9669 316.966 55.4335 317.766 53.3002C318.632 51.1002 319.599 48.6669 320.666 46.0002C321.799 43.3335 322.866 40.8335 323.866 38.5002C324.866 36.1002 325.599 34.3002 326.066 33.1002C327.199 30.4335 328.366 27.6335 329.566 24.7002C330.766 21.7669 332.399 18.0669 334.466 13.6002C334.732 12.9335 334.632 12.2335 334.166 11.5002C333.699 10.7669 332.899 10.4002 331.766 10.4002C331.099 9.66686 330.732 8.90019 330.666 8.10019C330.599 7.23353 330.932 6.63353 331.666 6.30019L340.866 3.20019C343.999 2.46686 347.199 2.26686 350.466 2.60019C353.799 2.86686 356.932 3.76686 359.866 5.3002C363.066 7.16686 365.399 9.23353 366.866 11.5002C368.332 13.7669 369.132 16.0669 369.266 18.4002C369.466 20.6669 369.199 22.7335 368.466 24.6002C367.932 26.0002 366.899 27.5335 365.366 29.2002C363.899 30.8669 362.166 32.5335 360.166 34.2002C358.232 35.8669 356.199 37.4002 354.066 38.8002C351.999 40.1335 350.066 41.1669 348.266 41.9002C346.599 42.7002 344.732 43.5335 342.666 44.4002C340.599 45.2002 338.599 45.9002 336.666 46.5002C335.599 46.7669 334.332 46.9002 332.866 46.9002C331.399 46.9002 330.299 46.7669 329.566 46.5002L327.866 49.7002C327.199 52.1002 326.032 55.6669 324.366 60.4002C322.766 65.1335 320.899 70.3335 318.766 76.0002ZM358.466 77.9002C357.932 78.1002 357.032 78.1669 355.766 78.1002C354.566 78.0335 353.199 77.5002 351.666 76.5002C348.732 74.7669 345.799 72.6669 342.866 70.2002C339.932 67.7335 336.632 64.4002 332.966 60.2002C331.566 58.5335 330.499 56.8669 329.766 55.2002C329.099 53.5335 328.232 51.4335 327.166 48.9002L325.766 43.5002L329.566 41.0002L333.966 44.6002C335.032 46.9335 336.266 49.1669 337.666 51.3002C339.132 53.4335 340.599 55.3335 342.066 57.0002C343.266 58.4002 344.899 60.1002 346.966 62.1002C349.032 64.0335 351.232 65.9002 353.566 67.7002C355.899 69.5002 357.999 70.8669 359.866 71.8002C360.266 72.1335 360.366 72.7669 360.166 73.7002C360.032 74.7002 359.766 75.6335 359.366 76.5002C359.032 77.3669 358.732 77.8335 358.466 77.9002ZM333.266 38.7002C334.799 38.5669 336.466 38.1669 338.266 37.5002C340.132 36.7669 342.099 35.9669 344.166 35.1002C346.099 34.1669 347.999 33.1669 349.866 32.1002C351.799 30.9669 353.532 29.7335 355.066 28.4002C356.666 27.0669 357.899 25.6335 358.766 24.1002C359.699 22.5669 360.099 20.9335 359.966 19.2002C359.966 18.3335 359.699 17.3669 359.166 16.3002C358.632 15.2335 357.932 14.2669 357.066 13.4002C356.266 12.5335 355.432 11.9669 354.566 11.7002C351.899 11.0335 349.866 10.6335 348.466 10.5002C347.066 10.3669 346.032 10.5669 345.366 11.1002C344.766 11.6335 344.299 12.5669 343.966 13.9002C343.966 14.1002 343.699 14.7335 343.166 15.8002C342.632 16.8669 341.966 18.2335 341.166 19.9002C340.432 21.5002 339.699 23.2335 338.966 25.1002C337.032 29.0335 335.599 31.9335 334.666 33.8002C333.799 35.6002 333.266 36.8002 333.066 37.4002C332.932 38.0002 332.999 38.4335 333.266 38.7002Z"
        fill="#F9C838" />
    <path class="bohatera-a2"
        d="M360.721 73.3002C359.521 72.6335 358.855 71.9002 358.721 71.1002C358.655 70.3002 359.121 68.9002 360.121 66.9002C361.121 64.9002 362.688 61.8002 364.821 57.6002C366.421 54.6002 367.488 52.2669 368.021 50.6002C368.621 48.8669 368.955 47.6335 369.021 46.9002C369.088 46.1669 369.121 45.7002 369.121 45.5002C368.988 44.9002 369.055 44.4335 369.321 44.1002C369.588 43.7002 370.021 43.3669 370.621 43.1002C370.955 42.7669 371.721 42.1669 372.921 41.3002C374.121 40.4335 375.055 39.4002 375.721 38.2002C376.321 36.8002 376.988 35.3669 377.721 33.9002C378.521 32.4335 379.555 30.6002 380.821 28.4002C382.088 26.1335 383.788 23.2002 385.921 19.6002C387.255 17.2669 388.821 14.6335 390.621 11.7002C392.488 8.76686 394.321 6.10019 396.121 3.70019C396.855 2.76686 397.621 2.03352 398.421 1.50019C399.221 0.96686 399.921 0.700195 400.521 0.700195C401.988 0.700195 403.455 1.10019 404.921 1.90019C406.388 2.63353 407.688 3.56686 408.821 4.70019C409.955 5.83353 410.721 6.90019 411.121 7.90019C411.455 8.43353 411.588 9.56686 411.521 11.3002C411.455 13.0335 411.321 15.1335 411.121 17.6002C410.921 20.0669 410.688 22.7002 410.421 25.5002C410.221 28.2335 409.921 31.4669 409.521 35.2002C409.121 38.9335 408.721 42.8335 408.321 46.9002C407.988 50.9669 407.721 54.9002 407.521 58.7002C407.321 62.4335 407.321 65.7002 407.521 68.5002C407.588 69.1002 407.588 69.6669 407.521 70.2002C407.455 70.7335 407.421 71.1669 407.421 71.5002C407.021 71.9002 406.155 72.0669 404.821 72.0002C403.488 72.0002 402.188 71.8002 400.921 71.4002C399.655 71.0002 398.955 70.5002 398.821 69.9002C398.621 69.7002 398.488 69.5335 398.421 69.4002C398.355 69.2669 398.355 68.6335 398.421 67.5002C398.488 66.3002 398.588 64.1335 398.721 61.0002L399.221 45.7002L397.921 45.8002C397.321 45.8002 396.221 45.8669 394.621 46.0002C393.088 46.1335 391.388 46.3335 389.521 46.6002C387.721 46.8002 386.055 47.0335 384.521 47.3002C382.988 47.5002 381.921 47.7002 381.321 47.9002C380.721 47.9002 379.988 48.3002 379.121 49.1002C378.321 49.9002 377.555 50.9335 376.821 52.2002C376.555 53.1335 376.055 54.1335 375.321 55.2002C374.655 56.2002 374.321 56.8669 374.321 57.2002C373.855 57.5335 373.455 57.9335 373.121 58.4002C372.855 58.8669 372.721 59.1002 372.721 59.1002C372.721 59.5002 372.421 60.5002 371.821 62.1002C371.221 63.6335 370.488 65.3669 369.621 67.3002C368.755 69.1669 367.855 70.8002 366.921 72.2002L364.221 76.0002L360.721 73.3002ZM384.621 38.9002C384.621 38.9002 384.988 38.8335 385.721 38.7002C386.455 38.5669 387.321 38.4335 388.321 38.3002C389.388 38.1002 390.321 38.0002 391.121 38.0002C392.655 37.6002 393.921 37.3002 394.921 37.1002C395.988 36.9002 396.855 36.8002 397.521 36.8002C398.188 36.7335 398.721 36.8002 399.121 37.0002C399.388 37.3335 399.621 37.5335 399.821 37.6002C400.088 37.6669 400.221 37.7002 400.221 37.7002C400.288 37.5669 400.421 36.8669 400.621 35.6002C400.821 34.3335 401.055 32.7669 401.321 30.9002C401.588 29.0335 401.855 27.1002 402.121 25.1002C402.388 23.0335 402.621 21.1335 402.821 19.4002C403.021 17.6002 403.155 16.2002 403.221 15.2002C403.288 13.9335 403.255 12.8002 403.121 11.8002C402.988 10.7335 402.921 10.2002 402.921 10.2002C402.521 10.2002 401.755 10.9335 400.621 12.4002C399.555 13.8002 398.288 15.7002 396.821 18.1002C395.421 20.4335 394.021 22.9669 392.621 25.7002C391.955 26.9669 391.321 27.9669 390.721 28.7002C390.188 29.4335 389.755 29.8002 389.421 29.8002C389.288 29.9335 388.921 30.4669 388.321 31.4002C387.788 32.2669 387.188 33.2669 386.521 34.4002C385.921 35.4669 385.388 36.4669 384.921 37.4002C384.521 38.2669 384.421 38.7669 384.621 38.9002Z"
        fill="#F9C838" />
</svg>