<svg xmlns="http://www.w3.org/2000/svg" viewBox="0 0 603.093 640" version="1.1" id="svg958"><g id="layer1" transform="translate(-197.986 23.598)"><g id="g1021" transform="matrix(3.8021 0 0 3.8021 -554.777 66.125)"><path id="polygon8" style="fill:#46178f;fill-opacity:1" transform="matrix(1.21976 0 0 1.21977 -31.33 14.161)" d="M260.9 93 242 24.9l28.5-31.3-20.1-7.7-39.2 37.4v-46.7L188-17.5V92.2l23.2.8-.2-38.4 14.3-13.8L240.4 93Z" class="st0"/><path id="polygon12" style="fill:#46178f;fill-opacity:1" transform="matrix(1.21976 0 0 1.21977 -409.405 14.214)" d="m609.7 107 12-7.1-5.1-14.7h-13.4l-5.7 13.4z" class="st0"/><path id="polygon16" style="fill:#46178f;fill-opacity:1" transform="matrix(1.21976 0 0 1.21977 -409.405 14.214)" d="m587-31 25.2 108.5L628-23.2Z" class="st0"/></g></g></svg>