<svg xmlns="http://www.w3.org/2000/svg" width="149" height="36" viewBox="0 0 149 36" fill="none">
  <path d="M17.2104 0C20.1268 0 21.5619 1.33921 22.4215 3.39412L34.3728 32.4618H28.0624L25.3378 25.5297H8.98704L6.26252 32.4618H0L11.9532 3.44208C12.8128 1.3392 14.2461 0 17.2104 0ZM23.5688 21.0362L17.88 6.50232C17.6402 5.9766 17.3543 5.88068 17.2104 5.88068C17.0186 5.88068 16.7326 5.9766 16.4928 6.50232L10.756 21.0362H23.5688Z" fill="black"/>
  <path d="M66.9338 10.756C66.9338 18.0718 63.0582 21.6578 55.2093 21.6578H43.435V32.4618H37.8145V0H55.2093C63.0582 0 66.9338 3.58597 66.9338 10.756ZM54.9179 17.1514C58.9392 17.1514 60.9738 15.019 60.9738 10.756C60.9738 6.63698 58.9392 4.55439 54.9179 4.55439H43.435V17.1514H54.9179Z" fill="black"/>
  <path id="star" d="M59.7246 28.8004C65.264 27.9408 65.9613 27.2417 66.8209 21.7041C67.6805 27.2435 68.3796 27.9408 73.9172 28.8004C68.3778 29.66 67.6805 30.3591 66.8209 35.8967C65.9613 30.3573 65.264 29.66 59.7246 28.8004Z" fill="#924DFF"/>
  <path d="M84.0124 20.9739C83.5125 20.889 83.0274 20.7562 82.5551 20.5736C82.0829 20.391 81.6291 20.1623 81.1938 19.8874C80.7566 19.6126 80.3563 19.2861 79.9893 18.9061L81.0868 17.6185C81.369 17.9284 81.6789 18.1996 82.0165 18.432C82.3541 18.6644 82.7193 18.8581 83.1141 19.0131C83.507 19.168 83.9128 19.2842 84.3278 19.3617C84.7429 19.4392 85.1616 19.4779 85.584 19.4779C86.0913 19.4779 86.5525 19.4244 86.9675 19.3193C87.3825 19.2141 87.7385 19.0555 88.0337 18.8434C88.3288 18.6331 88.5576 18.3785 88.7199 18.0834C88.8822 17.7882 88.9634 17.4507 88.9634 17.0688C88.9634 16.604 88.8546 16.2166 88.635 15.9067C88.4174 15.5968 88.1278 15.3293 87.7699 15.1043C87.4102 14.8792 86.9952 14.6892 86.5248 14.5343C86.0526 14.3793 85.5637 14.2244 85.0565 14.0694C84.4938 13.8997 83.9331 13.7097 83.3778 13.4995C82.8208 13.2892 82.3227 13.0235 81.8782 12.7081C81.4354 12.3908 81.0757 12.0053 80.8009 11.546C80.526 11.0885 80.3895 10.5222 80.3895 9.84524C80.3895 9.18302 80.5224 8.60749 80.7917 8.11313C81.0591 7.62062 81.4152 7.20927 81.8579 6.87723C82.3006 6.54705 82.8189 6.29986 83.4092 6.13754C84.0013 5.97521 84.6137 5.89404 85.2465 5.89404C86.2038 5.89404 87.1224 6.06375 88.0023 6.40132C88.8822 6.73888 89.6035 7.20373 90.1661 7.79586L89.0685 9.02069C88.6037 8.52818 88.0189 8.16294 87.3161 7.92314C86.6115 7.68333 85.9087 7.56343 85.204 7.56343C84.7244 7.56343 84.2965 7.61693 83.9165 7.72207C83.5365 7.82722 83.2118 7.97479 82.9444 8.16478C82.6769 8.35478 82.4721 8.5872 82.3319 8.86205C82.1917 9.1369 82.1216 9.43573 82.1216 9.76039C82.1216 10.1551 82.2194 10.489 82.4168 10.7639C82.6142 11.0387 82.8853 11.2804 83.2303 11.4925C83.5752 11.7028 83.9737 11.8873 84.4237 12.0422C84.8738 12.1971 85.3534 12.3521 85.8589 12.507C86.4215 12.6768 86.9915 12.8704 87.5688 13.0881C88.1462 13.3058 88.6701 13.5806 89.1423 13.9108C89.6145 14.241 89.9982 14.6468 90.2934 15.1246C90.5885 15.6042 90.7361 16.2018 90.7361 16.9194C90.7361 17.6093 90.5922 18.218 90.3026 18.7456C90.013 19.2731 89.6274 19.7103 89.1405 20.0553C88.6535 20.4002 88.0946 20.6603 87.4619 20.8374C86.8291 21.0145 86.1688 21.1012 85.4789 21.1012C84.9993 21.1012 84.5104 21.0588 84.0124 20.9739Z" fill="black"/>
  <path d="M96.0177 20.6162C95.3426 20.3488 94.7652 19.9725 94.2856 19.4873C93.806 19.0022 93.4334 18.4174 93.1659 17.7349C92.8984 17.0524 92.7656 16.2961 92.7656 15.4642V15.3369C92.7656 14.5068 92.8984 13.7524 93.1659 13.0772C93.4334 12.4021 93.8097 11.8173 94.2948 11.3248C94.78 10.8323 95.3573 10.4523 96.0269 10.1848C96.6947 9.91737 97.4233 9.78271 98.2128 9.78271H98.318C99.4155 9.78271 100.356 10.0354 101.137 10.5427C101.919 11.05 102.513 11.7048 102.92 12.5072L101.59 13.2469C101.295 12.6548 100.862 12.1844 100.292 11.8321C99.7217 11.4798 99.0355 11.3045 98.2331 11.3045H98.211C97.6336 11.3045 97.1097 11.3986 96.6375 11.5886C96.1653 11.7786 95.765 12.0461 95.433 12.391C95.1028 12.736 94.8482 13.1584 94.673 13.6583C94.4959 14.1582 94.4092 14.7171 94.4092 15.3369V15.4642C94.4092 16.0692 94.507 16.6226 94.7043 17.1225C94.9017 17.6224 95.1729 18.0485 95.5178 18.4008C95.8628 18.7531 96.2778 19.0243 96.7629 19.2143C97.2481 19.4043 97.7793 19.5002 98.3567 19.5002H98.3788C99.2089 19.5002 99.8988 19.3176 100.449 18.9505C100.998 18.5853 101.413 18.1407 101.694 17.6205L102.981 18.4027C102.531 19.1774 101.915 19.8064 101.133 20.2934C100.351 20.7804 99.4247 21.022 98.3567 21.022H98.2294C97.4325 21.0165 96.6928 20.8837 96.0177 20.6162Z" fill="black"/>
  <path d="M105.581 5.68555H107.143V11.4924C107.636 10.9427 108.234 10.5148 108.938 10.2049C109.641 9.89499 110.416 9.74005 111.261 9.74005C112.528 9.74005 113.493 10.0887 114.153 10.7859C114.815 11.4832 115.145 12.507 115.145 13.8591V20.8908H113.583V14.134C113.583 13.1913 113.354 12.483 112.897 12.0126C112.439 11.5404 111.746 11.3061 110.816 11.3061C110.266 11.3061 109.766 11.3873 109.316 11.5496C108.866 11.712 108.479 11.9407 108.154 12.2358C107.83 12.531 107.581 12.8907 107.405 13.3131C107.228 13.7355 107.142 14.2004 107.142 14.7076V20.8945H105.579V5.68555H105.581Z" fill="black"/>
  <path d="M121.292 20.6053C120.617 20.3304 120.036 19.9504 119.551 19.4653C119.065 18.9802 118.687 18.3954 118.422 17.7129C118.154 17.0304 118.02 16.2815 118.02 15.4643V15.337C118.02 14.5217 118.152 13.7709 118.422 13.0884C118.689 12.4059 119.065 11.8211 119.551 11.336C120.036 10.8509 120.617 10.4709 121.292 10.196C121.967 9.92117 122.707 9.78467 123.509 9.78467H123.614C124.417 9.78467 125.156 9.92117 125.832 10.196C126.507 10.4709 127.088 10.8509 127.575 11.336C128.06 11.8211 128.436 12.4059 128.704 13.0884C128.971 13.7709 129.104 14.5217 129.104 15.337V15.4643C129.104 16.2815 128.969 17.0304 128.704 17.7129C128.436 18.3954 128.06 18.9802 127.575 19.4653C127.09 19.9504 126.509 20.3304 125.832 20.6053C125.156 20.8801 124.417 21.0166 123.614 21.0166H123.509C122.707 21.0166 121.969 20.8801 121.292 20.6053ZM123.574 19.4745C124.151 19.4745 124.679 19.3767 125.158 19.1794C125.636 18.982 126.046 18.7071 126.383 18.3567C126.721 18.0043 126.984 17.5819 127.174 17.0894C127.364 16.5969 127.459 16.0546 127.459 15.4643V15.337C127.459 14.7449 127.364 14.2044 127.174 13.7119C126.984 13.2194 126.721 12.797 126.383 12.4446C126.046 12.0923 125.636 11.8193 125.158 11.6219C124.679 11.4245 124.151 11.3268 123.574 11.3268H123.553C122.976 11.3268 122.448 11.4264 121.969 11.6219C121.489 11.8193 121.082 12.0941 120.744 12.4446C120.406 12.797 120.143 13.2194 119.953 13.7119C119.763 14.2044 119.669 14.7467 119.669 15.337V15.4643C119.669 16.0564 119.765 16.5969 119.953 17.0894C120.143 17.5819 120.406 18.0043 120.744 18.3567C121.082 18.709 121.489 18.9838 121.969 19.1794C122.447 19.3767 122.976 19.4745 123.553 19.4745H123.574Z" fill="black"/>
  <path d="M134.745 20.6053C134.07 20.3304 133.489 19.9504 133.002 19.4653C132.515 18.9802 132.139 18.3954 131.873 17.7129C131.605 17.0304 131.473 16.2815 131.473 15.4643V15.337C131.473 14.5217 131.605 13.7709 131.873 13.0884C132.14 12.4059 132.517 11.8211 133.002 11.336C133.487 10.8509 134.068 10.4709 134.745 10.196C135.42 9.92117 136.16 9.78467 136.962 9.78467H137.067C137.87 9.78467 138.61 9.92117 139.285 10.196C139.96 10.4709 140.541 10.8509 141.026 11.336C141.511 11.8211 141.887 12.4059 142.155 13.0884C142.422 13.7709 142.557 14.5217 142.557 15.337V15.4643C142.557 16.2815 142.422 17.0304 142.155 17.7129C141.887 18.3954 141.511 18.9802 141.026 19.4653C140.541 19.9504 139.96 20.3304 139.285 20.6053C138.61 20.8801 137.87 21.0166 137.067 21.0166H136.962C136.16 21.0166 135.42 20.8801 134.745 20.6053ZM137.025 19.4745C137.602 19.4745 138.13 19.3767 138.61 19.1794C139.087 18.982 139.497 18.7071 139.834 18.3567C140.172 18.0043 140.436 17.5819 140.626 17.0894C140.816 16.5969 140.91 16.0546 140.91 15.4643V15.337C140.91 14.7449 140.814 14.2044 140.626 13.7119C140.436 13.2194 140.172 12.797 139.834 12.4446C139.497 12.0923 139.087 11.8193 138.61 11.6219C138.13 11.4245 137.602 11.3268 137.025 11.3268H137.003C136.425 11.3268 135.898 11.4264 135.418 11.6219C134.939 11.8193 134.531 12.0941 134.193 12.4446C133.856 12.797 133.592 13.2194 133.402 13.7119C133.212 14.2044 133.116 14.7467 133.116 15.337V15.4643C133.116 16.0564 133.212 16.5969 133.402 17.0894C133.592 17.5819 133.856 18.0043 134.193 18.3567C134.531 18.709 134.939 18.9838 135.418 19.1794C135.896 19.3767 136.425 19.4745 137.003 19.4745H137.025Z" fill="black"/>
  <path d="M145.917 20.3301C145.592 19.9298 145.432 19.3211 145.432 18.5039V5.68555H146.994V18.1866C146.994 18.7068 147.075 19.0517 147.238 19.2214C147.4 19.3912 147.621 19.4742 147.903 19.4742C148.058 19.4742 148.23 19.4631 148.42 19.4428C148.61 19.4225 148.804 19.3838 149.001 19.3266V20.699C148.761 20.7691 148.501 20.8263 148.219 20.8687C147.937 20.9111 147.669 20.9314 147.416 20.9314C146.739 20.9314 146.24 20.7322 145.917 20.3301Z" fill="black"/>
</svg>