<svg width="263" height="52" viewBox="0 0 263 52" fill="none" xmlns="http://www.w3.org/2000/svg">
<path d="M117.981 46.099C117.569 45.8678 117.218 45.533 116.928 45.0919L117.513 44.7119C117.789 45.0839 118.076 45.3523 118.371 45.5224C118.666 45.6924 119.014 45.7748 119.416 45.7748C119.628 45.7748 119.822 45.7482 119.995 45.6951C120.168 45.6419 120.316 45.5675 120.441 45.4692C120.566 45.3709 120.662 45.254 120.734 45.1158C120.805 44.9777 120.84 44.8262 120.84 44.6614V44.6269C120.84 44.4568 120.808 44.3054 120.741 44.1725C120.678 44.0397 120.582 43.9254 120.46 43.8324C120.335 43.7394 120.189 43.665 120.019 43.6145C119.849 43.564 119.657 43.5401 119.445 43.5401H118.605V42.8679H119.259C119.453 42.8679 119.631 42.844 119.79 42.7961C119.95 42.7483 120.085 42.6792 120.197 42.5889C120.308 42.4985 120.393 42.3869 120.455 42.2567C120.513 42.1265 120.542 41.983 120.542 41.8236V41.7891C120.542 41.6429 120.51 41.5074 120.449 41.3878C120.388 41.2683 120.3 41.162 120.189 41.0743C120.077 40.9866 119.942 40.9175 119.782 40.8697C119.623 40.8219 119.45 40.798 119.261 40.798C118.927 40.798 118.629 40.875 118.374 41.0291C118.119 41.1832 117.906 41.4091 117.742 41.7094L117.141 41.3294C117.393 40.9414 117.707 40.6385 118.079 40.4286C118.451 40.2187 118.863 40.1097 119.317 40.1097C119.599 40.1097 119.862 40.1496 120.104 40.2293C120.346 40.309 120.553 40.4206 120.728 40.5615C120.901 40.7023 121.039 40.8723 121.14 41.0663C121.241 41.2603 121.292 41.4729 121.292 41.704V41.7386C121.292 42.0229 121.228 42.278 121.098 42.5092C120.967 42.7403 120.773 42.9343 120.513 43.0937C120.861 43.2399 121.127 43.4498 121.313 43.7208C121.499 43.9919 121.592 44.3107 121.592 44.6747V44.7013C121.592 44.9484 121.533 45.1796 121.419 45.3948C121.305 45.6101 121.148 45.7961 120.951 45.9528C120.755 46.1096 120.524 46.2318 120.258 46.3195C119.992 46.4072 119.708 46.4524 119.4 46.4524C118.86 46.4444 118.393 46.3301 117.981 46.099Z" fill="white"/>
<path d="M122.888 41.7758H123.542V43.6783H126.141V41.7758H126.794V46.3753H126.141V44.2974H123.542V46.3753H122.888V41.7758Z" fill="white"/>
<path d="M129.234 46.2185C128.984 46.091 128.771 45.9236 128.601 45.7137C128.431 45.5038 128.301 45.2646 128.213 44.9963C128.126 44.7279 128.081 44.4515 128.081 44.1699V44.1247C128.081 43.8191 128.128 43.5215 128.227 43.2319C128.325 42.9423 128.471 42.6845 128.668 42.4587C128.864 42.2328 129.114 42.0495 129.414 41.9139C129.715 41.7784 130.071 41.7094 130.485 41.7094H130.53C130.69 41.7094 130.847 41.7226 131.003 41.7492C131.16 41.7758 131.317 41.8183 131.476 41.8741C131.636 41.9299 131.798 41.999 131.963 42.0813C132.127 42.1637 132.295 42.2647 132.468 42.3816V46.37H131.955C131.912 46.277 131.88 46.1521 131.854 46.0033C131.827 45.8518 131.814 45.7243 131.814 45.618V45.5038C131.721 45.6526 131.612 45.7801 131.492 45.8917C131.37 46.0033 131.24 46.099 131.099 46.1734C130.958 46.2504 130.807 46.3089 130.645 46.3461C130.483 46.3833 130.313 46.4045 130.137 46.4045H130.111C129.773 46.4099 129.484 46.3461 129.234 46.2185ZM130.193 45.7535C130.406 45.7535 130.61 45.7137 130.807 45.634C131.003 45.5542 131.176 45.4347 131.325 45.2752C131.471 45.1158 131.591 44.9218 131.678 44.6907C131.766 44.4595 131.811 44.1964 131.811 43.8935V42.7961C131.641 42.642 131.447 42.5304 131.232 42.4613C131.017 42.3896 130.799 42.355 130.581 42.355H130.536C130.23 42.355 129.964 42.4055 129.744 42.5065C129.523 42.6075 129.34 42.7377 129.197 42.8998C129.053 43.0618 128.944 43.2478 128.875 43.4604C128.803 43.673 128.769 43.8909 128.769 44.1141V44.1592C128.769 44.425 128.806 44.6588 128.883 44.8581C128.96 45.0574 129.064 45.2248 129.194 45.3576C129.324 45.4905 129.47 45.5888 129.635 45.6526C129.8 45.7163 129.97 45.7509 130.148 45.7509H130.193V45.7535Z" fill="white"/>
<path d="M134.011 41.7758H134.665V43.6783H137.263V41.7758H137.917V46.3753H137.263V44.2974H134.665V46.3753H134.011V41.7758Z" fill="white"/>
<path d="M139.511 41.7758H140.165V43.6783H142.764V41.7758H143.417V46.3753H142.764V44.2974H140.165V46.3753H139.511V41.7758Z" fill="white"/>
<path d="M146.401 44.5153L145.304 46.3726H144.56L145.745 44.3904L146.401 44.5153ZM145.817 44.5525C145.498 44.4595 145.243 44.3 145.046 44.0742C144.852 43.851 144.754 43.5826 144.754 43.2691V43.1362C144.754 42.9422 144.794 42.7616 144.874 42.5915C144.953 42.4241 145.065 42.278 145.206 42.1584C145.347 42.0388 145.514 41.9432 145.711 41.8767C145.905 41.8103 146.117 41.7758 146.348 41.7758H148.365V46.3753H147.711V44.6322H146.2L145.817 44.5525ZM147.709 44.0131V42.3949H146.285C146.168 42.3949 146.056 42.4135 145.952 42.4533C145.849 42.4905 145.761 42.5437 145.687 42.6128C145.612 42.6818 145.554 42.7616 145.509 42.8519C145.463 42.9422 145.442 43.0459 145.442 43.1575V43.2558C145.442 43.3674 145.463 43.4684 145.509 43.5614C145.554 43.6517 145.612 43.7314 145.687 43.8005C145.761 43.8696 145.849 43.9201 145.952 43.9599C146.056 43.9998 146.165 44.0184 146.285 44.0184H147.709V44.0131Z" fill="white"/>
<path d="M149.736 45.4639H150.587L149.835 47.462H149.269L149.736 45.4639Z" fill="white"/>
<path d="M160.206 46.3726C160.176 46.3089 160.15 46.2265 160.131 46.1255C160.113 46.0245 160.094 45.9289 160.084 45.8332C159.913 46.0219 159.706 46.1707 159.464 46.2796C159.223 46.3886 158.96 46.4444 158.678 46.4444H158.651C158.298 46.4444 158.008 46.3806 157.78 46.2504C157.554 46.1202 157.386 45.9236 157.28 45.6579C157.11 45.905 156.892 46.0989 156.627 46.2371C156.361 46.3753 156.063 46.4444 155.734 46.4444H155.707C155.205 46.4444 154.833 46.3062 154.583 46.0299C154.336 45.7535 154.211 45.347 154.211 44.8102V41.7758H154.865V44.7039C154.865 44.882 154.883 45.0361 154.923 45.1716C154.96 45.3071 155.022 45.4214 155.101 45.5117C155.181 45.6021 155.282 45.6711 155.407 45.719C155.532 45.7668 155.675 45.7907 155.84 45.7907H155.867C156.055 45.7907 156.228 45.7641 156.385 45.7057C156.542 45.6499 156.674 45.5675 156.786 45.4586C156.898 45.3496 156.985 45.2141 157.046 45.0573C157.107 44.9006 157.139 44.7119 157.139 44.4993V41.7758H157.793V44.7039C157.793 44.882 157.812 45.0361 157.851 45.1716C157.889 45.3071 157.95 45.4214 158.03 45.5117C158.109 45.6021 158.213 45.6711 158.34 45.719C158.468 45.7668 158.617 45.7907 158.787 45.7907H158.813C159.002 45.7907 159.172 45.7641 159.326 45.7057C159.48 45.6499 159.613 45.5675 159.725 45.4586C159.836 45.3496 159.921 45.2141 159.983 45.0573C160.041 44.8979 160.07 44.7119 160.07 44.4993V41.7758H160.724V45.7562H161.324V47.5072H160.687V46.3753H160.206V46.3726Z" fill="white"/>
<path d="M163.274 46.2531C162.99 46.1388 162.748 45.9794 162.544 45.7748C162.339 45.5702 162.182 45.3258 162.071 45.0414C161.959 44.7545 161.903 44.4409 161.903 44.1008V44.0477C161.903 43.7049 161.959 43.3914 162.071 43.107C162.182 42.8201 162.342 42.5756 162.544 42.3737C162.748 42.1691 162.99 42.0123 163.274 41.8954C163.556 41.7811 163.867 41.7227 164.202 41.7227H164.247C164.582 41.7227 164.893 41.7811 165.174 41.8954C165.456 42.0096 165.7 42.1691 165.905 42.3737C166.11 42.5783 166.266 42.8227 166.378 43.107C166.49 43.394 166.545 43.7076 166.545 44.0477V44.1008C166.545 44.4436 166.49 44.7571 166.378 45.0414C166.266 45.3284 166.11 45.5729 165.905 45.7748C165.7 45.9794 165.459 46.1362 165.174 46.2531C164.89 46.37 164.582 46.4258 164.247 46.4258H164.202C163.867 46.4258 163.556 46.37 163.274 46.2531ZM164.228 45.7801C164.47 45.7801 164.691 45.7403 164.893 45.6552C165.092 45.5729 165.265 45.4586 165.405 45.3098C165.546 45.1637 165.658 44.9856 165.738 44.7784C165.817 44.5711 165.857 44.3453 165.857 44.0982V44.045C165.857 43.7979 165.817 43.5694 165.738 43.3648C165.658 43.1575 165.546 42.9821 165.405 42.8333C165.265 42.6872 165.092 42.5703 164.893 42.4879C164.693 42.4055 164.47 42.363 164.228 42.363H164.22C163.979 42.363 163.758 42.4055 163.556 42.4879C163.357 42.5703 163.184 42.6845 163.043 42.8333C162.902 42.9821 162.791 43.1575 162.711 43.3648C162.631 43.572 162.592 43.7979 162.592 44.045V44.0982C162.592 44.3453 162.631 44.5738 162.711 44.7784C162.791 44.9856 162.902 45.161 163.043 45.3098C163.184 45.456 163.357 45.5729 163.556 45.6552C163.755 45.7376 163.979 45.7801 164.22 45.7801H164.228Z" fill="white"/>
<path d="M170.667 46.1708C170.295 46.0007 170.011 45.7377 169.809 45.3843L170.348 45.0495C170.489 45.286 170.677 45.4693 170.909 45.5968C171.142 45.727 171.429 45.7908 171.772 45.7908H171.825C172.144 45.7908 172.399 45.7244 172.596 45.5915C172.79 45.4587 172.888 45.2886 172.888 45.084V45.0388C172.888 44.8156 172.801 44.6403 172.623 44.518C172.444 44.3932 172.197 44.332 171.879 44.332H171.092V43.7315H171.905C172.147 43.7315 172.341 43.6677 172.484 43.5402C172.628 43.4126 172.702 43.2559 172.702 43.0672V43.0221C172.702 42.8334 172.62 42.6766 172.458 42.5544C172.296 42.4295 172.072 42.3684 171.791 42.3684H171.746C171.427 42.3684 171.164 42.4322 170.954 42.5597C170.744 42.6873 170.584 42.8679 170.473 43.1044L169.899 42.7696C170.069 42.4508 170.313 42.1983 170.632 42.0097C170.951 41.821 171.326 41.728 171.756 41.728H171.817C172.035 41.728 172.24 41.7572 172.431 41.8157C172.623 41.8742 172.79 41.9565 172.931 42.0628C173.072 42.1691 173.183 42.2967 173.263 42.4428C173.343 42.5916 173.382 42.7537 173.382 42.9291V43.0433C173.382 43.232 173.332 43.402 173.228 43.5562C173.125 43.7103 172.979 43.8458 172.79 43.9627C173.037 44.0504 173.231 44.1992 173.369 44.4038C173.507 44.611 173.576 44.8263 173.576 45.0495V45.1212C173.576 45.3099 173.534 45.4826 173.452 45.642C173.369 45.8014 173.255 45.9396 173.111 46.0565C172.968 46.1734 172.795 46.2664 172.599 46.3302C172.402 46.394 172.187 46.4285 171.958 46.4285H171.879C171.443 46.4259 171.039 46.3408 170.667 46.1708Z" fill="white"/>
<path d="M174.682 41.7758H175.282L177.025 44.8368H177.113L178.856 41.7758H179.457V46.3753H178.803V43.1654H178.715L177.363 45.5808H176.778L175.426 43.1761H175.338V46.378H174.685V41.7758H174.682Z" fill="white"/>
<path d="M181.067 40.9095C180.984 40.8271 180.942 40.7235 180.942 40.5986C180.942 40.4737 180.984 40.37 181.067 40.285C181.149 40.2 181.253 40.1575 181.375 40.1575C181.497 40.1575 181.604 40.2 181.689 40.285C181.774 40.37 181.816 40.4763 181.816 40.5986C181.816 40.7208 181.774 40.8244 181.689 40.9095C181.604 40.9918 181.497 41.0343 181.375 41.0343C181.253 41.0343 181.149 40.9918 181.067 40.9095ZM181.048 41.7757H181.702V46.3752H181.048V41.7757Z" fill="white"/>
<path d="M183.293 41.7758H183.947V43.6783H186.546V41.7758H187.199V46.3753H186.546V44.2974H183.947V46.3753H183.293V41.7758Z" fill="white"/>
<path d="M191.616 46.2664C191.363 46.1601 191.14 46.014 190.952 45.8253C190.763 45.6366 190.614 45.4134 190.505 45.153C190.396 44.8926 190.335 44.6083 190.324 44.2948H189.413V46.3727H188.794V41.7731H189.413V43.6757H190.34C190.37 43.386 190.444 43.123 190.561 42.8838C190.678 42.6447 190.829 42.4401 191.013 42.2647C191.196 42.092 191.409 41.9565 191.653 41.8635C191.898 41.7705 192.161 41.7227 192.445 41.7227H192.49C192.796 41.7227 193.08 41.7785 193.338 41.8901C193.598 42.0017 193.821 42.1558 194.01 42.3551C194.199 42.5517 194.345 42.7882 194.451 43.0619C194.557 43.3355 194.61 43.6358 194.61 43.96V44.1911C194.61 44.5153 194.557 44.8156 194.451 45.0893C194.345 45.363 194.199 45.5995 194.01 45.7961C193.821 45.9927 193.598 46.1495 193.338 46.2611C193.077 46.3727 192.796 46.4285 192.49 46.4285H192.445C192.147 46.4258 191.871 46.3727 191.616 46.2664ZM192.474 45.7722C192.687 45.7722 192.881 45.735 193.059 45.6579C193.237 45.5808 193.388 45.4719 193.513 45.3311C193.641 45.1902 193.739 45.0228 193.813 44.8262C193.888 44.6322 193.925 44.4197 193.925 44.1885V43.9573C193.925 43.7261 193.888 43.5162 193.813 43.3196C193.739 43.1256 193.641 42.9582 193.513 42.8147C193.386 42.6713 193.234 42.565 193.059 42.4879C192.881 42.4109 192.687 42.3737 192.474 42.3737H192.466C192.254 42.3737 192.06 42.4109 191.882 42.4879C191.704 42.565 191.552 42.6739 191.427 42.8147C191.3 42.9556 191.201 43.1256 191.127 43.3196C191.053 43.5136 191.015 43.7261 191.015 43.9573V44.1885C191.015 44.4197 191.053 44.6296 191.127 44.8262C191.201 45.0202 191.3 45.1876 191.427 45.3311C191.555 45.4719 191.706 45.5808 191.882 45.6579C192.06 45.735 192.254 45.7722 192.466 45.7722H192.474Z" fill="white"/>
<path d="M198.726 46.2664C198.474 46.1601 198.251 46.014 198.062 45.8253C197.873 45.6366 197.725 45.4134 197.616 45.153C197.507 44.8926 197.446 44.6083 197.435 44.2948H196.524V46.3727H195.905V41.7731H196.524V43.6757H197.451C197.48 43.386 197.555 43.123 197.672 42.8838C197.788 42.6447 197.94 42.4401 198.123 42.2647C198.307 42.092 198.519 41.9565 198.764 41.8635C199.008 41.7705 199.271 41.7227 199.555 41.7227H199.601C199.906 41.7227 200.191 41.7785 200.448 41.8901C200.709 42.0017 200.932 42.1558 201.121 42.3551C201.309 42.5517 201.455 42.7882 201.562 43.0619C201.668 43.3355 201.721 43.6358 201.721 43.96V44.1911C201.721 44.5153 201.668 44.8156 201.562 45.0893C201.455 45.363 201.309 45.5995 201.121 45.7961C200.932 45.9927 200.709 46.1495 200.448 46.2611C200.188 46.3727 199.906 46.4285 199.601 46.4285H199.555C199.258 46.4258 198.979 46.3727 198.726 46.2664ZM199.585 45.7722C199.797 45.7722 199.991 45.735 200.169 45.6579C200.347 45.5808 200.499 45.4719 200.624 45.3311C200.751 45.1902 200.849 45.0228 200.924 44.8262C200.998 44.6322 201.036 44.4197 201.036 44.1885V43.9573C201.036 43.7261 200.998 43.5162 200.924 43.3196C200.849 43.1256 200.751 42.9582 200.624 42.8147C200.496 42.6713 200.345 42.565 200.169 42.4879C199.991 42.4109 199.797 42.3737 199.585 42.3737H199.577C199.364 42.3737 199.17 42.4109 198.992 42.4879C198.814 42.565 198.663 42.6739 198.538 42.8147C198.41 42.9556 198.312 43.1256 198.238 43.3196C198.163 43.5136 198.126 43.7261 198.126 43.9573V44.1885C198.126 44.4197 198.163 44.6296 198.238 44.8262C198.312 45.0202 198.41 45.1876 198.538 45.3311C198.665 45.4719 198.817 45.5808 198.992 45.6579C199.17 45.735 199.364 45.7722 199.577 45.7722H199.585Z" fill="white"/>
<path d="M203.015 41.7757H203.528C203.557 41.8395 203.581 41.9245 203.602 42.0228C203.624 42.1238 203.64 42.2195 203.65 42.3151C203.82 42.1265 204.027 41.9777 204.269 41.8687C204.511 41.7598 204.774 41.704 205.056 41.704H205.082C205.436 41.704 205.725 41.7677 205.954 41.8979C206.18 42.0281 206.347 42.2248 206.453 42.4905C206.624 42.2434 206.841 42.0494 207.107 41.9112C207.373 41.7731 207.67 41.704 208 41.704H208.027C208.529 41.704 208.901 41.8422 209.15 42.1185C209.398 42.3948 209.522 42.8014 209.522 43.3381V46.3726H208.869V43.4444C208.869 43.2664 208.85 43.1123 208.81 42.9768C208.773 42.8412 208.712 42.727 208.632 42.6366C208.553 42.5463 208.452 42.4772 208.332 42.4294C208.21 42.3815 208.066 42.3576 207.894 42.3576H207.867C207.678 42.3576 207.506 42.3869 207.349 42.4427C207.192 42.4985 207.059 42.5808 206.948 42.6898C206.836 42.7987 206.748 42.9343 206.687 43.091C206.626 43.2505 206.594 43.4364 206.594 43.649V46.3726H205.941V43.4444C205.941 43.2664 205.922 43.1123 205.882 42.9768C205.845 42.8412 205.784 42.727 205.704 42.6366C205.624 42.5463 205.521 42.4772 205.393 42.4294C205.266 42.3815 205.117 42.3576 204.947 42.3576H204.92C204.732 42.3576 204.562 42.3869 204.407 42.4427C204.253 42.4985 204.12 42.5808 204.009 42.6898C203.897 42.7987 203.812 42.9343 203.754 43.091C203.695 43.2505 203.666 43.4364 203.666 43.649V46.3726H203.012V41.7757H203.015Z" fill="white"/>
<path d="M211.026 41.7758H211.68V43.386H212.979C213.21 43.386 213.423 43.4205 213.62 43.4923C213.816 43.564 213.989 43.6623 214.132 43.7872C214.276 43.9148 214.39 44.0636 214.472 44.2389C214.555 44.4143 214.597 44.603 214.597 44.8102V44.9511C214.597 45.1583 214.557 45.347 214.478 45.5223C214.398 45.6951 214.286 45.8465 214.143 45.9741C213.999 46.1016 213.829 46.1999 213.635 46.269C213.441 46.3407 213.229 46.3753 212.998 46.3753H211.026V41.7758ZM213.051 45.7535C213.298 45.7535 213.503 45.6765 213.665 45.5223C213.827 45.3682 213.909 45.1716 213.909 44.9298V44.8235C213.909 44.5817 213.827 44.3851 213.665 44.231C213.503 44.0769 213.298 43.9998 213.051 43.9998H211.68V45.7509H213.051V45.7535Z" fill="white"/>
<path d="M218.182 41.7758H218.782L220.525 44.8368H220.613L222.356 41.7758H222.957V46.3753H222.303V43.1654H222.215L220.863 45.5808H220.278L218.926 43.1761H218.838V46.378H218.185V41.7758H218.182Z" fill="white"/>
<path d="M225.393 46.2185C225.144 46.091 224.931 45.9236 224.761 45.7137C224.591 45.5038 224.461 45.2646 224.373 44.9963C224.285 44.7279 224.24 44.4515 224.24 44.1699V44.1247C224.24 43.8191 224.288 43.5215 224.386 43.2319C224.485 42.9423 224.631 42.6845 224.827 42.4587C225.024 42.2328 225.274 42.0495 225.574 41.9139C225.874 41.7784 226.23 41.7094 226.645 41.7094H226.69C226.85 41.7094 227.006 41.7226 227.163 41.7492C227.32 41.7758 227.477 41.8183 227.636 41.8741C227.796 41.9299 227.958 41.999 228.122 42.0813C228.287 42.1637 228.454 42.2647 228.627 42.3816V46.37H228.114C228.072 46.277 228.04 46.1521 228.013 46.0033C227.987 45.8518 227.974 45.7243 227.974 45.618V45.5038C227.881 45.6526 227.772 45.7801 227.652 45.8917C227.53 46.0033 227.4 46.099 227.259 46.1734C227.118 46.2504 226.966 46.3089 226.804 46.3461C226.642 46.3833 226.472 46.4045 226.297 46.4045H226.27C225.933 46.4099 225.643 46.3461 225.393 46.2185ZM226.353 45.7535C226.565 45.7535 226.77 45.7137 226.966 45.634C227.163 45.5542 227.336 45.4347 227.485 45.2752C227.631 45.1158 227.75 44.9218 227.838 44.6907C227.926 44.4595 227.971 44.1964 227.971 43.8935V42.7961C227.801 42.642 227.607 42.5304 227.392 42.4613C227.176 42.3896 226.959 42.355 226.741 42.355H226.695C226.39 42.355 226.124 42.4055 225.904 42.5065C225.683 42.6075 225.5 42.7377 225.356 42.8998C225.213 43.0618 225.104 43.2478 225.035 43.4604C224.963 43.673 224.928 43.8909 224.928 44.1141V44.1592C224.928 44.425 224.966 44.6588 225.043 44.8581C225.12 45.0574 225.223 45.2248 225.354 45.3576C225.484 45.4905 225.63 45.5888 225.795 45.6526C225.959 45.7163 226.129 45.7509 226.308 45.7509H226.353V45.7535Z" fill="white"/>
<path d="M230.49 46.0007C230.219 45.7057 230.083 45.2779 230.083 44.7173V41.7731H230.737V44.603C230.737 44.9803 230.822 45.2726 230.99 45.4772C231.157 45.6845 231.436 45.7854 231.827 45.7854H231.861C232.079 45.7854 232.281 45.7536 232.462 45.6871C232.645 45.6234 232.802 45.5277 232.935 45.4055C233.067 45.2806 233.171 45.1318 233.246 44.9538C233.32 44.7757 233.357 44.5791 233.357 44.3612V41.7705H234.011V46.37H233.498C233.469 46.2877 233.442 46.1867 233.418 46.0644C233.394 45.9449 233.376 45.8333 233.365 45.7323C233.171 45.9555 232.937 46.1309 232.661 46.2531C232.385 46.3753 232.084 46.4391 231.755 46.4391H231.728C231.176 46.4444 230.761 46.2956 230.49 46.0007ZM231.295 39.9982C231.295 40.2054 231.364 40.3702 231.502 40.4977C231.641 40.6253 231.821 40.689 232.047 40.689C232.27 40.689 232.451 40.6253 232.587 40.4977C232.722 40.3702 232.791 40.2054 232.791 39.9982H233.429C233.429 40.1815 233.397 40.3463 233.331 40.4977C233.267 40.6492 233.174 40.7767 233.052 40.883C232.929 40.9893 232.786 41.0717 232.618 41.1301C232.451 41.1886 232.26 41.2178 232.047 41.2178C231.835 41.2178 231.643 41.1886 231.473 41.1301C231.303 41.0717 231.157 40.9893 231.035 40.883C230.913 40.7767 230.822 40.6492 230.756 40.4977C230.692 40.3463 230.657 40.1815 230.657 39.9982H231.295Z" fill="white"/>
<path d="M236.62 46.2662C236.349 46.1599 236.115 46.0085 235.921 45.8145C235.727 45.6206 235.575 45.3894 235.467 45.1237C235.358 44.8579 235.302 44.5657 235.302 44.2495V44.0289C235.302 43.7101 235.358 43.4178 235.467 43.1547C235.575 42.889 235.727 42.6605 235.921 42.4638C236.115 42.2699 236.349 42.1184 236.62 42.0121C236.891 41.9058 237.188 41.8527 237.513 41.8527H237.6C237.924 41.8527 238.222 41.9058 238.493 42.0121C238.764 42.1184 238.998 42.2672 239.192 42.4638C239.386 42.6578 239.537 42.889 239.646 43.1547C239.755 43.4204 239.811 43.7127 239.811 44.0289V44.2495C239.811 44.5683 239.755 44.8606 239.646 45.1237C239.537 45.3894 239.386 45.6179 239.192 45.8145C238.998 46.0085 238.764 46.1599 238.493 46.2662C238.222 46.3725 237.924 46.4257 237.6 46.4257H237.513C237.188 46.4257 236.891 46.3725 236.62 46.2662ZM239.458 40.5534C239.309 40.572 239.152 40.5852 238.979 40.5985C238.809 40.6092 238.634 40.6198 238.453 40.6304C238.272 40.6384 238.094 40.6464 237.914 40.6517C237.733 40.657 237.558 40.6676 237.388 40.6782C237.21 40.6889 237.053 40.7075 236.915 40.7314C236.776 40.7553 236.657 40.7898 236.561 40.8377C236.463 40.8855 236.389 40.9466 236.335 41.0184C236.282 41.0928 236.256 41.1858 236.256 41.2974C236.256 41.5392 236.346 41.6933 236.529 41.7624C236.713 41.8315 236.981 41.8633 237.334 41.8633V42.4293C236.734 42.424 236.288 42.3177 235.998 42.1158C235.708 41.9112 235.565 41.6454 235.565 41.316C235.565 41.122 235.613 40.9466 235.706 40.7898C235.799 40.6331 235.932 40.5002 236.099 40.3886C236.266 40.277 236.468 40.1893 236.699 40.1229C236.933 40.0591 237.188 40.0193 237.465 40.0086C237.871 39.99 238.235 39.9768 238.551 39.9635C238.87 39.9528 239.171 39.9156 239.455 39.8572V40.5534H239.458ZM237.592 45.772C237.823 45.772 238.031 45.7348 238.219 45.6604C238.408 45.586 238.567 45.4824 238.7 45.3469C238.833 45.2114 238.937 45.0493 239.011 44.8659C239.086 44.6799 239.123 44.4753 239.123 44.2521V44.0316C239.123 43.8084 239.086 43.6011 239.011 43.4125C238.937 43.2238 238.833 43.0644 238.698 42.9315C238.562 42.7987 238.403 42.695 238.217 42.6206C238.031 42.5462 237.823 42.509 237.592 42.509H237.52C237.289 42.509 237.082 42.5462 236.896 42.6206C236.71 42.695 236.551 42.7987 236.415 42.9315C236.28 43.0644 236.176 43.2238 236.102 43.4125C236.027 43.6011 235.99 43.8084 235.99 44.0316V44.2521C235.99 44.4753 236.027 44.6799 236.102 44.8659C236.176 45.0519 236.28 45.2114 236.412 45.3469C236.545 45.4824 236.705 45.586 236.893 45.6604C237.082 45.7348 237.292 45.772 237.52 45.772H237.592Z" fill="white"/>
<path d="M240.935 48.0759C240.805 48.0546 240.685 48.0121 240.574 47.9483V47.3478C240.685 47.3956 240.789 47.4275 240.882 47.4488C240.975 47.47 241.065 47.4807 241.148 47.4807C241.395 47.4807 241.605 47.3956 241.78 47.2282C241.953 47.0608 242.099 46.8403 242.218 46.5693L240.133 41.7758H240.877L242.521 45.6127H242.582L243.972 41.7758H244.679L242.936 46.5772C242.859 46.8004 242.768 47.005 242.665 47.191C242.561 47.377 242.444 47.5365 242.311 47.672C242.179 47.8075 242.027 47.9138 241.857 47.9908C241.687 48.0679 241.488 48.1051 241.265 48.1051C241.174 48.1078 241.063 48.0971 240.935 48.0759Z" fill="white"/>
<path d="M245.516 41.7757H246.029C246.058 41.8395 246.082 41.9245 246.103 42.0228C246.125 42.1238 246.141 42.2195 246.151 42.3151C246.321 42.1265 246.528 41.9777 246.77 41.8687C247.012 41.7598 247.275 41.704 247.557 41.704H247.583C247.937 41.704 248.226 41.7677 248.455 41.8979C248.681 42.0281 248.848 42.2248 248.954 42.4905C249.125 42.2434 249.342 42.0494 249.608 41.9112C249.874 41.7731 250.171 41.704 250.501 41.704H250.527C251.03 41.704 251.402 41.8422 251.651 42.1185C251.899 42.3948 252.023 42.8014 252.023 43.3381V46.3726H251.37V43.4444C251.37 43.2664 251.351 43.1123 251.311 42.9768C251.274 42.8412 251.213 42.727 251.133 42.6366C251.054 42.5463 250.953 42.4772 250.833 42.4294C250.711 42.3815 250.567 42.3576 250.395 42.3576H250.368C250.179 42.3576 250.007 42.3869 249.85 42.4427C249.693 42.4985 249.56 42.5808 249.449 42.6898C249.337 42.7987 249.249 42.9343 249.188 43.091C249.127 43.2505 249.095 43.4364 249.095 43.649V46.3726H248.442V43.4444C248.442 43.2664 248.423 43.1123 248.383 42.9768C248.346 42.8412 248.285 42.727 248.205 42.6366C248.125 42.5463 248.022 42.4772 247.894 42.4294C247.767 42.3815 247.618 42.3576 247.448 42.3576H247.421C247.233 42.3576 247.063 42.3869 246.908 42.4427C246.754 42.4985 246.621 42.5808 246.51 42.6898C246.398 42.7987 246.313 42.9343 246.255 43.091C246.196 43.2505 246.167 43.4364 246.167 43.649V46.3726H245.513V41.7757H245.516Z" fill="white"/>
<path d="M253.527 41.7758H254.181V43.6783H256.78V41.7758H257.433V46.3753H256.78V44.2974H254.181V46.3753H253.527V41.7758Z" fill="white"/>
<path d="M260.088 46.2584C259.806 46.1468 259.565 45.9874 259.363 45.7854C259.163 45.5808 259.007 45.3364 258.895 45.0521C258.783 44.7651 258.728 44.4489 258.728 44.1008V44.0477C258.728 43.6996 258.783 43.3834 258.895 43.1017C259.007 42.8201 259.166 42.5729 259.368 42.3683C259.573 42.1611 259.814 42.0017 260.093 41.8901C260.372 41.7785 260.678 41.7227 261.007 41.7227H261.053C261.512 41.7227 261.905 41.8289 262.232 42.0415C262.559 42.2541 262.809 42.5278 262.979 42.8652L262.421 43.1735C262.296 42.9264 262.115 42.7297 261.876 42.5809C261.637 42.4348 261.35 42.3604 261.013 42.3604H261.005C260.787 42.3604 260.585 42.3923 260.404 42.4587C260.221 42.5225 260.061 42.6155 259.926 42.7377C259.79 42.8599 259.681 43.0034 259.599 43.1761C259.517 43.3462 259.461 43.5428 259.432 43.7607H261.783V44.3798H259.432C259.461 44.5924 259.522 44.7864 259.612 44.9591C259.703 45.1318 259.82 45.2806 259.96 45.4055C260.101 45.5304 260.266 45.626 260.455 45.6924C260.643 45.7615 260.848 45.7934 261.066 45.7934H261.074C261.422 45.7934 261.712 45.7164 261.94 45.5622C262.171 45.4081 262.344 45.2221 262.461 45.0042L263 45.3311C262.812 45.6553 262.554 45.9183 262.227 46.1229C261.9 46.3275 261.512 46.4285 261.063 46.4285H261.01C260.681 46.4258 260.372 46.37 260.088 46.2584Z" fill="white"/>
<path d="M24.7913 0C28.9922 0 31.0595 1.9291 32.2977 4.88917L49.5134 46.7606H40.4233L36.4987 36.775H12.9457L9.02104 46.7606H0L17.2184 4.95825C18.4566 1.9291 20.5212 0 24.7913 0ZM33.9505 30.3022L25.7558 9.36647C25.4104 8.60918 24.9985 8.47101 24.7913 8.47101C24.5149 8.47101 24.1031 8.60918 23.7576 9.36647L15.4939 30.3022H33.9505Z" fill="white"/>
<path d="M96.4175 15.4939C96.4175 26.0322 90.8349 31.1977 79.5287 31.1977H62.568V46.7606H54.4717V0H79.5287C90.8349 0 96.4175 5.16552 96.4175 15.4939ZM79.1088 24.7062C84.9014 24.7062 87.8323 21.6346 87.8323 15.4939C87.8323 9.56045 84.9014 6.56052 79.1088 6.56052H62.568V24.7062H79.1088Z" fill="white"/>
<path d="M86.0334 41.4861C94.0129 40.2479 95.0173 39.2408 96.2555 31.264C97.4938 39.2435 98.5008 40.2479 106.478 41.4861C98.4982 42.7243 97.4938 43.7314 96.2555 51.7082C95.0173 43.7288 94.0129 42.7243 86.0334 41.4861Z" fill="white"/>
<path d="M116.803 8.79773H129.611V11.7179H120.029V17.8321H129.002V20.6619H120.029V27.172H129.916V30.0922H116.803V8.79773Z" fill="white"/>
<path d="M136.82 29.6485C135.988 29.234 135.289 28.6707 134.72 27.9612C134.152 27.2517 133.716 26.4466 133.413 25.5432C133.11 24.6397 132.956 23.6832 132.956 22.6681V22.3945C132.956 21.2997 133.129 20.2501 133.474 19.2457C133.82 18.2413 134.335 17.3538 135.026 16.5833C135.714 15.8127 136.588 15.1936 137.643 14.7286C138.698 14.2636 139.926 14.0297 141.323 14.0297H141.475C142.144 14.0297 142.803 14.0962 143.452 14.2264C144.1 14.3592 144.77 14.5771 145.461 14.88V8.18665H148.471V30.0896H146.098C145.997 29.7654 145.891 29.3456 145.779 28.8274C145.668 28.3093 145.612 27.8682 145.612 27.5042V27.1694C145.288 27.6556 144.927 28.0861 144.533 28.4634C144.137 28.838 143.696 29.1675 143.21 29.4519C142.724 29.7362 142.211 29.9434 141.674 30.0763C141.137 30.2091 140.545 30.2729 139.894 30.2729H139.772C138.634 30.2729 137.651 30.0657 136.82 29.6485ZM140.5 27.5653C141.169 27.5653 141.807 27.4377 142.416 27.1853C143.024 26.9329 143.55 26.5529 143.997 26.0454C144.443 25.5379 144.802 24.9347 145.075 24.2359C145.349 23.537 145.485 22.7611 145.485 21.9082V17.8932C144.956 17.4681 144.369 17.1492 143.72 16.934C143.072 16.7214 142.423 16.6151 141.772 16.6151H141.621C140.667 16.6151 139.841 16.7772 139.142 17.1014C138.443 17.4256 137.869 17.8507 137.423 18.3795C136.976 18.9083 136.642 19.5061 136.418 20.1731C136.195 20.8427 136.084 21.5628 136.084 22.3333V22.4848C136.084 23.3165 136.2 24.0578 136.434 24.7062C136.668 25.3545 136.982 25.8886 137.378 26.3031C137.773 26.7203 138.231 27.0339 138.746 27.2464C139.264 27.459 139.785 27.5653 140.314 27.5653H140.5Z" fill="white"/>
<path d="M154.615 28.8273C153.661 27.8043 153.186 26.327 153.186 24.4005V14.2715H156.196V23.7921C156.196 25.0303 156.464 25.9736 157.001 26.6219C157.538 27.2703 158.404 27.5944 159.603 27.5944H159.693C160.363 27.5944 160.987 27.4882 161.564 27.2756C162.14 27.063 162.637 26.7548 163.054 26.3482C163.469 25.9417 163.79 25.4554 164.013 24.8868C164.237 24.3182 164.348 23.6698 164.348 22.9391V14.2688H167.33V30.0869H164.989C164.866 29.8025 164.765 29.4385 164.683 28.9921C164.601 28.5457 164.55 28.1498 164.532 27.807C163.843 28.6174 163.014 29.2472 162.052 29.6936C161.091 30.14 160.038 30.3632 158.904 30.3632H158.813C156.967 30.3632 155.569 29.853 154.615 28.8273Z" fill="white"/>
<path d="M176.119 29.7414C175.125 29.3668 174.283 28.8247 173.595 28.1152C172.904 27.4058 172.367 26.5635 171.982 25.5909C171.597 24.6184 171.405 23.5316 171.405 22.3359V22.033C171.405 20.8373 171.597 19.7505 171.982 18.778C172.367 17.8055 172.909 16.9685 173.608 16.2696C174.307 15.5708 175.139 15.0288 176.103 14.6435C177.065 14.2582 178.136 14.0642 179.313 14.0642H179.496C181.037 14.0642 182.382 14.4043 183.527 15.0819C184.672 15.7621 185.56 16.6682 186.19 17.8055L183.817 19.3254C183.392 18.4937 182.812 17.84 182.082 17.3644C181.351 16.8888 180.469 16.6496 179.435 16.6496H179.406C178.635 16.6496 177.95 16.7772 177.352 17.0296C176.754 17.2847 176.241 17.6434 175.816 18.1084C175.391 18.5761 175.075 19.142 174.873 19.8116C174.671 20.4812 174.57 21.2412 174.57 22.0941V22.2775C174.57 23.1304 174.692 23.885 174.934 24.544C175.178 25.203 175.511 25.7663 175.938 26.2313C176.364 26.699 176.892 27.0577 177.519 27.3101C178.149 27.5652 178.837 27.6901 179.589 27.6901H179.619C180.713 27.6901 181.617 27.443 182.326 26.9461C183.036 26.4492 183.594 25.8354 184 25.1047L186.283 26.6565C185.592 27.7725 184.686 28.66 183.559 29.3189C182.432 29.9779 181.091 30.3074 179.528 30.3074H179.316C178.178 30.3047 177.113 30.1161 176.119 29.7414Z" fill="white"/>
<path d="M192.516 29.6485C191.685 29.234 190.975 28.676 190.388 27.9745C189.801 27.2756 189.354 26.4652 189.049 25.5405C188.743 24.6185 188.592 23.6592 188.592 22.6655V22.3599C188.592 21.2864 188.775 20.2421 189.139 19.2271C189.503 18.2121 190.032 17.3219 190.72 16.5514C191.408 15.7808 192.283 15.167 193.337 14.71C194.392 14.2529 195.62 14.0244 197.018 14.0244H197.201C197.788 14.0244 198.383 14.0696 198.981 14.1626C199.579 14.2529 200.164 14.4124 200.73 14.6329C201.298 14.8561 201.864 15.1138 202.433 15.4088C203.002 15.7037 203.56 16.0518 204.107 16.4584V30.0869H201.734C201.612 29.7627 201.5 29.3456 201.399 28.8407C201.298 28.3332 201.248 27.8974 201.248 27.5334V27.1986C200.964 27.6662 200.623 28.0861 200.23 28.4607C199.834 28.8354 199.398 29.1649 198.923 29.4492C198.447 29.7335 197.929 29.9408 197.371 30.0736C196.813 30.2065 196.22 30.2703 195.591 30.2703H195.439C194.321 30.2729 193.348 30.0657 192.516 29.6485ZM196.135 27.5653C196.824 27.5653 197.475 27.4377 198.083 27.1853C198.692 26.9329 199.218 26.5529 199.664 26.0454C200.111 25.5379 200.464 24.9347 200.73 24.2359C200.993 23.537 201.126 22.7611 201.126 21.9082V17.8932C200.597 17.4468 200.01 17.1227 199.361 16.9207C198.713 16.7188 198.062 16.6151 197.414 16.6151H197.291C196.337 16.6151 195.511 16.7772 194.812 17.1014C194.113 17.4256 193.539 17.8454 193.093 18.3635C192.647 18.8817 192.306 19.4795 192.075 20.1571C191.841 20.8373 191.725 21.5628 191.725 22.3333V22.4848C191.725 23.3165 191.847 24.0578 192.089 24.7062C192.333 25.3545 192.652 25.8886 193.048 26.3031C193.444 26.7203 193.895 27.0338 194.4 27.2464C194.908 27.459 195.423 27.5653 195.952 27.5653H196.135Z" fill="white"/>
<path d="M211.847 29.909C211.249 29.707 210.758 29.4014 210.373 28.9976C209.987 28.591 209.687 28.0862 209.474 27.4777C209.262 26.8692 209.156 26.1597 209.156 25.3493C209.177 24.7408 209.201 24.0712 209.233 23.3405C209.262 22.6098 209.304 21.8711 209.355 21.1191C209.405 20.3698 209.472 19.6284 209.551 18.8977C209.631 18.167 209.735 17.4894 209.854 16.8597H207.147V14.7605C207.471 14.6383 207.84 14.5373 208.257 14.4576C208.672 14.3779 209.073 14.3168 209.458 14.2743V10.6233L212.469 10.2274V14.2743H217.398V16.8597H212.53C212.49 17.4283 212.442 18.0155 212.395 18.624C212.344 19.2325 212.304 19.8676 212.272 20.5265C212.243 21.1855 212.222 21.8658 212.211 22.5646C212.201 23.2634 212.195 23.9702 212.195 24.6797C212.174 25.7346 212.373 26.4706 212.788 26.8851C213.202 27.2996 213.795 27.5096 214.568 27.5096C214.791 27.5096 215.038 27.5042 215.312 27.4936C215.586 27.483 215.875 27.4644 216.178 27.4325C216.484 27.4006 216.76 27.3661 217.015 27.3262C217.268 27.2864 217.478 27.2359 217.64 27.1748V29.6698C217.438 29.7708 217.177 29.8585 216.864 29.9276C216.55 29.9993 216.216 30.0551 215.86 30.095C215.503 30.1348 215.163 30.1667 214.839 30.1853C214.515 30.2066 214.201 30.2145 213.896 30.2145C213.128 30.2119 212.445 30.1109 211.847 29.909Z" fill="white"/>
<path d="M221.11 11.4284C220.765 11.0936 220.592 10.6738 220.592 10.1662C220.592 9.65872 220.765 9.23357 221.11 8.88814C221.455 8.54271 221.902 8.37 222.449 8.37C222.997 8.37 223.454 8.54271 223.818 8.88814C224.182 9.23357 224.365 9.65872 224.365 10.1662C224.365 10.6738 224.187 11.0936 223.834 11.4284C223.477 11.7632 223.018 11.9306 222.449 11.9306C221.899 11.9306 221.453 11.7632 221.11 11.4284ZM220.988 14.2715H223.969V30.0896H220.988V14.2715Z" fill="white"/>
<path d="M232.881 29.7415C231.887 29.3456 231.029 28.7982 230.311 28.0994C229.591 27.4005 229.033 26.5529 228.637 25.5591C228.242 24.5653 228.045 23.4918 228.045 22.336V22.0331C228.045 20.856 228.242 19.7772 228.637 18.794C229.033 17.8109 229.591 16.9685 230.311 16.2697C231.032 15.5709 231.887 15.0235 232.881 14.6276C233.875 14.2317 234.969 14.035 236.165 14.035H236.349C237.523 14.035 238.615 14.2317 239.619 14.6276C240.624 15.0235 241.485 15.5709 242.205 16.2697C242.925 16.9685 243.488 17.8109 243.892 18.794C244.299 19.7772 244.501 20.8586 244.501 22.0331V22.336C244.501 23.4918 244.299 24.568 243.892 25.5591C243.486 26.5529 242.922 27.4005 242.205 28.0994C241.485 28.7982 240.624 29.3456 239.619 29.7415C238.615 30.1374 237.526 30.334 236.349 30.334H236.165C234.969 30.334 233.875 30.1374 232.881 29.7415ZM236.287 27.7167C237.037 27.7167 237.722 27.5839 238.341 27.3208C238.961 27.0578 239.492 26.6831 239.938 26.1942C240.385 25.7079 240.736 25.134 240.988 24.475C241.24 23.816 241.368 23.0906 241.368 22.2988V22.0543C241.368 21.2439 241.24 20.5132 240.988 19.8648C240.733 19.2165 240.385 18.6479 239.938 18.1616C239.492 17.6753 238.961 17.3007 238.341 17.035C237.722 16.7719 237.039 16.6391 236.287 16.6391H236.197C235.466 16.6391 234.791 16.7719 234.175 17.035C233.556 17.298 233.03 17.6727 232.594 18.1616C232.158 18.6479 231.818 19.2165 231.576 19.8648C231.332 20.5132 231.212 21.2439 231.212 22.0543V22.2988C231.212 23.0906 231.329 23.816 231.563 24.475C231.797 25.134 232.137 25.7079 232.581 26.1942C233.027 26.6804 233.553 27.0578 234.162 27.3208C234.77 27.5839 235.45 27.7167 236.2 27.7167H236.287Z" fill="white"/>
<path d="M248.548 14.2715H250.921C251.022 14.5744 251.112 14.9517 251.195 15.3981C251.274 15.8445 251.335 16.2404 251.378 16.5832C252.066 15.7515 252.914 15.1138 253.918 14.6674C254.923 14.221 255.983 13.9978 257.096 13.9978H257.218C259.124 13.9978 260.558 14.5159 261.523 15.5496C262.485 16.5832 262.968 18.0633 262.968 19.9897V30.0895H259.958V20.5982C259.958 19.3413 259.674 18.3874 259.105 17.7391C258.536 17.0907 257.625 16.7666 256.368 16.7666H256.246C255.558 16.7666 254.923 16.8728 254.346 17.0854C253.767 17.298 253.27 17.6036 252.855 17.9968C252.438 18.3927 252.119 18.8737 251.896 19.4423C251.673 20.011 251.561 20.6593 251.561 21.39V30.0895H248.551V14.2715H248.548Z" fill="white"/>
</svg>
