<?xml version="1.0" encoding="UTF-8"?>
<svg width="1583px" height="460px" viewBox="0 0 1583 460" version="1.1" xmlns="http://www.w3.org/2000/svg" xmlns:xlink="http://www.w3.org/1999/xlink">
    <!-- Generator: Sketch 52 (66869) - http://www.bohemiancoding.com/sketch -->
    <title>logos / paw+text / ua / svg / 2-raw</title>
    <desc>Created with Sketch.</desc>
    <g id="logos-/-paw+text-/-ua-/-svg-/-2-raw" stroke="none" stroke-width="1" fill="none" fill-rule="evenodd">
        <g id="monopaw" transform="translate(0.000000, 22.000000)" fill-rule="nonzero">
            <rect id="bounce" x="0" y="0" width="416" height="416"></rect>
            <path d="M128.655878,372.46922 C127.184914,372.36763 125.709897,372.286357 124.238932,372.152258 C115.996668,371.376106 108.439233,368.681926 101.728718,363.809645 C90.1514569,355.402014 82.7480074,344.222994 79.7979739,330.15474 C78.6957635,324.86797 78.387793,319.532436 78.7241292,314.148139 C79.1050402,307.829209 80.3612358,301.701269 82.3630442,295.707429 C85.5602646,286.141666 90.3824348,277.461773 96.4851141,269.460504 C101.084411,263.430091 106.291544,257.968585 112.029522,253.015032 C117.398745,248.374377 122.273594,243.250152 126.840473,237.825218 C132.586555,230.986145 137.785583,223.736646 142.919776,216.438384 C147.45829,209.985354 151.91981,203.491689 156.737928,197.254031 C160.360634,192.548359 164.1819,188.017422 168.440808,183.876593 C173.769509,178.703604 179.649315,174.323021 186.578652,171.48255 C191.777681,169.349149 197.179322,168.219463 202.799784,168.101618 C209.153702,167.955328 215.430628,168.585189 221.6103,170.100919 C231.068237,172.429374 239.261874,177.041583 246.316831,183.754684 C251.143053,188.366893 255.227715,193.584582 259.024667,199.046088 C263.052598,204.836747 266.752297,210.838715 270.56951,216.771601 C274.872993,223.452193 279.314252,230.027131 284.278251,236.24447 C289.221989,242.441491 294.676309,248.159005 300.633107,253.388885 C307.837997,259.715942 314.232438,266.758196 319.678654,274.666002 C324.322525,281.448184 328.107321,288.661111 330.749384,296.455135 C332.807924,302.526184 334.100589,308.735396 334.428821,315.151853 C334.935352,324.896415 333.257723,334.214297 328.848881,342.979526 C324.768272,351.102703 318.8601,357.624814 311.440442,362.80593 C305.986122,366.613543 300.102263,369.506841 293.622726,371.116034 C291.329156,371.693069 288.999115,372.107558 286.644762,372.335121 C286.31653,372.36763 286.000455,372.428584 285.68438,372.477347 C285.376409,372.652083 285.036021,372.522047 284.711841,372.562683 C284.444393,372.599256 284.160736,372.477347 283.905445,372.648019 C281.895532,372.648019 279.877514,372.648019 277.867601,372.648019 C277.628519,372.473284 277.357019,372.595192 277.101727,372.562683 C276.866697,372.562683 276.643824,372.562683 276.412846,372.562683 C276.22239,372.562683 276.015726,372.562683 275.829323,372.562683 C270.678921,372.396075 265.678452,371.319215 260.694192,370.161084 C252.249316,368.186164 243.970582,365.589511 235.57028,363.443919 C228.766563,361.712817 221.906114,360.306804 214.924098,359.506271 C210.085718,358.949555 205.235183,358.8886 200.396803,359.055209 C196.52691,359.185245 192.685383,359.782597 188.880326,360.49373 C181.367466,361.911934 174.004539,363.939681 166.63756,365.955236 C158.845095,368.100828 151.05263,370.234229 143.073762,371.542715 C139.827914,372.066922 136.578015,372.517983 133.279488,372.485475 C132.602764,372.477347 131.930091,372.578938 131.245262,372.562683 C130.374029,372.51392 129.514954,372.668337 128.655878,372.46922 Z M271.418774,44.7354861 C282.278787,46.0439719 290.57373,51.5786231 296.91144,60.3072799 C301.255445,66.2929929 303.986658,73.006094 305.680496,80.1824478 C307.127147,86.3632145 307.6742,92.6374446 307.467535,98.9848198 C307.086624,110.647411 304.355412,121.72484 299.306316,132.233363 C295.80923,139.515371 291.29503,146.082181 285.540844,151.746868 C280.414755,156.781694 274.615994,160.804678 267.848747,163.311932 C263.095465,165.07148 258.208459,165.941095 253.143154,165.640387 C244.374098,165.132434 236.930126,161.637721 230.673462,155.534163 C225.340709,150.324601 221.705846,144.025989 219.189403,137.052817 C217.430729,132.176472 216.332571,127.149773 215.761204,122.009294 C215.364084,118.486135 215.206047,114.958912 215.31951,111.431689 C215.578853,103.105331 217.070079,94.9984081 219.768873,87.1271752 C222.63381,78.7479897 226.694158,71.0230472 232.237628,64.1148923 C236.901761,58.303915 242.352029,53.3909978 248.89235,49.7621847 C253.698311,47.092386 258.816295,45.3653473 264.294929,44.7436134 C267.304349,44.4308311 268.518153,44.4538122 271.418774,44.7354861 Z M36.3225204,172.08611 C36.4927147,168.762068 37.0883945,165.498981 37.959627,162.288721 C39.6453604,156.051063 42.4049385,150.366058 46.7043692,145.497841 C51.5103304,140.06478 57.4509199,136.549749 64.5666601,135.131545 C70.3451599,133.985604 76.046667,134.477302 81.6509203,136.208404 C88.093988,138.203642 93.7914429,141.596765 98.8567477,146.013921 C106.726205,152.852994 112.366929,161.268752 116.273292,170.899533 C118.315623,175.942486 119.729856,181.164238 120.511939,186.548535 C120.89285,189.161443 121.075201,191.790606 121.12788,194.431959 C121.221082,199.446467 120.718603,204.379702 119.478617,209.231665 C117.825301,215.705012 115.04141,221.597262 110.604203,226.640215 C105.510532,232.426811 99.160666,236.027178 91.550552,237.266583 C85.96656,238.176834 80.4757695,237.563227 75.1024942,235.823997 C67.8773434,233.471161 61.6855148,229.431922 56.2311945,224.202043 C50.9105983,219.11439 46.684108,213.205886 43.3896337,206.635011 C40.1599954,200.190109 37.9312613,193.395736 36.8574166,186.247827 C36.6710134,184.984041 36.5170282,183.720255 36.3468339,182.460533 C36.2131099,181.883499 36.265789,181.294274 36.1280127,180.721303 C36.0631768,180.48155 36.099647,180.253987 36.0874903,180.006106 C36.0429156,179.701335 36.1806919,179.376245 35.9942887,179.071473 C35.9942887,177.527298 35.9942887,175.987185 35.9942887,174.438946 C36.281998,174.016329 36.1401695,173.54495 36.1725874,173.093888 C36.1969009,172.756607 36.1118038,172.399009 36.3225204,172.08611 Z M107.680827,98.9934931 C107.717297,89.7975199 109.02212,81.5036705 112.089668,73.5227198 C114.4035,67.4882434 117.580459,61.9698467 122.005509,57.2194744 C126.770948,52.0911853 132.431933,48.4136087 139.259963,46.6825064 C146.087994,44.9432768 152.79851,45.4390385 159.395563,47.832511 C165.206481,49.9455937 170.275838,53.2777625 174.777881,57.4836097 C181.966561,64.1885835 187.112911,72.2833156 190.780192,81.3573801 C193.110232,87.1277212 194.714921,93.0931161 195.630728,99.2413739 C196.149415,102.72796 196.449281,106.242992 196.522221,109.782406 C196.599214,114.236134 196.319609,118.673607 195.586153,123.070445 C194.062509,132.25829 190.954438,140.816275 185.410969,148.382737 C181.962509,153.076218 177.776541,156.956976 172.638296,159.752747 C166.896267,162.873607 160.749013,164.17803 154.245161,163.674141 C148.365355,163.223079 142.943453,161.296923 137.886253,158.289843 C131.2892,154.372513 125.948342,149.089807 121.503031,142.872467 C116.231062,135.488869 112.608356,127.325055 110.314786,118.551699 C109.05859,113.752563 108.256246,108.872155 107.891544,103.922665 C107.745663,102.06559 107.620043,100.196325 107.680827,98.9934931 Z M379.943624,177.446571 C379.943624,177.800106 379.943624,178.157705 379.943624,178.515303 C379.5384,187.382123 377.171889,195.7288 373.350623,203.689432 C370.343859,209.92709 366.506384,215.612095 361.757154,220.650984 C355.662579,227.128395 348.591414,232.179476 340.183007,235.210937 C335.146068,237.027375 329.959196,237.921372 324.598078,237.624727 C316.684045,237.177729 309.77497,234.300686 303.964052,228.887943 C299.166195,224.413897 296.001393,218.911755 294.007689,212.718797 C292.212545,207.167892 291.487193,201.446314 291.669544,195.619082 C292.062612,182.806487 296.102699,171.16015 303.100924,160.501274 C305.463382,156.892779 308.174333,153.56061 311.213516,150.512895 C317.466128,144.26711 324.614287,139.46391 333.079424,136.741285 C337.89349,135.205236 342.812914,134.50223 347.853905,134.896401 C355.553168,135.493753 362.267737,138.415496 367.900355,143.742903 C372.981869,148.550166 376.187194,154.487115 378.124167,161.151453 C379.193959,164.833093 379.818005,168.600069 379.943624,172.440191 C379.943624,172.797789 379.943624,173.159452 379.943624,173.51705 C379.903102,174.825536 379.907154,176.134022 379.943624,177.446571 Z" id="black" fill="#ffffff" transform="translate(207.968956, 208.582307) rotate(10.000000) translate(-207.968956, -208.582307) "></path>
        </g>
        <path d="M613.2,183 L574.8,183 L574.8,51 L516,51 L516,183 L477.6,183 L477.6,15 L613.2,15 L613.2,183 Z M658.32,169.8 C647.439946,158.919946 642,145.320082 642,129 C642,112.679918 647.439946,99.0800544 658.32,88.2 C669.200054,77.4799464 683.759909,72.12 702,72.12 C720.240091,72.12 734.719946,77.4799464 745.44,88.2 C756.480055,98.9200536 762,112.519918 762,129 C762,145.480082 756.480055,159.079946 745.44,169.8 C734.719946,180.520054 720.240091,185.88 702,185.88 C683.759909,185.88 669.200054,180.520054 658.32,169.8 Z M680.4,129 C680.4,135.720034 682.43998,141.279978 686.52,145.68 C690.60002,150.080022 695.759969,152.28 702,152.28 C708.400032,152.28 713.59998,150.160021 717.6,145.92 C721.60002,141.679979 723.6,136.040035 723.6,129 C723.6,122.279966 721.56002,116.720022 717.48,112.32 C713.39998,107.919978 708.240031,105.72 702,105.72 C695.759969,105.72 690.60002,107.839979 686.52,112.08 C682.43998,116.320021 680.4,121.959965 680.4,129 Z M818.4,183 L782.4,183 L782.4,75 L818.4,75 L818.4,124.92 L847.68,75 L892.8,75 L857.76,126.36 L898.08,183 L851.52,183 L818.4,132.6 L818.4,183 Z M979.92,75 L1020.96,75 L978.96,183 C971.279962,201.880094 964.40003,214.599967 958.32,221.16 C952.23997,227.720033 944.960042,231 936.48,231 C927.359954,231 918.80004,227.640034 910.8,220.92 L922.32,193.8 C926.000018,196.360013 929.439984,197.64 932.64,197.64 C937.120022,197.64 940.559988,194.68003 942.96,188.76 L945.36,183 L897.12,75 L940.56,75 L959.04,124.44 C960.320006,127.960018 961.679993,132.919968 963.12,139.32 C963.920004,132.119964 964.799995,127.080014 965.76,124.2 L979.92,75 Z M1139.76,183 L1103.76,183 L1103.76,108.6 L1070.16,108.6 L1070.16,183 L1034.16,183 L1034.16,75 L1139.76,75 L1139.76,183 Z M1202.16,183 L1166.16,183 L1166.16,75 L1202.16,75 L1202.16,124.92 L1231.44,75 L1276.56,75 L1241.52,126.36 L1281.84,183 L1235.28,183 L1202.16,132.6 L1202.16,183 Z M1305.6,108.84 L1296.72,82.68 C1308.24006,75.6399648 1321.59992,72.12 1336.8,72.12 C1352.48008,72.12 1363.87996,75.8799624 1371,83.4 C1378.12004,90.9200376 1381.68,102.439922 1381.68,117.96 L1381.68,183 L1350.48,183 L1350.48,173.16 C1345.19997,180.680038 1335.76007,184.44 1322.16,184.44 C1311.91995,184.44 1303.68003,181.40003 1297.44,175.32 C1291.19997,169.23997 1288.08,160.920053 1288.08,150.36 C1288.08,138.999943 1291.63996,130.200031 1298.76,123.96 C1305.88004,117.719969 1315.27994,114.6 1326.96,114.6 C1336.08005,114.6 1343.11998,116.59998 1348.08,120.6 C1348.88,108.279938 1343.92005,102.12 1333.2,102.12 C1325.83996,102.12 1316.64006,104.359978 1305.6,108.84 Z M1334.4,154.44 C1340.80003,154.44 1345.35999,152.600018 1348.08,148.92 L1348.08,142.2 C1344.71998,139.799988 1340.16003,138.6 1334.4,138.6 C1331.35998,138.6 1328.88001,139.319993 1326.96,140.76 C1325.03999,142.200007 1324.08,144.199987 1324.08,146.76 C1324.08,149.160012 1325.03999,151.039993 1326.96,152.4 C1328.88001,153.760007 1331.35998,154.44 1334.4,154.44 Z M526.8,305 L562.8,305 L562.8,413 L526.8,413 L526.8,380.36 C520.079966,383.400015 512.080046,384.92 502.8,384.92 C489.039931,384.92 479.000032,381.320036 472.68,374.12 C466.359968,366.919964 463.2,356.040073 463.2,341.48 L463.2,305 L501.6,305 L501.6,336.68 C501.6,346.440049 505.439962,351.32 513.12,351.32 C519.20003,351.32 523.759985,350.520008 526.8,348.92 L526.8,305 Z M600.72,338.84 L591.84,312.68 C603.360058,305.639965 616.719924,302.12 631.92,302.12 C647.600078,302.12 658.999964,305.879962 666.12,313.4 C673.240036,320.920038 676.8,332.439922 676.8,347.96 L676.8,413 L645.6,413 L645.6,403.16 C640.319974,410.680038 630.880068,414.44 617.28,414.44 C607.039949,414.44 598.800031,411.40003 592.56,405.32 C586.319969,399.23997 583.2,390.920053 583.2,380.36 C583.2,368.999943 586.759964,360.200031 593.88,353.96 C601.000036,347.719969 610.399942,344.6 622.08,344.6 C631.200046,344.6 638.239975,346.59998 643.2,350.6 C644.000004,338.279938 639.040054,332.12 628.32,332.12 C620.959963,332.12 611.760055,334.359978 600.72,338.84 Z M629.52,384.44 C635.920032,384.44 640.479986,382.600018 643.2,378.92 L643.2,372.2 C639.839983,369.799988 635.280029,368.6 629.52,368.6 C626.479985,368.6 624.00001,369.319993 622.08,370.76 C620.15999,372.200007 619.2,374.199987 619.2,376.76 C619.2,379.160012 620.15999,381.039993 622.08,382.4 C624.00001,383.760007 626.479985,384.44 629.52,384.44 Z M781.44,370.28 L798.24,396.68 C788.799953,409.480064 774.0801,415.88 754.08,415.88 C736.15991,415.88 721.760054,410.680052 710.88,400.28 C700.159946,390.039949 694.8,376.280086 694.8,359 C694.8,342.839919 700.079947,329.400054 710.64,318.68 C721.520054,307.639945 735.279917,302.12 751.92,302.12 C771.600098,302.12 786.319951,307.239949 796.08,317.48 L779.52,345.8 C772.799966,339.079966 765.120043,335.72 756.48,335.72 C750.079968,335.72 744.600023,337.879978 740.04,342.2 C735.479977,346.520022 733.2,352.119966 733.2,359 C733.2,365.880034 735.599976,371.479978 740.4,375.8 C745.520026,380.120022 751.03997,382.28 756.96,382.28 C765.760044,382.28 773.919962,378.28004 781.44,370.28 Z M840,341 L808.8,341 L808.8,305 L907.2,305 L907.2,341 L876,341 L876,413 L840,413 L840,341 Z M999.6,356.6 L961.2,413 L925.2,413 L925.2,305 L961.2,305 L961.2,361.4 L999.6,305 L1035.6,305 L1035.6,413 L999.6,413 L999.6,356.6 Z M1168.8,413 L1132.8,413 L1132.8,375.8 L1098,375.8 L1098,413 L1062,413 L1062,305 L1098,305 L1098,342.2 L1132.8,342.2 L1132.8,305 L1168.8,305 L1168.8,413 Z M1206.72,338.84 L1197.84,312.68 C1209.36006,305.639965 1222.71992,302.12 1237.92,302.12 C1253.60008,302.12 1264.99996,305.879962 1272.12,313.4 C1279.24004,320.920038 1282.8,332.439922 1282.8,347.96 L1282.8,413 L1251.6,413 L1251.6,403.16 C1246.31997,410.680038 1236.88007,414.44 1223.28,414.44 C1213.03995,414.44 1204.80003,411.40003 1198.56,405.32 C1192.31997,399.23997 1189.2,390.920053 1189.2,380.36 C1189.2,368.999943 1192.75996,360.200031 1199.88,353.96 C1207.00004,347.719969 1216.39994,344.6 1228.08,344.6 C1237.20005,344.6 1244.23998,346.59998 1249.2,350.6 C1250,338.279938 1245.04005,332.12 1234.32,332.12 C1226.95996,332.12 1217.76006,334.359978 1206.72,338.84 Z M1235.52,384.44 C1241.92003,384.44 1246.47999,382.600018 1249.2,378.92 L1249.2,372.2 C1245.83998,369.799988 1241.28003,368.6 1235.52,368.6 C1232.47998,368.6 1230.00001,369.319993 1228.08,370.76 C1226.15999,372.200007 1225.2,374.199987 1225.2,376.76 C1225.2,379.160012 1226.15999,381.039993 1228.08,382.4 C1230.00001,383.760007 1232.47998,384.44 1235.52,384.44 Z M1342.8,413 L1306.8,413 L1306.8,305 L1339.2,305 L1371.6,341.72 L1401.6,305 L1433.04,305 L1433.04,413 L1397.04,413 L1397.04,359.96 L1370.88,389.96 L1370.16,389.96 L1342.8,359.96 L1342.8,413 Z M1533.84,356.6 L1495.44,413 L1459.44,413 L1459.44,305 L1495.44,305 L1495.44,361.4 L1533.84,305 L1569.84,305 L1569.84,413 L1533.84,413 L1533.84,356.6 Z" id="Покупка-частинами" fill="#ffffff"></path>
    </g>
</svg>