<svg viewBox="0 0 30 30" fill="none" xmlns="http://www.w3.org/2000/svg">
    <path
        d="M20.2375 2.5H9.7625C5.2125 2.5 2.5 5.2125 2.5 9.7625V20.225C2.5 24.7875 5.2125 27.5 9.7625 27.5H20.225C24.775 27.5 27.4875 24.7875 27.4875 20.2375V9.7625C27.5 5.2125 24.7875 2.5 20.2375 2.5ZM15 22.8125C12.7625 22.8125 11.0125 21.7 9.825 20.6V21.4875C9.825 22 9.4 22.425 8.8875 22.425C8.375 22.425 7.95 22 7.95 21.4875V18.05C7.95 17.5375 8.375 17.1125 8.8875 17.1125H11.9875C12.5 17.1125 12.925 17.5375 12.925 18.05C12.925 18.5625 12.5 18.9875 11.9875 18.9875H10.8625C11.7875 19.9125 13.225 20.9375 15 20.9375C18.275 20.9375 20.9375 18.275 20.9375 15C20.9375 14.4875 21.3625 14.0625 21.875 14.0625C22.3875 14.0625 22.8125 14.4875 22.8125 15C22.8125 19.3125 19.3125 22.8125 15 22.8125ZM22.8125 11.925C22.8125 11.9625 22.8125 12 22.8125 12.025C22.8 12.1625 22.7625 12.2875 22.7 12.4C22.6375 12.5125 22.55 12.6125 22.4375 12.7C22.35 12.7625 22.25 12.8125 22.1375 12.85C22.05 12.875 21.9625 12.8875 21.875 12.8875H18.8375C18.325 12.8875 17.9 12.4625 17.9 11.95C17.9 11.4375 18.325 11.0125 18.8375 11.0125H19.875C18.875 10.0875 17.2625 9.0625 15.025 9.0625C11.75 9.0625 9.0875 11.725 9.0875 15C9.0875 15.5125 8.6625 15.9375 8.15 15.9375C7.6375 15.9375 7.1875 15.5125 7.1875 15C7.1875 10.6875 10.6875 7.1875 15 7.1875C17.6875 7.1875 19.6625 8.35 20.9375 9.4625V8.5125C20.9375 8 21.3625 7.575 21.875 7.575C22.3875 7.575 22.8125 8 22.8125 8.5125V11.925Z"
        fill="currentColor" />
</svg>