<svg viewBox="0 0 254 54" fill="none" xmlns="http://www.w3.org/2000/svg">
<path d="M7.12458 11.2921C0.51514 20.8016 2.20247 31.1326 11.2924 40.0384C12.5626 41.2829 13.7937 42.7034 15.8479 43.683C18.7842 45.0831 23.9588 45.6364 27.8183 46.0483C40.2423 47.3743 52.358 47.5141 64.9894 47.7379C109.81 48.532 154.628 49.0895 199.45 49.0895C205.246 49.0895 211.683 49.19 217.309 48.3896C221.613 47.7771 225.238 46.7766 229.303 45.9518C237.588 44.2708 243.759 42.0545 247.259 37.673C251.697 32.1175 250.227 25.9229 247.889 20.2225C246.833 17.648 245.231 14.9494 242.219 12.7523C238.145 9.78166 227.942 8.80654 221.452 7.92507C210.512 6.43902 199.468 5.88465 188.134 5.86142C177.606 5.83985 167.231 5.26071 156.73 4.99251C146.391 4.72845 136.135 4.13999 125.762 3.95465C113.607 3.73749 101.487 4.12361 89.3421 4.12361C70.1932 4.12361 50.8433 5.21529 32.0346 6.97169C26.4844 7.48998 18.9773 8.44186 14.4425 10.2542C8.6396 12.5734 7.04364 16.7387 6.25223 20.1984C4.62549 27.3098 6.44242 35.5922 13.5702 41.8728C17.937 45.7205 29.0377 46.8838 36.9778 47.8344C52.6911 49.7156 70.0302 49.2143 86.0709 49.536C92.3408 49.6618 98.5608 50.0988 104.826 50.2722C112.086 50.4731 119.375 50.2703 126.634 50.1274C140.769 49.8491 154.86 49.3067 169.015 49.3067C179.458 49.3067 189.871 49.167 200.298 49.0895C208.17 49.031 216.44 49.0071 224.239 48.4378C254.723 46.2129 255.396 27.9494 248.567 16.3607C247.517 14.5774 246.37 12.638 243.963 11.1714C241.233 9.50718 236.901 8.58397 233.205 7.5751C224.719 5.2595 216.187 4.29638 206.647 3.73743C180.868 2.22696 155.274 2.56139 129.445 3.35125C108.918 3.97899 88.4356 4.34084 67.873 4.34084C53.1549 4.34084 38.0619 3.10479 24.1351 6.12692C11.3632 8.89845 5.17521 14.348 2.32674 20.85C-0.864801 28.1352 1.59632 38.4441 10.8562 44.5277C16.3781 48.1555 22.2952 50.315 31.2107 51.479C43.3774 53.0674 55.5525 52.9996 68.0184 52.9996C82.3784 52.9996 96.6166 52.1435 110.932 51.6962C124.69 51.2664 138.539 51.1357 152.32 51.0325C175.79 50.8567 199.209 50.3929 222.688 50.3929C228.181 50.3929 234.935 50.9218 240.038 49.6929C245.503 48.3768 250.217 46.4619 251.717 43.3933C253.552 39.6408 253.064 35.7773 252.42 31.9648C251.394 25.8884 249.709 19.51 244.593 13.9229C240.248 9.17659 231.935 5.83029 222.107 4.11154C197.706 -0.155712 172.774 1.16573 147.449 1.28759C129.059 1.37609 110.707 1.37489 92.3226 1.68584C78.2986 1.92305 64.4887 2.86207 50.5475 3.55641C42.5207 3.95617 34.4074 4.2309 26.7521 5.59592C23.5243 6.17146 20.241 6.65368 17.3745 7.62337C12.2637 9.3523 10.9689 11.5447 8.86926 14.3333" stroke="#F9C838" stroke-width="1.5" stroke-linecap="round"/>
</svg>
