<!-- Generated by IcoMoon.io -->
<svg version="1.1" xmlns="http://www.w3.org/2000/svg" width="421" height="448" viewBox="0 0 421 448">
<title></title>
<g id="icomoon-ignore">
</g>
<path d="M96 368c0-8.75-7.25-16-16-16s-16 7.25-16 16 7.25 16 16 16 16-7.25 16-16zM257 263l-170.5 170.5c-5.75 5.75-14 9.25-22.5 9.25s-16.75-3.5-22.75-9.25l-26.5-27c-6-5.75-9.5-14-9.5-22.5s3.5-16.75 9.5-22.75l170.25-170.25c13 32.75 39.25 59 72 72zM415.5 154.25c0 8.25-3 18.5-5.75 26.5-15.75 44.5-58.5 75.25-105.75 75.25-61.75 0-112-50.25-112-112s50.25-112 112-112c18.25 0 42 5.5 57.25 15.75 2.5 1.75 4 4 4 7 0 2.75-1.75 5.5-4 7l-73.25 42.25v56l48.25 26.75c8.25-4.75 66.25-41.25 71.25-41.25s8 3.75 8 8.75z"></path>
</svg>
