<svg stroke="currentColor" fill="currentColor" stroke-width="0" width="176" height="200" viewBox="0 0 176 200" xmlns="http://www.w3.org/2000/svg">
<path d="M0.499988 106.25L0.499988 68.75C0.499988 67.5453 0.639046 66.3441 0.915218 65.1711L13.4152 12.0461C15.0758 4.98829 21.3742 0 28.625 0L109.875 0C112.34 8.52734e-05 114.769 0.583098 116.965 1.70143C119.161 2.81976 121.062 4.44168 122.512 6.43476L172.511 75.1848C177.586 82.1637 176.043 91.9359 169.064 97.0113C162.085 102.087 152.313 100.544 147.237 93.5648L134.875 76.5656L134.875 184.375C134.875 193.004 127.88 200 119.25 200C110.62 200 103.625 193.004 103.625 184.375L103.625 106.25H100.5V121.875C100.5 130.504 93.5047 137.5 84.875 137.5C76.2453 137.5 69.25 130.504 69.25 121.875V106.25L66.125 106.25V115.625C66.125 124.254 59.1297 131.25 50.5 131.25C41.8703 131.25 34.875 124.254 34.875 115.625V106.25H31.75C31.75 114.879 24.7547 121.875 16.125 121.875C7.4953 121.875 0.499988 114.879 0.499988 106.25ZM100.5 75H103.625L103.625 37.5H100.5L100.5 75ZM66.125 75L69.25 75L69.25 37.5H66.125L66.125 75ZM31.75 75H34.875L34.875 37.5H31.75L31.75 75Z"/>
</svg>
