<svg width="41" height="41" viewBox="0 0 41 41" fill="none" xmlns="http://www.w3.org/2000/svg">
<path d="M28.1528 8.59319C26.9259 7.18657 26.1883 5.35248 26.1883 3.34741H24.6509M28.1528 8.59319C29.271 9.87555 30.7849 10.8082 32.5088 11.1734C33.0445 11.2899 33.6036 11.3522 34.186 11.3522V17.103C31.2042 17.103 28.4398 16.1472 26.188 14.5307V26.2269C26.188 32.0712 21.4358 36.8196 15.6043 36.8196C12.5526 36.8196 9.79599 35.5139 7.86251 33.439C6.09985 31.5427 5.02051 29.0091 5.02051 26.2269C5.02051 20.4681 9.63294 15.7741 15.348 15.6498M28.1528 8.59319C28.1229 8.57371 28.0932 8.55403 28.0635 8.53416M11.6908 29.0402C11.1162 28.2475 10.7745 27.2761 10.7745 26.2191C10.7745 23.5535 12.941 21.3852 15.6044 21.3852C16.1014 21.3852 16.5828 21.4707 17.0331 21.6106V15.7353C16.5672 15.6731 16.0936 15.6342 15.6044 15.6342C15.519 15.6342 14.8309 15.68 14.7455 15.68M24.6427 3.34741H20.4341L20.4263 26.4056C20.3332 28.9858 18.2055 31.0609 15.6043 31.0609C13.9891 31.0609 12.5681 30.2604 11.6829 29.048" stroke="currentColor" stroke-width="1.5" stroke-linejoin="round"/>
</svg>
