<svg width="44" height="251" viewBox="0 0 44 251" fill="none" xmlns="http://www.w3.org/2000/svg">
<path d="M1.40837 249.724C0.994594 249.705 0.674533 249.354 0.6935 248.94L1.00256 242.197C1.02153 241.783 1.37234 241.463 1.78612 241.482C2.19989 241.501 2.51996 241.852 2.50099 242.266L2.22627 248.26L8.21997 248.534C8.63375 248.553 8.95381 248.904 8.93485 249.318C8.91588 249.732 8.56507 250.052 8.15129 250.033L1.40837 249.724ZM22.4566 0.860707C32.4044 30.0863 43.3219 77.5604 43.7519 125.046C44.1817 172.502 34.1371 220.161 1.94821 249.529L0.937224 248.42C32.6452 219.492 42.6805 172.382 42.252 125.059C41.8237 77.7663 30.9446 30.4525 21.0366 1.34405L22.4566 0.860707Z" fill="#0F645B"/>
</svg>
