<svg xmlns="http://www.w3.org/2000/svg" xmlns:xlink="http://www.w3.org/1999/xlink" version="1.1" viewBox="0 0 320 300">
<defs>
<clipPath id="clip_0">
<path transform="matrix(1,0,0,-1,0,297.6)" d="M0 297.6H335.3V0H0Z"/>
</clipPath>
</defs>
<g id="layer_1" data-name="Layer 1">
<g clip-path="url(#clip_0)">
<path transform="matrix(1,0,0,-1,249.0117,161.7324)" d="M0 0C-5.215-43.676-37.809-46.283-43.675-48.238-61.928-52.802-80.18-54.105-99.084-52.802-99.084-52.802-121.248-78.877-127.767-86.048-128.419-86.699-129.723-87.352-131.026-87.352-132.33-86.699-132.33-85.396-132.33-83.439V-47.587C-175.354-35.853-172.746 9.126-172.094 31.942-171.442 54.757-166.879 74.313-153.842 87.351-130.375 108.211-82.136 105.604-82.136 105.604-41.72 105.604-22.163 93.218-17.601 89.307-1.955 75.617 5.215 44.979 0 0M-5.866 99.737C-11.082 104.952-32.594 120.597-80.832 120.597-80.832 120.597-137.545 123.856-165.576 98.433-181.221 82.788-186.436 60.625-187.087 32.594-187.739 4.563-188.391-47.587-137.545-61.928V-83.439C-137.545-83.439-137.545-92.566-132.33-93.87-125.16-95.825-121.248-89.307-114.729-82.136-110.818-78.225-106.255-72.358-102.344-67.795-80.832-69.751-59.32-68.447-38.46-63.231-31.29-60.624 7.823-56.062 14.342-3.26 21.512 50.194 11.734 84.092-5.866 99.737" fill="#7360f2"/>
<path transform="matrix(1,0,0,-1,187.7363,130.44242)" d="M0 0V0C-1.956 0-2.608 1.304-2.608 3.259-2.608 6.519-3.26 9.778-5.867 12.385-8.475 14.993-11.082 16.297-14.342 16.949H-16.298C-17.602 16.949-18.905 18.252-18.905 19.556-18.905 20.86-17.602 22.164-16.298 22.164H-13.689C-9.127 21.512-4.563 19.556-1.305 15.645 1.955 11.733 3.259 7.17 3.259 2.607 2.607 .652 1.304 0 0 0" fill="#7360f2"/>
<path transform="matrix(1,0,0,-1,201.4248,135.0054)" d="M0 0V0C-1.955 0-2.607 1.304-2.607 2.607-1.955 11.082-5.215 19.556-10.43 25.423-16.297 31.941-24.771 35.201-33.897 35.201-35.201 35.201-36.504 36.505-36.504 37.809-36.504 39.112-35.201 40.416-33.897 40.416-23.467 40.416-13.688 35.853-6.519 28.682 0 21.511 3.912 11.733 3.26 1.955 2.607 1.304 1.956 0 0 0" fill="#7360f2"/>
<path transform="matrix(1,0,0,-1,215.7666,140.8726)" d="M0 0V0C-1.956 0-2.607 1.304-2.607 2.607-1.956 16.949-7.171 31.29-17.601 41.068-27.379 50.194-40.416 55.409-53.454 55.409-54.757 55.409-56.062 56.713-56.062 58.017-56.062 59.32-54.758 60.624-53.454 60.624-38.461 61.276-24.119 55.409-13.689 44.979-2.607 33.246 3.259 18.252 2.607 1.956 2.607 1.304 1.955 0 0 0" fill="#7360f2"/>
<path transform="matrix(1,0,0,-1,172.0908,164.33982)" d="M0 0C1.956 0 4.563 .651 5.867 1.956L9.778 7.171C12.386 10.43 17.601 11.082 20.86 8.475 24.119 6.519 27.379 4.563 30.638 1.956 33.897-.652 39.765-5.215 39.765-5.215 43.023-7.822 43.676-11.733 41.068-14.993 39.112-18.904 35.854-22.164 32.594-25.423 29.986-27.379 27.379-29.335 24.119-29.335H22.815C21.512-29.335 20.208-29.335 18.904-28.683 11.082-26.075 3.26-22.164-4.563-17.601-11.734-13.689-18.252-9.778-24.119-4.563-27.379-1.956-29.986 .651-32.594 3.259H-33.246C-35.853 5.866-38.46 9.126-41.068 12.386-45.631 18.252-50.194 24.771-54.105 31.941-58.668 39.112-61.928 46.935-65.188 55.409-65.839 56.713-65.839 58.017-65.839 59.32V60.624C-65.188 63.883-63.884 66.491-61.928 69.099-59.32 73.01-56.061 76.269-52.802 78.876-49.542 80.833-44.979 80.18-42.372 77.573-42.372 77.573-37.157 71.054-35.201 68.447-33.246 65.839-29.986 61.276-28.683 58.668-26.727 54.757-27.379 50.194-29.986 47.587L-35.201 43.675C-36.505 42.372-37.809 39.764-37.157 37.809-30.638 18.252-16.949 5.215 0 0" fill="#7360f2"/>
</g>
</g>
</svg>
