<svg xmlns="http://www.w3.org/2000/svg" xmlns:xlink="http://www.w3.org/1999/xlink"   viewBox="0 0 50 60"><defs><path id="a-85" d="m-5-1h62v62h-62z"/><path id="c" d="m-5-1h62v62h-62z"/></defs><g transform="translate(-.7 .077394)"><clipPath id="b-3"><use width="100%" height="100%" overflow="visible" xlink:href="#a-85"/></clipPath><g clip-path="url(#b-3)"><clipPath id="d"><use width="100%" height="100%" overflow="visible" xlink:href="#c"/></clipPath><g style="stroke:var(--ov_logo_border_color);" stroke-linecap="round" stroke-linejoin="round" stroke-miterlimit="10"><path transform="translate(.039092 .02257)" d="m38.361 22.877-12.4-7.3 9.2e-5 -14.177 24.8 14.2v28.8l-12.4-7.3226z" clip-path="url(#d)" fill="#4688b4"/><path transform="rotate(120,26,30.082)" d="m38.4 22.923-12.522-7.0887 0.14178-14.4 24.78 14.166v28.8l-12.522-7.0883z" clip-path="url(#d-5)" fill="#64c0ff"/><path d="m26 30v14.4l12.4-7.3v-14.2z" clip-path="url(#d)" fill="#294e67"/><path d="m13.6 37.1v-14.2l12.4-7.3v-14.177l-24.8 14.177v28.8z" clip-path="url(#d)" fill="#294e67"/><path d="m26 15.6-12.4 7.3 12.4 7.1 12.4-7.1z" clip-path="url(#d)" fill="#64c0ff"/><path d="m13.6 22.9 12.4 7.1v14.4l-12.4-7.3z" clip-path="url(#d)" fill="#4688b4"/></g></g></g></svg>