<svg  viewBox="0 0 14 14" xmlns="http://www.w3.org/2000/svg">
<path d="M13.5 6.62502C13.5026 7.61492 13.2713 8.59144 12.825 9.47502C12.2958 10.5338 11.4823 11.4244 10.4756 12.047C9.46886 12.6696 8.30868 12.9996 7.125 13C6.1351 13.0026 5.15859 12.7713 4.275 12.325L0 13.75L1.425 9.47502C0.978698 8.59144 0.747419 7.61492 0.75 6.62502C0.750458 5.44134 1.08046 4.28116 1.70304 3.27443C2.32562 2.26771 3.21619 1.4542 4.275 0.925021C5.15859 0.47872 6.1351 0.24744 7.125 0.250021H7.5C9.06326 0.336265 10.5398 0.996092 11.6469 2.10317C12.7539 3.21024 13.4138 4.68676 13.5 6.25002V6.62502Z" fill="#0F645B"/>
</svg>
