<svg width="40" height="40" viewBox="0 0 40 40" fill="none" xmlns="http://www.w3.org/2000/svg">
<path fill-rule="evenodd" clip-rule="evenodd" d="M34.3247 7.4334C35.9033 7.85597 37.144 9.09651 37.5665 10.6751C38.3301 13.5334 38.3332 19.5007 38.3332 19.5007C38.3332 19.5007 38.3332 25.4679 37.5665 28.3263C37.144 29.9049 35.9033 31.1454 34.3247 31.5679C31.4665 32.3346 19.9998 32.3346 19.9998 32.3346C19.9998 32.3346 8.5332 32.3346 5.67484 31.5679C4.09626 31.1454 2.85573 29.9049 2.43316 28.3263C1.6665 25.4679 1.6665 19.5007 1.6665 19.5007C1.6665 19.5007 1.6665 13.5334 2.43316 10.6751C2.85573 9.09651 4.09626 7.85597 5.67484 7.4334C8.5332 6.66675 19.9998 6.66675 19.9998 6.66675C19.9998 6.66675 31.4665 6.66675 34.3247 7.4334ZM25.8555 19.5012L16.3296 25.0005V14.0018L25.8555 19.5012Z" stroke="currentColor" stroke-width="1.5" stroke-linejoin="round"/>
</svg>
