<svg xmlns="http://www.w3.org/2000/svg" viewBox="0 0 512 512" xml:space="preserve">
  <path style="fill:#0b4943" d="M384.64 346.4H127.36c-12.8 0-23.36-10.48-23.36-23.36V159.36c0-12.88 10.56-23.36 23.36-23.36h257.2c12.88 0 23.36 10.56 23.36 23.36v163.68c.08 12.88-10.48 23.36-23.28 23.36z"/>
  <path style="fill:#0b4943" d="M337.84 416.56v-93.52H220.96z"/>
  <path style="fill:#fff" d="M144 183.52h224v15.6H144zM144 215.84h224v15.6H144zM144 248.08h176v15.6H144zM144 280.4h16V296h-16zM176 280.4h16V296h-16zM208 280.4h16V296h-16zM240 280.4h16V296h-16zM272 280.4h16V296h-16z"/>
</svg>
